<?xml version="1.0" encoding="UTF-8" standalone="no"?>
<svg
   id="a"
   width="180.62mm"
   height="180.62mm"
   viewBox="0 0 512 512"
   version="1.1"
   sodipodi:docname="orcaslicer_bed_texture.svg"
   xml:space="preserve"
   inkscape:export-xdpi="96"
   inkscape:export-ydpi="96"
   xmlns:inkscape="http://www.inkscape.org/namespaces/inkscape"
   xmlns:sodipodi="http://sodipodi.sourceforge.net/DTD/sodipodi-0.dtd"
   xmlns:xlink="http://www.w3.org/1999/xlink"
   xmlns="http://www.w3.org/2000/svg"
   xmlns:svg="http://www.w3.org/2000/svg"><defs
     id="defs3287"><filter
       id="alpha"
       filterUnits="objectBoundingBox"
       x="0"
       y="0"
       width="1"
       height="1"><feColorMatrix
         type="matrix"
         in="SourceGraphic"
         values="0 0 0 0 1 0 0 0 0 1 0 0 0 0 1 0 0 0 1 0"
         id="feColorMatrix3665" /></filter><mask
       id="mask0"><g
         filter="url(#alpha)"
         id="g3670"><rect
           x="0"
           y="0"
           width="281"
           height="80"
           style="fill:#000000;fill-opacity:0.988235;stroke:none"
           id="rect3668" /></g></mask><clipPath
       id="clip1"><rect
         x="0"
         y="0"
         width="281"
         height="80"
         id="rect3673" /></clipPath><g
       id="surface5"
       clip-path="url(#clip1)"><path
         style="fill:#000000;fill-opacity:1;fill-rule:evenodd;stroke:none"
         d="m 246.45703,8.917969 c 0.87891,-0.011719 1.75781,0 2.63672,0.027343 0.51172,0.039063 1.00781,0.140626 1.48828,0.308594 0.0391,0.207032 0.0391,0.414063 0,0.621094 -0.11328,0.542969 -0.28125,1.066406 -0.50391,1.574219 -1.17968,2.285156 -2.41406,4.535156 -3.70312,6.75 -0.46094,0.847656 -0.82422,1.726562 -1.09766,2.644531 0.82422,0 1.64844,0 2.47266,0 0.375,-2.113281 1.61328,-2.929688 3.70312,-2.445312 0.4336,0.316406 0.875,0.625 1.31641,0.925781 0.62109,-0.9375 1.17969,-1.914063 1.68359,-2.925781 0.78516,-1.738282 1.55079,-3.480469 2.30079,-5.230469 0.30859,-0.640625 0.63281,-1.269531 0.98437,-1.886719 1.87109,-0.078125 3.74219,-0.117188 5.61328,-0.109375 0.23047,0.722656 0.21875,1.441406 -0.0312,2.164063 -0.33203,0.644531 -0.58203,1.320312 -0.75781,2.027343 1.58984,0.06641 3.17969,0.101563 4.77344,0.109375 0.043,-0.953125 0.0703,-1.910156 0.082,-2.867187 0.0351,-0.429688 0.14062,-0.84375 0.30859,-1.238281 1.44922,-0.328126 2.91016,-0.394532 4.37891,-0.195313 0.79297,0.210937 1.25,0.726563 1.375,1.546875 0.16015,0.878906 0.3164,1.761719 0.47656,2.644531 0.54297,0.03906 1.08594,0.07813 1.62891,0.109375 1.2539,-0.09375 2.50781,-0.06641 3.75781,0.08594 0.24609,0.05078 0.48047,0.136718 0.70312,0.253906 0.39063,1.0625 0.46485,2.148438 0.22266,3.261719 -0.0664,0.230469 -0.15234,0.457031 -0.25,0.675781 -0.60937,0.265625 -1.24219,0.40625 -1.91016,0.421875 -1.4414,0.01172 -2.8789,0.0039 -4.32031,-0.02734 -0.0469,1.464844 -0.10547,2.925781 -0.16797,4.386719 0.0859,0.04687 0.17969,0.07422 0.28125,0.08594 0.3711,0.0078 0.7461,0.01953 1.1211,0.02734 1.16015,-0.04687 2.32031,-0.05859 3.48047,-0.02734 0.89062,0.160156 1.36718,0.695312 1.42968,1.601562 0.0391,0.542969 0.0391,1.089844 0,1.632812 -0.0781,0.957032 -0.59375,1.492188 -1.54297,1.601563 -0.98437,0.03516 -1.96484,0.0039 -2.94531,-0.08203 -0.59765,0.02344 -1.1875,0.09766 -1.76953,0.222656 -0.0469,1.445312 -0.082,2.890625 -0.11328,4.332031 0.625,0.05859 1.25391,0.09375 1.88281,0.113281 1.11719,-0.09375 2.22656,-0.06641 3.33985,0.08594 0.30078,0.05469 0.60156,0.132812 0.89453,0.222656 0.25,0.929688 0.33593,1.878906 0.2539,2.84375 -0.10156,0.925782 -0.61718,1.441406 -1.54297,1.546875 -0.92578,0.02344 -1.85156,0.01563 -2.77734,-0.03125 -0.66797,0 -1.33203,0.03906 -1.99219,0.113281 -0.0312,1.464844 -0.0508,2.925782 -0.0586,4.390626 1.55078,0.01172 3.10547,0.01953 4.66016,0.02734 0.69531,0.03906 1.32812,0.242188 1.90625,0.617188 0.44921,0.441406 0.625,0.976562 0.53515,1.605469 -0.10547,0.667968 -0.3125,1.308593 -0.61719,1.910156 -0.15234,0.136718 -0.33203,0.222656 -0.53515,0.253906 -1.15235,0.191406 -2.3125,0.304688 -3.47656,0.339844 -6.47657,0.210937 -12.94922,0.15625 -19.41797,-0.171875 -0.47657,-0.01563 -0.94141,-0.07031 -1.40625,-0.167969 -0.24219,-0.28125 -0.40235,-0.609375 -0.47657,-0.984375 -0.10546,-0.632813 -0.15234,-1.269531 -0.14062,-1.910156 0.0781,-1.5 0.11328,-3 0.11328,-4.503907 -0.0508,-5.15625 -0.0664,-10.3125 -0.0547,-15.46875 -0.66406,-0.117187 -1.32812,-0.230468 -1.99218,-0.339843 -0.36719,0.01563 -0.66797,0.167969 -0.89844,0.453125 -0.96485,1.398437 -1.86328,2.839844 -2.69531,4.328125 -0.94922,1.367187 -1.8086,2.792969 -2.58204,4.277343 -0.0898,0.222657 -0.17187,0.449219 -0.25,0.675782 0.0859,0.04297 0.17969,0.07422 0.27735,0.08203 1.6875,0.01172 3.37109,0.03906 5.05078,0.08594 0.38281,1.023438 0.48437,2.074219 0.30859,3.152344 -0.29297,0.761719 -0.84375,1.21875 -1.65234,1.375 -0.48438,0.101563 -0.96875,0.15625 -1.46094,0.171875 -2.60156,0.04687 -5.19922,0.0625 -7.80078,0.05469 -0.72656,-0.0039 -1.40234,-0.191407 -2.01953,-0.5625 -0.21094,-0.191407 -0.35156,-0.425781 -0.42188,-0.703125 -0.0586,-0.929688 0.12891,-1.8125 0.5625,-2.644532 0.32422,-0.691406 0.67969,-1.367187 1.06641,-2.023437 0.82422,-1.3125 1.64453,-2.625 2.46875,-3.941406 0.38672,-0.640625 0.69531,-1.316407 0.92578,-2.023438 -0.84375,0.03516 -1.68359,0.07422 -2.52734,0.113281 -0.78516,0 -1.55469,-0.121093 -2.30078,-0.367187 -0.44922,-0.878906 -0.57032,-1.808594 -0.36328,-2.785156 0.14062,-0.640625 0.34375,-1.257813 0.61718,-1.855469 0.51953,-1.058594 1.07813,-2.089844 1.6836,-3.09375 0.97265,-1.988281 1.94531,-3.976562 2.91797,-5.964844 0.37109,-0.734375 0.79296,-1.4375 1.26171,-2.109375 0.55079,-0.082031 1.09375,-0.144531 1.62891,-0.195312 z m 20.03516,9.167969 c 0.20703,0 0.41015,0 0.61718,0 0.0391,1.539062 0.0742,3.078124 0.11329,4.613281 -1.98438,0 -3.96485,0 -5.94922,0 -0.0352,-1.480469 -0.0703,-2.960938 -0.11328,-4.441407 1.78906,-0.03516 3.5664,-0.08984 5.33203,-0.171874 z m -5.21875,9.339843 c 1.94531,-0.01953 3.89062,0 5.83593,0.05469 0.0664,1.460937 0.10547,2.925781 0.11329,4.390625 -2.00391,0.02734 -4.00391,0.06641 -6.00391,0.113281 0.0234,-1.519531 0.043,-3.039063 0.0547,-4.558594 z m 4.48828,9.28125 c 0.44922,0 0.89844,0 1.34765,0 -0.0156,1.503907 0.004,3.003907 0.0586,4.503907 -1.94922,0.01172 -3.89453,0.03125 -5.83985,0.05469 -0.0742,-1.480469 -0.1289,-2.960937 -0.16796,-4.445313 1.54296,-0.01953 3.07812,-0.05469 4.60156,-0.113281 z m 0,0"
         id="path3676" /></g><mask
       id="mask1"><g
         filter="url(#alpha)"
         id="g3681"><rect
           x="0"
           y="0"
           width="281"
           height="80"
           style="fill:#000000;fill-opacity:0.984314;stroke:none"
           id="rect3679" /></g></mask><clipPath
       id="clip2"><rect
         x="0"
         y="0"
         width="281"
         height="80"
         id="rect3684" /></clipPath><g
       id="surface8"
       clip-path="url(#clip2)"><path
         style="fill:#000000;fill-opacity:1;fill-rule:evenodd;stroke:none"
         d="m 167.15625,9.03125 c 4.37891,-0.019531 8.75781,0.011719 13.13281,0.082031 1.76563,0.035157 3.52344,0.136719 5.27735,0.308594 -0.0547,0.996094 -0.16797,1.980469 -0.33594,2.953125 -1.14063,0.136719 -2.28125,0.210938 -3.42578,0.226562 -3.55469,0.02734 -7.10938,0.02734 -10.66407,0 -0.20703,0.01563 -0.41406,0.05078 -0.61718,0.113282 -0.0937,0.171875 -0.1875,0.339844 -0.27735,0.507812 0.0781,0.226563 0.13672,0.460938 0.16797,0.703125 4.52735,0.0078 9.05469,0.03516 13.57813,0.08203 0.67578,0.02344 1.35156,0.05859 2.02343,0.113282 0.41797,0.01953 0.82813,0.08594 1.23438,0.195312 0.23437,2.550782 0.26172,5.101563 0.082,7.652344 -0.0625,0.601562 -0.14062,1.203125 -0.22266,1.800781 -0.0156,0.0625 -0.043,0.121094 -0.0859,0.167969 -0.9375,0.238281 -1.89063,0.332031 -2.85938,0.28125 -0.98828,0.04687 -1.96094,-0.04687 -2.91797,-0.28125 -0.10547,-2.195312 -0.19922,-4.390625 -0.28125,-6.582031 -0.0586,-0.01953 -0.11328,-0.03906 -0.16797,-0.05469 -3.55468,0.08984 -7.10937,0.144531 -10.66406,0.167969 0.0547,2.460938 -0.0195,4.917969 -0.22656,7.371094 -2.01953,0 -4.03906,0 -6.05859,0 -0.0312,-2.476563 -0.0664,-4.953125 -0.11329,-7.429688 -3.60937,-0.0039 -7.22265,0.01563 -10.83203,0.05859 0.14453,2.203125 0.0508,4.398438 -0.28125,6.582031 -1.41406,0.199219 -2.83593,0.265625 -4.26562,0.195313 -0.46485,-0.01563 -0.89453,-0.148438 -1.28906,-0.390625 -0.21094,-0.195313 -0.35157,-0.429688 -0.42188,-0.703125 -0.0352,-2.214844 -0.0703,-4.429688 -0.11328,-6.640625 -0.0117,-0.660157 0.14062,-1.277344 0.44922,-1.855469 0.28515,-0.355469 0.64844,-0.570312 1.09765,-0.648438 5.05079,-0.03125 10.10157,-0.03125 15.15235,0 0.65234,-0.425781 0.6914,-0.894531 0.10937,-1.40625 -0.17968,-0.05859 -0.36718,-0.08984 -0.55859,-0.08203 -3.86328,0.03516 -7.72656,0.07422 -11.58984,0.109375 -0.55469,-0.01953 -1.10547,-0.06641 -1.65625,-0.140625 -0.92579,-0.175781 -1.32813,-0.726562 -1.20704,-1.660156 0.0469,-0.511719 0.24219,-0.953125 0.58985,-1.320313 0.41797,-0.234374 0.86719,-0.367187 1.34765,-0.394531 5.64063,0.046875 11.26954,0.019531 16.89063,-0.082031 z m 0,0"
         id="path3687" /></g><mask
       id="mask2"><g
         filter="url(#alpha)"
         id="g3692"><rect
           x="0"
           y="0"
           width="281"
           height="80"
           style="fill:#000000;fill-opacity:0.992157;stroke:none"
           id="rect3690" /></g></mask><clipPath
       id="clip3"><rect
         x="0"
         y="0"
         width="281"
         height="80"
         id="rect3695" /></clipPath><g
       id="surface11"
       clip-path="url(#clip3)"><path
         style="fill:#000000;fill-opacity:1;fill-rule:evenodd;stroke:none"
         d="m 130.11719,9.085938 c 0.9375,0 1.87109,0 2.80468,0 0.0703,1.40625 -0.15234,2.765624 -0.67187,4.078124 1.66406,0.03516 3.33203,0.0078 4.99609,-0.08203 0.98438,-0.0039 1.95703,0.09766 2.91797,0.308594 0.21094,0.0625 0.41406,0.136719 0.61719,0.222656 0.0352,0.04297 0.0625,0.08984 0.082,0.140625 0.16797,1.25 0.26172,2.507813 0.28125,3.769532 0.21875,8.796874 0.16016,17.59375 -0.16797,26.386718 -0.0234,0.621094 -0.0781,1.242188 -0.16797,1.855469 -0.0195,0.05078 -0.0469,0.09766 -0.0859,0.140625 -0.40625,0.08203 -0.81641,0.140625 -1.23438,0.167969 -1.77344,0.121093 -3.55078,0.195312 -5.32812,0.226562 -3.63282,0.03906 -7.26172,0.03906 -10.89063,0 -1.72656,-0.01172 -3.44922,-0.117187 -5.16015,-0.308593 -0.14063,-0.894532 -0.22657,-1.792969 -0.25391,-2.699219 -0.082,-2.777344 -0.12891,-5.550781 -0.14063,-8.328125 0.0859,-6.621094 0.11329,-13.238282 0.0859,-19.859375 -0.0195,-0.972657 0.4375,-1.5625 1.375,-1.773438 0.76953,-0.101562 1.54688,-0.148437 2.32813,-0.140625 1.07422,0.04297 2.14843,0.05469 3.22656,0.03125 0.46094,-1.328125 0.91016,-2.660156 1.34766,-3.996094 1.35156,-0.0625 2.69921,-0.109374 4.03906,-0.140624 z m -5.66797,9 c 3.36719,0.03125 6.73437,0.05078 10.10156,0.05859 -0.043,2.90625 -0.082,5.8125 -0.11328,8.71875 -3.34766,-0.01953 -6.69531,-0.05859 -10.04297,-0.113281 0.0391,-2.886719 0.0547,-5.773438 0.0547,-8.664062 z m 0,13.671874 c 3.36719,0.05859 6.73437,0.117188 10.10156,0.167969 -0.0547,3.132813 -0.11328,6.265625 -0.16797,9.394531 -3.32812,0 -6.66015,0 -9.98828,0 0.0156,-3.1875 0.0312,-6.375 0.0547,-9.5625 z m 0,0"
         id="path3698" /></g><mask
       id="mask3"><g
         filter="url(#alpha)"
         id="g3703"><rect
           x="0"
           y="0"
           width="281"
           height="80"
           style="fill:#000000;fill-opacity:0.984314;stroke:none"
           id="rect3701" /></g></mask><clipPath
       id="clip4"><rect
         x="0"
         y="0"
         width="281"
         height="80"
         id="rect3706" /></clipPath><g
       id="surface14"
       clip-path="url(#clip4)"><path
         style="fill:#000000;fill-opacity:1;fill-rule:evenodd;stroke:none"
         d="m 103.01172,9.140625 c 2.03906,-0.011719 4.07812,0.023437 6.11719,0.113281 0.082,0.332032 0.10937,0.671875 0.082,1.011719 -0.21094,0.664063 -0.36719,1.339844 -0.47656,2.027344 2.1914,0.01172 4.3789,0.03906 6.5664,0.08203 0.0977,0.01172 0.19141,0.04297 0.28125,0.08594 0.21094,1.058593 0.27735,2.128906 0.19531,3.207031 -0.0391,0.394531 -0.125,0.78125 -0.25,1.152343 -4.52734,0.08203 -9.05468,0.121094 -13.58203,0.113282 -1.22265,-0.05859 -1.64062,-0.667969 -1.26172,-1.828125 0.55469,-1.394531 1.07813,-2.800781 1.57032,-4.21875 0.23437,-0.589844 0.48828,-1.171875 0.75781,-1.746094 z m 0,0"
         id="path3709" /></g><mask
       id="mask4"><g
         filter="url(#alpha)"
         id="g3714"><rect
           x="0"
           y="0"
           width="281"
           height="80"
           style="fill:#000000;fill-opacity:0.988235;stroke:none"
           id="rect3712" /></g></mask><clipPath
       id="clip5"><rect
         x="0"
         y="0"
         width="281"
         height="80"
         id="rect3717" /></clipPath><g
       id="surface17"
       clip-path="url(#clip5)"><path
         style="fill:#000000;fill-opacity:1;fill-rule:evenodd;stroke:none"
         d="m 226.36719,10.4375 c 1.19531,-0.01172 2.39453,0 3.58984,0.02734 0.5,-0.01172 0.94922,0.128906 1.34766,0.421875 0.14453,0.179687 0.23047,0.386719 0.2539,0.617187 0.0703,0.488282 0.0859,0.976563 0.0547,1.464844 -0.17969,0.769531 -0.36719,1.539062 -0.5625,2.304688 -0.11328,0.04297 -0.23828,0.07031 -0.36328,0.08594 -1.71875,0.121094 -3.44141,0.195313 -5.16406,0.222656 -9.33594,0.207031 -18.67188,0.1875 -28.00391,-0.05469 -0.73828,-0.01172 -1.46875,-0.08594 -2.1875,-0.226563 -0.41797,-0.996093 -0.55859,-2.039062 -0.42187,-3.121093 0.0469,-0.5 0.21484,-0.949219 0.5039,-1.351563 0.12891,-0.105469 0.26953,-0.191406 0.42188,-0.25 10.1875,-0.03125 20.36328,-0.07813 30.53125,-0.140625 z m 0,0"
         id="path3720" /></g><mask
       id="mask5"><g
         filter="url(#alpha)"
         id="g3725"><rect
           x="0"
           y="0"
           width="281"
           height="80"
           style="fill:#000000;fill-opacity:0.996078;stroke:none"
           id="rect3723" /></g></mask><clipPath
       id="clip6"><rect
         x="0"
         y="0"
         width="281"
         height="80"
         id="rect3728" /></clipPath><g
       id="surface20"
       clip-path="url(#clip6)"><path
         style="fill:#000000;fill-opacity:1;fill-rule:evenodd;stroke:none"
         d="m -0.0273438,78.339844 c 0,-0.429688 0,-0.863282 0,-1.292969 C 0.488281,73.402344 0.984375,69.742188 1.460938,66.074219 1.835938,61.871094 2.25,57.671875 2.695312,53.472656 c 0.109376,-0.882812 0.238282,-1.765625 0.390626,-2.644531 0.097656,-0.5625 0.238281,-1.117187 0.421874,-1.65625 5.800782,-0.05078 11.597657,-0.08594 17.398438,-0.113281 1.144531,-0.21875 2.152344,-0.707032 3.03125,-1.464844 1.929688,-1.824219 3.828125,-3.691406 5.695312,-5.597656 0.375,-0.433594 0.582032,-0.941406 0.617188,-1.519532 0.285156,-3.039062 0.582031,-6.074218 0.898438,-9.113281 0.04297,-0.714843 0.316406,-1.324219 0.8125,-1.828125 0.289062,-0.1875 0.605468,-0.300781 0.953124,-0.335937 0.410157,-0.05078 0.824219,-0.07813 1.234376,-0.08594 1.273437,0.05078 2.546874,0.09766 3.816406,0.140625 6.792968,0.03906 13.582031,0.03906 20.375,0 0.808594,0.03516 1.519531,-0.207031 2.132812,-0.730468 5.414063,-5.445313 10.847656,-10.875 16.300782,-16.289063 0.453124,-0.675781 1.039062,-1.191406 1.769531,-1.546875 0.277343,-0.07031 0.558593,-0.117188 0.839843,-0.140625 1.871094,5.082031 3.789063,10.144531 5.753907,15.191406 0.269531,0.570313 0.308593,1.152344 0.113281,1.742188 -0.136719,0.21875 -0.289062,0.425781 -0.449219,0.621093 -5.324219,5.335938 -10.644531,10.671876 -15.96875,16.003907 -2.09375,2.027343 -4.191406,4.050781 -6.285156,6.078125 -0.640625,0.605468 -1.3125,1.167968 -2.019531,1.6875 -0.07422,0.03516 -0.148438,0.03516 -0.226563,0 -0.578125,-0.503906 -1.070312,-1.078125 -1.484375,-1.714844 -0.894531,-1.324219 -1.746094,-2.671875 -2.554687,-4.050781 -1.011719,-0.01953 -2.019531,-0.03906 -3.03125,-0.05859 -7.445313,0.04297 -14.890625,0.07031 -22.335938,0.08594 -0.28125,0.121094 -0.542969,0.269532 -0.785156,0.449219 -0.367187,0.285157 -0.722656,0.585938 -1.066406,0.898438 -1.226563,1.25 -2.472657,2.480469 -3.730469,3.6875 -0.441406,0.496093 -0.683594,1.074219 -0.730469,1.742187 -0.285156,2.4375 -0.566406,4.875 -0.84375,7.316406 -0.02734,0.710938 -0.03516,1.421876 -0.02734,2.136719 10.34375,0.02734 20.691406,0.03906 31.035156,0.02734 0.765625,-0.128906 1.457031,-0.429687 2.078125,-0.898437 0.351562,-0.261719 0.6875,-0.542969 1.007812,-0.84375 0.964844,-0.988282 1.910157,-1.992188 2.835938,-3.011719 C 66.683594,51.625 72.679688,45.597656 78.652344,39.550781 79.25,39.015625 79.941406,38.71875 80.730469,38.648438 c 0.179687,0.242187 0.339843,0.492187 0.476562,0.761718 0.441407,0.960938 0.855469,1.9375 1.234375,2.925782 1.171875,3.136718 2.3125,6.289062 3.425782,9.449218 0.3125,0.789063 0.511718,1.605469 0.585937,2.449219 -0.04297,0.664063 -0.296875,1.238281 -0.753906,1.714844 -0.558594,0.492187 -1.109375,0.988281 -1.65625,1.492187 -7.019531,7.070313 -14.070313,14.105469 -21.160157,21.097656 -1.074218,0.683594 -2.253906,0.976563 -3.535156,0.871094 -1.007812,-0.02734 -2.019531,-0.05859 -3.03125,-0.08594 -18.445312,-0.03516 -36.890625,-0.03516 -55.335937,0 C 0.390625,79.25 0.0546875,78.921875 -0.0273438,78.339844 Z m 0,0"
         id="path3731" /></g><mask
       id="mask6"><g
         filter="url(#alpha)"
         id="g3736"><rect
           x="0"
           y="0"
           width="281"
           height="80"
           style="fill:#000000;fill-opacity:0.968627;stroke:none"
           id="rect3734" /></g></mask><clipPath
       id="clip7"><rect
         x="0"
         y="0"
         width="281"
         height="80"
         id="rect3739" /></clipPath><g
       id="surface23"
       clip-path="url(#clip7)"><path
         style="fill:#000000;fill-opacity:1;fill-rule:evenodd;stroke:none"
         d="m 157.73047,18.539062 c 1.40234,0 2.80469,0 4.20703,0 0.043,0.710938 0.0781,1.421876 0.11328,2.136719 -2.44922,0.07813 -4.90234,0.132813 -7.35156,0.167969 -0.043,-0.75 -0.0625,-1.5 -0.0547,-2.25 1.03516,0.01953 2.06641,0 3.08594,-0.05469 z m 0,0"
         id="path3742" /></g><mask
       id="mask7"><g
         filter="url(#alpha)"
         id="g3747"><rect
           x="0"
           y="0"
           width="281"
           height="80"
           style="fill:#000000;fill-opacity:0.968627;stroke:none"
           id="rect3745" /></g></mask><clipPath
       id="clip8"><rect
         x="0"
         y="0"
         width="281"
         height="80"
         id="rect3750" /></clipPath><g
       id="surface26"
       clip-path="url(#clip8)"><path
         style="fill:#000000;fill-opacity:1;fill-rule:evenodd;stroke:none"
         d="m 178.71875,18.539062 c 0.22266,0 0.44922,0 0.67187,0 0.008,0.660157 0.008,1.316407 0,1.96875 -0.3125,0.183594 -0.64843,0.304688 -1.00781,0.363282 -1.83594,0.03906 -3.66797,0.03906 -5.5,0 -0.28515,-0.03906 -0.5664,-0.09766 -0.84375,-0.167969 -0.0742,-0.04297 -0.12109,-0.109375 -0.14062,-0.195313 -0.0117,-0.566406 -0.043,-1.128906 -0.082,-1.6875 2.30859,-0.08203 4.60937,-0.175781 6.90234,-0.28125 z m 0,0"
         id="path3753" /></g><mask
       id="mask8"><g
         filter="url(#alpha)"
         id="g3758"><rect
           x="0"
           y="0"
           width="281"
           height="80"
           style="fill:#000000;fill-opacity:0.988235;stroke:none"
           id="rect3756" /></g></mask><clipPath
       id="clip9"><rect
         x="0"
         y="0"
         width="281"
         height="80"
         id="rect3761" /></clipPath><g
       id="surface29"
       clip-path="url(#clip9)"><path
         style="fill:#000000;fill-opacity:1;fill-rule:evenodd;stroke:none"
         d="m 109.51953,20.28125 c 1.10547,-0.0078 2.21094,0.01953 3.3125,0.08594 0.73828,0.01953 1.44922,0.167968 2.13281,0.449218 0.31641,0.335938 0.4961,0.742188 0.53125,1.207032 0.10157,0.914062 -0.0391,1.789062 -0.41796,2.617187 -1.4336,0.164063 -2.86329,0.324219 -4.29297,0.480469 -0.0312,1.347656 -0.0391,2.699218 -0.0312,4.050781 1.125,0.03906 2.24609,0.08594 3.36718,0.140625 0.52344,-0.0078 0.98047,0.152344 1.375,0.476562 0.27344,0.546876 0.375,1.128907 0.3086,1.742188 0.0664,0.613281 -0.0352,1.195312 -0.3086,1.746094 -0.32421,0.402344 -0.74218,0.617187 -1.26171,0.648437 -0.95313,0.01563 -1.90625,0.03516 -2.86329,0.05469 -0.20703,0.02344 -0.41015,0.05078 -0.61718,0.08594 -0.0273,1.929688 -0.0469,3.859375 -0.0547,5.792969 0.42187,-0.01172 0.83203,-0.07813 1.23437,-0.195313 0.61329,-0.242187 1.23047,-0.46875 1.85157,-0.675781 0.46484,-0.07422 0.93359,-0.105469 1.40234,-0.08594 0.0352,1.296875 0.0937,2.589844 0.17188,3.882812 -0.0195,0.113282 -0.0391,0.226563 -0.0586,0.335938 -2.85937,1.378906 -5.85156,2.34375 -8.98047,2.898437 -0.4375,0.05469 -0.86718,0.01563 -1.28906,-0.113281 C 104.75,45.6875 104.57031,45.398438 104.5,45.035156 c -0.15234,-0.667968 -0.24609,-1.34375 -0.28125,-2.023437 -0.0469,-0.875 -0.0781,-1.746094 -0.0859,-2.617188 0.0469,-2.128906 0.10157,-4.257812 0.16797,-6.386719 -1.23437,-0.06641 -2.46875,-0.160156 -3.70312,-0.28125 -0.4375,-0.886718 -0.59766,-1.824218 -0.47657,-2.8125 0.0508,-0.488281 0.11719,-0.976562 0.19532,-1.460937 1.29297,-0.08984 2.58203,-0.183594 3.87109,-0.28125 0.0625,-1.371094 0.11719,-2.738281 0.17188,-4.109375 -0.80469,-0.03516 -1.60938,-0.0625 -2.41407,-0.08203 -0.4414,-0.05078 -0.73047,-0.285157 -0.87109,-0.703125 -0.0508,-0.1875 -0.0859,-0.375 -0.11328,-0.5625 -0.0352,-0.640625 -0.0352,-1.277344 0,-1.914063 0.0312,-0.855469 0.47265,-1.296875 1.32031,-1.324219 2.42188,0.0039 4.83594,-0.05859 7.23828,-0.195312 z m 0,0"
         id="path3764" /></g><mask
       id="mask9"><g
         filter="url(#alpha)"
         id="g3769"><rect
           x="0"
           y="0"
           width="281"
           height="80"
           style="fill:#000000;fill-opacity:0.968627;stroke:none"
           id="rect3767" /></g></mask><clipPath
       id="clip10"><rect
         x="0"
         y="0"
         width="281"
         height="80"
         id="rect3772" /></clipPath><g
       id="surface32"
       clip-path="url(#clip10)"><path
         style="fill:#000000;fill-opacity:1;fill-rule:evenodd;stroke:none"
         d="m 174.73437,22.136719 c 1.48047,0.01563 2.95704,0.07031 4.4336,0.167969 0.18359,0.53125 0.25,1.074218 0.19531,1.632812 -0.0586,0.265625 -0.21875,0.445312 -0.47656,0.535156 -0.1836,0.05859 -0.3711,0.09766 -0.5625,0.113282 -1.33985,0.01172 -2.67578,0.05859 -4.01172,0.140624 -0.47656,-0.03906 -0.95313,-0.08594 -1.42969,-0.140624 -0.72656,-0.148438 -1.17578,-0.578126 -1.34765,-1.292969 0.10937,-0.414063 0.37109,-0.675781 0.78515,-0.789063 0.80078,-0.207031 1.60547,-0.328125 2.41406,-0.367187 z m 0,0"
         id="path3775" /></g><mask
       id="mask10"><g
         filter="url(#alpha)"
         id="g3780"><rect
           x="0"
           y="0"
           width="281"
           height="80"
           style="fill:#000000;fill-opacity:0.964706;stroke:none"
           id="rect3778" /></g></mask><clipPath
       id="clip11"><rect
         x="0"
         y="0"
         width="281"
         height="80"
         id="rect3783" /></clipPath><g
       id="surface35"
       clip-path="url(#clip11)"><path
         style="fill:#000000;fill-opacity:1;fill-rule:evenodd;stroke:none"
         d="m 158.51562,22.195312 c 0.82422,-0.01562 1.64844,0.01172 2.46875,0.08203 0.72657,0.0078 1.1211,0.375 1.17969,1.097656 -0.0352,0.496094 -0.27734,0.839844 -0.73047,1.042969 -0.27343,0.09766 -0.55468,0.152343 -0.84375,0.167969 -1.19531,0.101562 -2.39062,0.101562 -3.58984,0 -0.68359,-0.03125 -1.35547,-0.125 -2.01953,-0.28125 -0.0703,-0.09766 -0.10938,-0.207032 -0.11328,-0.339844 -0.0391,-0.496094 -0.0781,-0.992188 -0.11328,-1.488282 1.26171,-0.09766 2.51562,-0.191406 3.76171,-0.28125 z m 0,0"
         id="path3786" /></g><mask
       id="mask11"><g
         filter="url(#alpha)"
         id="g3791"><rect
           x="0"
           y="0"
           width="281"
           height="80"
           style="fill:#000000;fill-opacity:0.988235;stroke:none"
           id="rect3789" /></g></mask><clipPath
       id="clip12"><rect
         x="0"
         y="0"
         width="281"
         height="80"
         id="rect3794" /></clipPath><g
       id="surface38"
       clip-path="url(#clip12)"><path
         style="fill:#000000;fill-opacity:1;fill-rule:evenodd;stroke:none"
         d="m 219.80078,24.78125 c 2.03906,0 4.07813,0.02734 6.11719,0.08594 1.16406,0.0078 2.3125,0.132812 3.44922,0.363281 0.17968,0.230469 0.28906,0.492187 0.33593,0.789062 0.10938,0.957031 0.0898,1.914063 -0.0547,2.871094 -0.14063,0.664063 -0.54297,1.066406 -1.20703,1.207031 -0.47266,0.0625 -0.94922,0.08984 -1.42969,0.08594 -1.28125,-0.04297 -2.5625,-0.08984 -3.84375,-0.140625 -8.34375,-0.03125 -16.6875,-0.03125 -25.03125,0 -0.69531,-0.01563 -1.09766,-0.363281 -1.20703,-1.042969 -0.0586,-0.578125 -0.0859,-1.160156 -0.082,-1.742188 -0.008,-0.527343 0.0195,-1.054687 0.082,-1.574218 0.20703,-0.4375 0.55078,-0.671875 1.03906,-0.703125 2.21484,-0.06641 4.42969,-0.09375 6.64844,-0.08594 5.07031,0.07031 10.13281,0.03516 15.18359,-0.113281 z m 0,0"
         id="path3797" /></g><mask
       id="mask12"><g
         filter="url(#alpha)"
         id="g3802"><rect
           x="0"
           y="0"
           width="281"
           height="80"
           style="fill:#000000;fill-opacity:0.988235;stroke:none"
           id="rect3800" /></g></mask><clipPath
       id="clip13"><rect
         x="0"
         y="0"
         width="281"
         height="80"
         id="rect3805" /></clipPath><g
       id="surface41"
       clip-path="url(#clip13)"><path
         style="fill:#000000;fill-opacity:1;fill-rule:evenodd;stroke:none"
         d="m 157.5625,26.074219 c 0.50391,-0.01563 1.00781,0 1.51562,0.05859 0.24219,0.496094 0.40235,1.023438 0.47657,1.574219 0.043,0.136719 0.10937,0.257813 0.19531,0.367188 1.05469,0.01953 2.11328,0.0078 3.17187,-0.02734 0.625,-0.0039 1.25391,0.02344 1.87891,0.08203 0.67969,0.175782 1.0625,0.617188 1.14844,1.324219 0.125,0.960937 -0.0352,1.871094 -0.47656,2.726563 -2.01954,0.109374 -4.03907,0.210937 -6.0586,0.308593 0.0937,3.359375 0.14063,6.714844 0.14063,10.070313 -0.0195,0.808594 -0.0742,1.617187 -0.16797,2.421875 -0.0273,0.417969 -0.14844,0.800781 -0.36719,1.152343 -0.39062,0.171876 -0.80469,0.265626 -1.23437,0.28125 -1.42188,0.05078 -2.84375,0.02344 -4.26563,-0.08594 -0.0352,-4.648437 -0.0742,-9.300781 -0.11328,-13.953125 -1.40234,0.01563 -2.80469,0.02734 -4.20703,0.03125 -0.83594,-0.02344 -1.65625,-0.128906 -2.46875,-0.3125 -0.20313,-0.851562 -0.26953,-1.710938 -0.19922,-2.585938 0.0937,-0.414062 0.25,-0.800781 0.48047,-1.152343 1.99219,-0.246094 3.98437,-0.5 5.97656,-0.761719 0.0742,-0.01172 0.12891,-0.05078 0.16797,-0.113281 0.14453,-0.417969 0.30078,-0.828125 0.47656,-1.234375 0.0508,-0.04297 0.10547,-0.07031 0.16797,-0.08594 1.26172,-0.0078 2.51563,-0.03906 3.76172,-0.08594 z m 0,0"
         id="path3808" /></g><mask
       id="mask13"><g
         filter="url(#alpha)"
         id="g3813"><rect
           x="0"
           y="0"
           width="281"
           height="80"
           style="fill:#000000;fill-opacity:0.988235;stroke:none"
           id="rect3811" /></g></mask><clipPath
       id="clip14"><rect
         x="0"
         y="0"
         width="281"
         height="80"
         id="rect3816" /></clipPath><g
       id="surface44"
       clip-path="url(#clip14)"><path
         style="fill:#000000;fill-opacity:1;fill-rule:evenodd;stroke:none"
         d="m 177.70703,26.074219 c 0.65625,0 1.3125,0 1.96484,0 0.20704,0.671875 0.4336,1.339843 0.67579,2 1.77734,0.01953 3.55468,0.0039 5.33203,-0.05859 0.65234,0.02344 1.11328,0.332031 1.37109,0.929687 0.29688,0.953126 0.25781,1.890626 -0.10937,2.8125 -0.23047,0.363282 -0.5586,0.597657 -0.98438,0.703126 -0.41406,0.08203 -0.83594,0.128906 -1.26172,0.140624 -1.55859,-0.132812 -3.12109,-0.171874 -4.6875,-0.113281 0.0859,3.582031 0.11719,7.164063 0.0859,10.746094 -0.0195,0.894531 -0.13281,1.777344 -0.33594,2.644531 -0.10937,0.132813 -0.25,0.21875 -0.42187,0.253906 -1.23828,0.277344 -2.49219,0.390626 -3.76172,0.335938 -0.44531,-0.04297 -0.875,-0.144531 -1.28906,-0.308594 -0.22657,-0.5 -0.36719,-1.023437 -0.42188,-1.574218 -0.082,-0.796876 -0.12891,-1.59375 -0.14062,-2.390626 0.10546,-2.523437 0.21484,-5.046874 0.33984,-7.566406 -0.0273,-0.714844 -0.0742,-1.429687 -0.14063,-2.140625 -0.53906,-0.105469 -1.08984,-0.160156 -1.65625,-0.167969 -0.91796,0.03906 -1.83203,0.07813 -2.75,0.113282 -0.4375,-0.0039 -0.86718,-0.05078 -1.29296,-0.140625 -0.6875,-0.332031 -0.96875,-0.882813 -0.83985,-1.660157 0.0117,-0.722656 0.10547,-1.4375 0.28125,-2.136718 0.125,-0.04687 0.25781,-0.07422 0.39063,-0.08594 1.91015,-0.08594 3.8164,-0.167968 5.72656,-0.253906 0.14062,-0.65625 0.28906,-1.3125 0.44922,-1.96875 1.16797,-0.03125 2.32812,-0.07031 3.47656,-0.113281 z m 0,0"
         id="path3819" /></g><mask
       id="mask14"><g
         filter="url(#alpha)"
         id="g3824"><rect
           x="0"
           y="0"
           width="281"
           height="80"
           style="fill:#000000;fill-opacity:0.980392;stroke:none"
           id="rect3822" /></g></mask><clipPath
       id="clip15"><rect
         x="0"
         y="0"
         width="281"
         height="80"
         id="rect3827" /></clipPath><g
       id="surface47"
       clip-path="url(#clip15)"><path
         style="fill:#000000;fill-opacity:1;fill-rule:evenodd;stroke:none"
         d="m 151.89453,33.671875 c 0.14844,0 0.29688,0 0.44531,0 -0.20703,3.539063 -0.76172,7.027344 -1.65234,10.464844 -0.16406,0.558593 -0.36719,1.101562 -0.61719,1.628906 -1.3164,0.05078 -2.63672,0.08594 -3.95703,0.113281 0.14063,-1.722656 0.39453,-3.429687 0.75781,-5.121094 0.44532,-2.28125 0.95313,-4.550781 1.51563,-6.804687 1.17187,-0.09766 2.34375,-0.191406 3.50781,-0.28125 z m 0,0"
         id="path3830" /></g><mask
       id="mask15"><g
         filter="url(#alpha)"
         id="g3835"><rect
           x="0"
           y="0"
           width="281"
           height="80"
           style="fill:#000000;fill-opacity:0.980392;stroke:none"
           id="rect3833" /></g></mask><clipPath
       id="clip16"><rect
         x="0"
         y="0"
         width="281"
         height="80"
         id="rect3838" /></clipPath><g
       id="surface50"
       clip-path="url(#clip16)"><path
         style="fill:#000000;fill-opacity:1;fill-rule:evenodd;stroke:none"
         d="m 172.71484,33.671875 c 0.0547,0 0.10938,0 0.16797,0 -0.10156,1.949219 -0.35547,3.878906 -0.75781,5.792969 -0.27344,1.375 -0.57422,2.746094 -0.89844,4.109375 -0.17969,0.726562 -0.40234,1.4375 -0.67187,2.136719 -1.3711,0.09375 -2.7461,0.128906 -4.125,0.113281 0.22656,-1.917969 0.57031,-3.808594 1.03515,-5.683594 0.45703,-2.066406 0.98828,-4.109375 1.60157,-6.132813 1.22265,-0.125 2.4375,-0.238281 3.64843,-0.335937 z m 0,0"
         id="path3841" /></g><mask
       id="mask16"><g
         filter="url(#alpha)"
         id="g3846"><rect
           x="0"
           y="0"
           width="281"
           height="80"
           style="fill:#000000;fill-opacity:0.980392;stroke:none"
           id="rect3844" /></g></mask><clipPath
       id="clip17"><rect
         x="0"
         y="0"
         width="281"
         height="80"
         id="rect3849" /></clipPath><g
       id="surface53"
       clip-path="url(#clip17)"><path
         style="fill:#000000;fill-opacity:1;fill-rule:evenodd;stroke:none"
         d="m 161.71484,33.785156 c 0.83985,-0.01172 1.6836,0 2.52344,0.02734 0.76172,2.792969 1.29297,5.636719 1.60156,8.523438 0.0352,0.375 0.0352,0.75 0,1.125 -1.00781,0.199218 -2.02734,0.28125 -3.05859,0.253906 -0.48438,-0.07031 -0.79297,-0.34375 -0.92578,-0.816406 -0.41016,-1.996094 -0.76563,-4.003907 -1.06641,-6.019532 -0.14453,-1.011718 -0.1914,-2.023437 -0.14062,-3.039062 0.36328,0.01953 0.72265,0 1.0664,-0.05469 z m 0,0"
         id="path3852" /></g><mask
       id="mask17"><g
         filter="url(#alpha)"
         id="g3857"><rect
           x="0"
           y="0"
           width="281"
           height="80"
           style="fill:#000000;fill-opacity:0.980392;stroke:none"
           id="rect3855" /></g></mask><clipPath
       id="clip18"><rect
         x="0"
         y="0"
         width="281"
         height="80"
         id="rect3860" /></clipPath><g
       id="surface56"
       clip-path="url(#clip18)"><path
         style="fill:#000000;fill-opacity:1;fill-rule:evenodd;stroke:none"
         d="m 181.58203,33.785156 c 1.21094,-0.01953 2.41797,0 3.61719,0.05469 0.88672,3.371094 1.57812,6.785156 2.07812,10.238281 0.0742,0.5625 0.1211,1.125 0.14063,1.6875 -1.34766,0.07031 -2.69141,0.128906 -4.04297,0.167969 -0.88281,-3.078125 -1.52734,-6.207032 -1.93359,-9.394532 -0.125,-0.894531 -0.21094,-1.796874 -0.25391,-2.699218 0.14453,0.01563 0.27344,-0.0039 0.39453,-0.05469 z m 0,0"
         id="path3863" /></g><mask
       id="mask18"><g
         filter="url(#alpha)"
         id="g3868"><rect
           x="0"
           y="0"
           width="281"
           height="80"
           style="fill:#000000;fill-opacity:0.984314;stroke:none"
           id="rect3866" /></g></mask><clipPath
       id="clip19"><rect
         x="0"
         y="0"
         width="281"
         height="80"
         id="rect3871" /></clipPath><g
       id="surface59"
       clip-path="url(#clip19)"><path
         style="fill:#000000;fill-opacity:1;fill-rule:evenodd;stroke:none"
         d="m 250.27344,39.464844 c 0.67578,-0.0078 1.34765,0.01172 2.01953,0.05859 0.14844,1.117187 0.19531,2.242187 0.14062,3.375 -0.0742,0.585937 -0.38281,0.992187 -0.92578,1.207031 -0.23828,0.08594 -0.48047,0.140625 -0.73047,0.171875 -2.55468,0.226562 -5.09765,0.546875 -7.63281,0.953125 -1.43359,0.214843 -2.87109,0.308593 -4.32031,0.28125 -0.14453,-0.0039 -0.26563,-0.05078 -0.36328,-0.140625 -0.0469,-1.171875 -0.0937,-2.34375 -0.14063,-3.515625 0,-0.230469 0.0195,-0.453125 0.0547,-0.675781 3.93359,-0.847657 7.90234,-1.417969 11.89844,-1.714844 z m 0,0"
         id="path3874" /></g><mask
       id="mask19"><g
         filter="url(#alpha)"
         id="g3879"><rect
           x="0"
           y="0"
           width="281"
           height="80"
           style="fill:#000000;fill-opacity:0.988235;stroke:none"
           id="rect3877" /></g></mask><clipPath
       id="clip20"><rect
         x="0"
         y="0"
         width="281"
         height="80"
         id="rect3882" /></clipPath><g
       id="surface62"
       clip-path="url(#clip20)"><path
         style="fill:#000000;fill-opacity:1;fill-rule:evenodd;stroke:none"
         d="m 201.33594,40.757812 c 6.80859,-0.0078 13.61718,0 20.42968,0.03125 3.6875,0.0078 7.3711,0.101563 11.05469,0.28125 0.14453,0.0078 0.27735,0.05469 0.39063,0.140626 0.14843,0.203124 0.2539,0.425781 0.30859,0.671874 0.25391,1.128907 0.25391,2.253907 0,3.378907 -0.15625,0.121093 -0.31641,0.242187 -0.47656,0.363281 -0.5,0.08984 -1.00391,0.144531 -1.51563,0.167969 -3.4375,0.164062 -6.8789,0.257812 -10.32422,0.28125 -5.59375,0.03906 -11.1875,0.03906 -16.78125,0 -2.46875,-0.02734 -4.9375,-0.08203 -7.40625,-0.167969 -1.14453,-0.03516 -2.28515,-0.113281 -3.42578,-0.222656 C 193.38281,45.671875 193.1875,45.625 193,45.542969 c -0.14453,-0.457031 -0.23828,-0.929688 -0.27734,-1.40625 -0.0391,-0.621094 -0.0391,-1.238281 0,-1.859375 0.0273,-0.425782 0.16796,-0.8125 0.41796,-1.152344 0.0898,-0.04687 0.1836,-0.08594 0.28125,-0.113281 0.59766,-0.05469 1.19532,-0.09375 1.79688,-0.113281 2.04687,-0.04297 4.08594,-0.08984 6.11719,-0.140626 z m 0,0"
         id="path3885" /></g><mask
       id="mask20"><g
         filter="url(#alpha)"
         id="g3890"><rect
           x="0"
           y="0"
           width="281"
           height="80"
           style="fill:#000000;fill-opacity:0.988235;stroke:none"
           id="rect3888" /></g></mask><clipPath
       id="clip21"><rect
         x="0"
         y="0"
         width="281"
         height="80"
         id="rect3893" /></clipPath><g
       id="surface65"
       clip-path="url(#clip21)"><path
         style="fill:#000000;fill-opacity:1;fill-rule:evenodd;stroke:none"
         d="m 117.9375,52.800781 c 1.74219,-0.01172 3.48047,0 5.22266,0.02734 1.96093,0.04687 3.86718,0.382813 5.72265,1.011719 2.89453,1.164062 4.17578,3.308594 3.84375,6.441406 -0.0547,1.414062 -0.58984,2.605469 -1.59765,3.574219 -0.82422,0.578125 -1.64844,1.160156 -2.46875,1.742187 0.77343,0.511719 1.54296,1.035156 2.30078,1.574219 1.34765,1.179687 2.02343,2.671875 2.01953,4.472656 -0.0312,3.464844 -1.65625,5.796875 -4.88281,7.003907 -0.55078,0.195312 -1.10938,0.347656 -1.6836,0.453124 -1.49218,0.148438 -2.98828,0.242188 -4.49218,0.28125 -5.25391,0.15625 -10.51172,0.175782 -15.76954,0.05469 -1.10546,-0.01953 -2.21093,-0.09766 -3.30859,-0.226562 -0.043,-0.09766 -0.0703,-0.199219 -0.0859,-0.308594 -0.043,-8.148438 0.23828,-16.285156 0.84375,-24.414063 -0.0742,-0.808593 0.27344,-1.324219 1.03516,-1.546875 3.27344,0.02344 6.54687,0.02344 9.82422,0 1.16797,-0.03125 2.32812,-0.07813 3.47656,-0.140625 z m -4.03906,5.003907 c 2.76953,0.05469 5.53515,0.101562 8.30469,0.140624 2.39453,0.132813 3.30078,1.359376 2.72265,3.6875 -0.28906,0.8125 -0.83984,1.367188 -1.65625,1.660157 -0.52734,0.175781 -1.07031,0.289062 -1.625,0.335937 -2.42187,0.06641 -4.84765,0.113282 -7.26953,0.140625 -1.22656,-0.03125 -2.44922,-0.06641 -3.67578,-0.113281 0.0234,-1.820312 0.0703,-3.636719 0.14062,-5.457031 0.24219,-0.09375 0.4961,-0.160157 0.75782,-0.195313 0.77343,-0.09375 1.53906,-0.160156 2.30078,-0.199218 z m 4.21094,10.523437 c 1.34765,-0.02734 2.69531,0.01953 4.03906,0.140625 0.73047,0.07422 1.42578,0.28125 2.07812,0.617188 0.66407,0.6875 1,1.511718 1.00782,2.476562 0.0117,0.878906 -0.32422,1.589844 -1.00782,2.136719 -0.96484,0.578125 -2.01562,0.859375 -3.14453,0.84375 -3.59375,0.136719 -7.1875,0.109375 -10.77344,-0.08594 -0.0117,-1.460937 0,-2.925781 0.0273,-4.386719 0.004,-0.535156 0.16015,-1.011718 0.47656,-1.433593 0.17578,-0.105469 0.35938,-0.183594 0.55859,-0.226563 1.125,-0.0078 2.2461,0 3.3711,0.02734 1.1289,0.0039 2.2539,-0.03516 3.36719,-0.109375 z m 0,0"
         id="path3896" /></g><mask
       id="mask21"><g
         filter="url(#alpha)"
         id="g3901"><rect
           x="0"
           y="0"
           width="281"
           height="80"
           style="fill:#000000;fill-opacity:0.980392;stroke:none"
           id="rect3899" /></g></mask><clipPath
       id="clip22"><rect
         x="0"
         y="0"
         width="281"
         height="80"
         id="rect3904" /></clipPath><g
       id="surface68"
       clip-path="url(#clip22)"><path
         style="fill:#000000;fill-opacity:1;fill-rule:evenodd;stroke:none"
         d="m 182.70312,52.800781 c 1.76172,0.03906 3.51954,0.132813 5.27735,0.28125 -0.0352,1.460938 -0.0547,2.921875 -0.0586,4.386719 -2.375,0.03906 -4.75,0.07422 -7.125,0.113281 -0.2539,-1 -0.35546,-2.011719 -0.30859,-3.039062 0.0625,-0.644531 0.37109,-1.121094 0.92578,-1.433594 0.42578,-0.160156 0.85547,-0.261719 1.28906,-0.308594 z m 0,0"
         id="path3907" /></g><mask
       id="mask22"><g
         filter="url(#alpha)"
         id="g3912"><rect
           x="0"
           y="0"
           width="281"
           height="80"
           style="fill:#000000;fill-opacity:0.996078;stroke:none"
           id="rect3910" /></g></mask><clipPath
       id="clip23"><rect
         x="0"
         y="0"
         width="281"
         height="80"
         id="rect3915" /></clipPath><g
       id="surface71"
       clip-path="url(#clip23)"><path
         style="fill:#f52323;fill-opacity:1;fill-rule:evenodd;stroke:none"
         d="m 280.97266,65.625 c 0,0.46875 0,0.9375 0,1.40625 -0.51172,5.925781 -3.61719,9.742188 -9.31641,11.449219 -1.65234,0.464843 -3.33594,0.746093 -5.05078,0.84375 -4.6211,0.152343 -9.24219,0.191406 -13.86328,0.113281 -0.73047,-0.03516 -1.46094,-0.08984 -2.1875,-0.167969 -0.0781,-0.04297 -0.1211,-0.109375 -0.14063,-0.199219 -0.10937,-3.019531 -0.0898,-6.039062 0.0547,-9.054687 0.24609,-5.308594 0.45312,-10.613281 0.61719,-15.921875 0.004,-0.449219 0.21875,-0.738281 0.64843,-0.871094 0.66016,-0.164062 1.33594,-0.257812 2.01954,-0.28125 1.11328,-0.04687 2.22656,-0.07422 3.33984,-0.08594 3.63672,0.05469 7.27734,0.140625 10.91406,0.253906 7.95703,0.40625 12.27735,4.578125 12.96485,12.515625 z m -18.80079,-7.707031 c 1.32813,-0.0039 2.65625,0.04297 3.98438,0.140625 1.53516,0.08984 2.97656,0.503906 4.32031,1.238281 1.10547,0.722656 1.88281,1.710937 2.32813,2.953125 0.48437,1.597656 0.65234,3.230469 0.50781,4.894531 -0.34766,4.191407 -2.60156,6.582031 -6.76563,7.171875 -1.91796,0.242188 -3.84375,0.316406 -5.77734,0.226563 -0.91797,-0.04297 -1.83594,-0.08984 -2.75,-0.140625 -0.17578,-3.582032 -0.12891,-7.164063 0.14063,-10.746094 0.125,-1.878906 0.28515,-3.753906 0.47656,-5.625 1.1875,-0.01953 2.36719,-0.05469 3.53515,-0.113281 z m 0,0"
         id="path3918" /></g><mask
       id="mask23"><g
         filter="url(#alpha)"
         id="g3923"><rect
           x="0"
           y="0"
           width="281"
           height="80"
           style="fill:#000000;fill-opacity:0.988235;stroke:none"
           id="rect3921" /></g></mask><clipPath
       id="clip24"><rect
         x="0"
         y="0"
         width="281"
         height="80"
         id="rect3926" /></clipPath><g
       id="surface74"
       clip-path="url(#clip24)"><path
         style="fill:#000000;fill-opacity:1;fill-rule:evenodd;stroke:none"
         d="m 171.3125,52.910156 c 1.29297,0.01563 2.58203,0.07813 3.87109,0.199219 0.0391,0.05859 0.0664,0.125 0.082,0.195313 0.13672,1.835937 0.17579,3.671874 0.11329,5.515624 -0.27735,5.136719 -0.57813,10.277344 -0.89844,15.414063 -0.0586,1.726563 -0.0273,3.453125 0.0859,5.175781 -1.42188,0.0078 -2.84375,0.04297 -4.26563,0.113282 -0.96484,0.04687 -1.90234,-0.09375 -2.80469,-0.421876 -0.15234,-0.25 -0.23437,-0.523437 -0.2539,-0.816406 -0.0508,-0.542968 -0.0781,-1.085937 -0.0859,-1.632812 0.29687,-5.585938 0.49219,-11.171875 0.58984,-16.765625 0.0469,-2.085938 0.17578,-4.167969 0.39453,-6.242188 0.0156,-0.09375 0.043,-0.175781 0.082,-0.253906 1.01953,-0.292969 2.04687,-0.453125 3.08984,-0.480469 z m 0,0"
         id="path3929" /></g><mask
       id="mask24"><g
         filter="url(#alpha)"
         id="g3934"><rect
           x="0"
           y="0"
           width="281"
           height="80"
           style="fill:#000000;fill-opacity:0.996078;stroke:none"
           id="rect3932" /></g></mask><clipPath
       id="clip25"><rect
         x="0"
         y="0"
         width="281"
         height="80"
         id="rect3937" /></clipPath><g
       id="surface77"
       clip-path="url(#clip25)"><path
         style="fill:#f52323;fill-opacity:1;fill-rule:evenodd;stroke:none"
         d="m 229.62109,52.96875 c 4.11719,-0.01953 8.23047,0.01172 12.34766,0.08203 1.38672,0.02344 2.77344,0.105469 4.15234,0.253907 0.13672,1.105468 0.16407,2.210937 0.082,3.320312 -0.125,0.804688 -0.52734,1.429688 -1.20312,1.882812 -1.74219,1.296876 -3.48047,2.589844 -5.22266,3.882813 -0.49609,0.398437 -0.92968,0.855469 -1.28906,1.378906 1.25781,0.457031 2.53125,0.878907 3.81641,1.265625 1.74609,0.625 2.93359,1.816406 3.5625,3.574219 0.98047,3.226563 0.26172,6.011719 -2.16016,8.351563 -1.19141,0.972656 -2.53906,1.648437 -4.03906,2.027343 -3.23047,0.800781 -6.50391,1.0625 -9.82422,0.785157 -2.63281,-0.152344 -5.17578,-0.707032 -7.63281,-1.65625 -0.0391,-1.519532 -0.0391,-3.039063 0,-4.558594 0.54687,-0.0039 1.08984,0.04297 1.6289,0.140625 1.9961,0.398437 3.9961,0.757812 6.00391,1.070312 1.64453,0.253907 3.28906,0.289063 4.94141,0.109375 1.32421,-0.132812 2.45703,-0.667968 3.39453,-1.601562 0.87109,-1.066406 0.98437,-2.210938 0.33593,-3.433594 -0.73828,-0.964844 -1.72265,-1.519531 -2.94531,-1.65625 -1.45703,-0.144531 -2.91797,-0.257812 -4.3789,-0.339844 -0.55469,-0.06641 -1.09766,-0.191406 -1.625,-0.367187 -0.52344,-1.171875 -0.4375,-2.296875 0.25,-3.375 0.32812,-0.402344 0.6914,-0.769531 1.09375,-1.09375 1.69921,-1.175781 3.36328,-2.394531 4.99609,-3.660157 0.3125,-0.269531 0.60156,-0.5625 0.87109,-0.871093 0.10938,-0.152344 0.125,-0.300781 0.0547,-0.449219 -0.17969,-0.109375 -0.375,-0.175781 -0.58984,-0.195312 -0.53907,-0.05469 -1.08203,-0.08203 -1.625,-0.08594 -2.58203,0.03516 -5.16407,0.07031 -7.7461,0.113281 -1.3125,-0.02344 -2.62109,-0.09766 -3.92968,-0.226562 0.0469,-1.460938 0.0625,-2.925781 0.0586,-4.386719 2.21094,-0.148438 4.41797,-0.242188 6.62109,-0.28125 z m 0,0"
         id="path3940" /></g><mask
       id="mask25"><g
         filter="url(#alpha)"
         id="g3945"><rect
           x="0"
           y="0"
           width="281"
           height="80"
           style="fill:#000000;fill-opacity:0.988235;stroke:none"
           id="rect3943" /></g></mask><clipPath
       id="clip26"><rect
         x="0"
         y="0"
         width="281"
         height="80"
         id="rect3948" /></clipPath><g
       id="surface80"
       clip-path="url(#clip26)"><path
         style="fill:#000000;fill-opacity:1;fill-rule:evenodd;stroke:none"
         d="m 150.82812,79.972656 c -0.84375,0 -1.68359,0 -2.52734,0 -2.6875,-0.164062 -5.21484,-0.90625 -7.57812,-2.222656 -4.01563,-2.589844 -5.35157,-6.199219 -4.01172,-10.832031 0.66015,-2.007813 1.85156,-3.628907 3.5664,-4.863281 2.03125,-1.394532 4.27735,-2.257813 6.73438,-2.589844 3.58984,-0.542969 7.0664,-0.128906 10.4375,1.238281 2.08203,0.867187 3.73828,2.246094 4.96484,4.136719 1.0586,1.972656 1.33985,4.054687 0.84375,6.242187 -0.6914,3.054688 -2.40234,5.332031 -5.13672,6.835938 -2.28906,1.210937 -4.72265,1.894531 -7.29297,2.054687 z m -1.46093,-15.976562 c 1.78515,-0.125 3.41406,0.316406 4.88281,1.320312 0.93359,0.769532 1.52344,1.753906 1.76562,2.953125 0.51172,2.570313 -0.33984,4.550781 -2.55078,5.9375 -1.87109,1.070313 -3.85547,1.351563 -5.94922,0.84375 -2.52734,-0.828125 -3.83593,-2.570312 -3.92968,-5.234375 0.11718,-2.519531 1.33203,-4.285156 3.64843,-5.289062 0.69532,-0.265625 1.40625,-0.445313 2.13282,-0.53125 z m 0,0"
         id="path3951" /></g><mask
       id="mask26"><g
         filter="url(#alpha)"
         id="g3956"><rect
           x="0"
           y="0"
           width="281"
           height="80"
           style="fill:#000000;fill-opacity:0.988235;stroke:none"
           id="rect3954" /></g></mask><clipPath
       id="clip27"><rect
         x="0"
         y="0"
         width="281"
         height="80"
         id="rect3959" /></clipPath><g
       id="surface83"
       clip-path="url(#clip27)"><path
         style="fill:#000000;fill-opacity:1;fill-rule:evenodd;stroke:none"
         d="m 207.84766,59.550781 c 1.8789,-0.128906 3.73046,0.05078 5.55468,0.535157 1.59375,0.414062 2.83594,1.304687 3.73047,2.671874 0.46094,0.859376 0.74219,1.78125 0.84375,2.753907 0.0898,0.777343 0.13672,1.554687 0.14063,2.335937 -0.043,2.203125 -0.0703,4.40625 -0.0859,6.609375 -0.0156,1.273438 -0.16406,2.53125 -0.44922,3.769531 -0.11719,0.683594 -0.51953,1.046876 -1.20703,1.097657 -1.92578,0.191406 -3.85156,0.179687 -5.78125,-0.02734 -0.19141,-0.925781 -0.28516,-1.863281 -0.27734,-2.8125 0.1289,-2.28125 0.27734,-4.558594 0.44921,-6.835937 0.0273,-1.058594 -0.14843,-2.082032 -0.53515,-3.066407 -0.52344,-1.03125 -1.35547,-1.65625 -2.4961,-1.882812 -1.65625,-0.300781 -3.28515,-0.191407 -4.88281,0.335937 -1.63285,0.71484 -2.55863,1.96484 -2.77738,3.742184 -0.35938,3.480468 -0.48047,6.96875 -0.36719,10.464844 -1.34766,0.183593 -2.70703,0.296874 -4.06641,0.335937 -0.94531,0.01953 -1.87109,-0.101563 -2.78125,-0.367187 -0.125,-0.03516 -0.22656,-0.09766 -0.30859,-0.195313 -0.10547,-0.367187 -0.16016,-0.742187 -0.16797,-1.125 -0.0391,-5.921875 0.21485,-11.828125 0.75781,-17.722656 2.37891,-0.06641 4.75391,-0.140625 7.12891,-0.222657 -0.0273,0.710938 -0.043,1.421876 -0.0547,2.136719 0.39063,-0.113281 0.76563,-0.273437 1.1211,-0.480469 1.41406,-0.941406 2.96875,-1.539062 4.65625,-1.796874 0.625,-0.09766 1.24218,-0.179688 1.85547,-0.253907 z m 0,0"
         id="path3962" /></g><mask
       id="mask27"><g
         filter="url(#alpha)"
         id="g3967"><rect
           x="0"
           y="0"
           width="281"
           height="80"
           style="fill:#000000;fill-opacity:0.988235;stroke:none"
           id="rect3965" /></g></mask><clipPath
       id="clip28"><rect
         x="0"
         y="0"
         width="281"
         height="80"
         id="rect3970" /></clipPath><g
       id="surface86"
       clip-path="url(#clip28)"><path
         style="fill:#000000;fill-opacity:1;fill-rule:evenodd;stroke:none"
         d="m 183.15234,59.886719 c 1.16016,-0.01563 2.32032,0.01172 3.48047,0.08594 0.35547,0.03906 0.71094,0.09375 1.06641,0.167969 0.0352,0.04297 0.0625,0.08984 0.082,0.140625 0.082,1.179688 0.10156,2.363281 0.0586,3.542969 -0.15234,3.078125 -0.33203,6.152343 -0.53515,9.226562 0.11718,1.484375 0.125,2.964844 0.0273,4.445313 -0.0352,0.542968 -0.18359,1.046875 -0.44922,1.519531 -0.26953,0.257813 -0.59765,0.402344 -0.98047,0.421875 -1.94922,0.140625 -3.89453,0.08203 -5.83593,-0.167969 -0.0352,-0.04297 -0.0625,-0.08984 -0.0859,-0.140625 -0.14063,-6.203125 0.082,-12.390625 0.67578,-18.566406 0,-0.160156 0.0469,-0.300781 0.14062,-0.421875 0.78907,-0.105469 1.57422,-0.191406 2.35547,-0.253906 z m 0,0"
         id="path3973" /></g></defs><sodipodi:namedview
     id="namedview3285"
     pagecolor="#ffffff"
     bordercolor="#000000"
     borderopacity="0.25"
     inkscape:showpageshadow="2"
     inkscape:pageopacity="0.0"
     inkscape:pagecheckerboard="0"
     inkscape:deskcolor="#d1d1d1"
     inkscape:document-units="mm"
     showgrid="false" /><rect
     x="0"
     y="0"
     width="512"
     height="512"
     style="fill:none"
     id="rect3240" /><path
     d="m 511.15,502.65 c 0,4.7 -3.81,8.5 -8.5,8.5 H 492.58 V 512 H 512 v -19.42 h -0.85 z"
     style="fill:#009789"
     id="path3276" /><path
     d="m 9.35,511.15 c -4.7,0 -8.5,-3.81 -8.5,-8.5 V 492.58 H 0 V 512 h 19.42 v -0.85 z"
     style="fill:#009789"
     id="path3278" /><path
     d="m 0.85,9.35 c 0,-4.7 3.8,-8.5 8.5,-8.5 H 19.42 V 0 H 0 v 19.42 h 0.85 z"
     style="fill:#009789"
     id="path3280" /><path
     d="m 502.65,0.85 c 4.7,0 8.5,3.81 8.5,8.5 V 19.42 H 512 V 0 h -19.42 v 0.85 z"
     style="fill:#009789"
     id="path3282" /><g
     id="surface1"
     transform="matrix(0.52093382,0,0,0.4771351,190.84487,450.3609)"><path
       style="fill:#f52323;fill-opacity:1;fill-rule:evenodd;stroke:none"
       d="m 65.800781,-0.0273438 c 0.730469,0 1.460938,0 2.191407,0 C 69,0.0234375 69.898438,0.371094 70.683594,1.011719 c 1.652344,1.769531 3.179687,3.632812 4.574218,5.597656 0.128907,0.25 0.25,0.503906 0.367188,0.761719 -0.15625,0.25 -0.335938,0.484375 -0.535156,0.703125 -3.246094,3.421875 -6.585938,6.75 -10.015625,9.984375 -1.128907,1.054687 -2.289063,2.066406 -3.480469,3.039062 -0.07422,0.03516 -0.148438,0.03516 -0.226562,0 -0.503907,-0.425781 -0.925782,-0.921875 -1.261719,-1.492187 -0.207031,-0.503907 -0.410157,-1.011719 -0.617188,-1.519531 -0.269531,-0.382813 -0.636719,-0.636719 -1.09375,-0.757813 -0.332031,-0.08203 -0.667969,-0.136719 -1.011719,-0.167969 -9.296874,-0.02734 -18.59375,-0.04297 -27.890624,-0.05859 -0.5625,0.0078 -0.964844,0.257813 -1.207032,0.761719 -0.117187,0.328125 -0.191406,0.664063 -0.222656,1.011719 -0.09375,1.085938 -0.1875,2.175781 -0.28125,3.261719 -0.597656,5.441406 -1.214844,10.878906 -1.851562,16.316406 -0.105469,0.796875 -0.421876,1.492187 -0.957032,2.082031 -1.21875,1.113282 -2.410156,2.265625 -3.5625,3.460938 -0.558594,0.367187 -1.175781,0.554687 -1.851562,0.5625 -0.980469,0.03125 -1.964844,0.05859 -2.945313,0.08203 C 12.429688,44.578125 8.25,44.539062 4.070312,44.527344 c -0.09375,-1.5 -0.066406,-3 0.082032,-4.5 C 4.417969,38.074219 4.699219,36.125 4.996094,34.175781 6.246094,22.882812 7.546875,11.59375 8.894531,0.308594 27.265625,0.238281 45.636719,0.152344 64.007812,0.0546875 64.613281,0.046875 65.214844,0.0195312 65.800781,-0.0273438 Z m 0,0"
       id="path3978" /><use
       xlink:href="#surface5"
       mask="url(#mask0)"
       id="use3980" /><use
       xlink:href="#surface8"
       mask="url(#mask1)"
       id="use3982" /><use
       xlink:href="#surface11"
       mask="url(#mask2)"
       id="use3984" /><use
       xlink:href="#surface14"
       mask="url(#mask3)"
       id="use3986" /><use
       xlink:href="#surface17"
       mask="url(#mask4)"
       id="use3988" /><use
       xlink:href="#surface20"
       mask="url(#mask5)"
       id="use3990" /><use
       xlink:href="#surface23"
       mask="url(#mask6)"
       id="use3992" /><use
       xlink:href="#surface26"
       mask="url(#mask7)"
       id="use3994" /><use
       xlink:href="#surface29"
       mask="url(#mask8)"
       id="use3996" /><use
       xlink:href="#surface32"
       mask="url(#mask9)"
       id="use3998" /><use
       xlink:href="#surface35"
       mask="url(#mask10)"
       id="use4000" /><use
       xlink:href="#surface38"
       mask="url(#mask11)"
       id="use4002" /><use
       xlink:href="#surface41"
       mask="url(#mask12)"
       id="use4004" /><use
       xlink:href="#surface44"
       mask="url(#mask13)"
       id="use4006" /><use
       xlink:href="#surface47"
       mask="url(#mask14)"
       id="use4008" /><use
       xlink:href="#surface50"
       mask="url(#mask15)"
       id="use4010" /><use
       xlink:href="#surface53"
       mask="url(#mask16)"
       id="use4012" /><use
       xlink:href="#surface56"
       mask="url(#mask17)"
       id="use4014" /><use
       xlink:href="#surface59"
       mask="url(#mask18)"
       id="use4016" /><use
       xlink:href="#surface62"
       mask="url(#mask19)"
       id="use4018" /><use
       xlink:href="#surface65"
       mask="url(#mask20)"
       id="use4020" /><use
       xlink:href="#surface68"
       mask="url(#mask21)"
       id="use4022" /><use
       xlink:href="#surface71"
       mask="url(#mask22)"
       id="use4024" /><use
       xlink:href="#surface74"
       mask="url(#mask23)"
       id="use4026" /><use
       xlink:href="#surface77"
       mask="url(#mask24)"
       id="use4028" /><use
       xlink:href="#surface80"
       mask="url(#mask25)"
       id="use4030" /><use
       xlink:href="#surface83"
       mask="url(#mask26)"
       id="use4032" /><use
       xlink:href="#surface86"
       mask="url(#mask27)"
       id="use4034" /></g></svg>
