<svg width="480" height="480" xmlns="http://www.w3.org/2000/svg" version="1.1">
 <g id="Layer_1">
  <title>Layer 1</title>
  <g stroke="null" id="svg_1">
   <path stroke="null" id="svg_2" fill="rgb(2,2,1)" d="m273.057,81.96078c0.17543,-0.00645 0.14676,-0.00088 0.27719,0.09304c0.41101,0.89954 0.69608,1.88176 1.02613,2.8174l1.84817,5.25594c0.53697,1.54788 1.08799,3.09031 1.65306,4.62701c0.39583,1.05946 0.84846,2.11525 1.19313,3.19395c0.10402,0.32441 0.34073,0.98601 0.26145,1.31077c-0.10627,0.43746 -0.6303,1.04567 -0.91649,1.37979c-0.8299,0.96885 -1.73628,1.87785 -2.60779,2.80645l-4.83156,5.14692c-2.20746,2.3542 -14.67122,15.96639 -16.35465,16.76969c-1.12678,-0.42136 -3.46525,-4.95473 -4.12985,-6.08895c-6.01681,-0.02776 -12.03307,-0.01314 -18.04933,0.04391l-4.48126,0.0068c-0.76355,-0.00154 -1.57322,-0.06694 -2.33172,0.01284c-1.26173,0.13276 -3.18468,2.61604 -4.09499,3.57436c-0.59769,0.62946 -1.2741,1.20287 -1.80262,1.89928c-0.21591,0.28375 -0.35311,0.52405 -0.45262,0.87391c-0.41495,1.45626 -1.17064,9.28189 -1.01152,10.74383l22.08752,0.04498c1.64857,0.00414 8.07358,0.22906 9.28527,-0.13613c0.6005,-0.18111 1.16164,-0.55696 1.63226,-0.98488c1.95613,-1.77741 3.98141,-4.21831 5.83914,-6.20011l12.8433,-13.7079c1.03794,-1.09332 1.97187,-2.43439 3.15206,-3.35305c0.47062,-0.36631 1.02613,-0.52245 1.58278,-0.6748c0.39415,0.82816 0.79223,1.65737 1.13409,2.51116c1.01096,2.52573 1.85042,5.14034 2.72193,7.72259c0.52909,1.56682 1.15715,3.16401 1.56479,4.7687c0.11302,0.44687 0.19286,0.90131 0.19286,1.36558c0.00056,0.4332 -0.04273,0.85402 -0.26258,1.2288c-0.56901,0.96831 -1.59402,1.76379 -2.36377,2.57052c-1.10373,1.15653 -2.18328,2.34266 -3.27014,3.51694c-0.9671,1.04526 -1.9938,2.03192 -2.97326,3.06534l-8.10901,8.61005l-3.82398,4.0591c-0.93561,0.99258 -1.84761,2.09407 -2.94628,2.88896c-0.69159,0.50073 -1.59009,0.57353 -2.41437,0.61023c-1.61989,0.07162 -3.26227,0.01361 -4.88385,0.01125l-9.07611,-0.01302l-28.42236,-0.06629l-11.79888,-0.01717c-1.03884,0.00118 -3.37827,0.20005 -4.26794,0.00414c-0.29345,-0.06452 -0.55918,-0.19591 -0.72083,-0.47291c-0.28091,-0.48061 -0.22215,-1.17133 -0.1874,-1.71231c0.10925,-1.70165 0.40005,-3.39975 0.62845,-5.08897c0.33905,-2.4924 0.64486,-4.98954 0.91729,-7.49081c0.60073,-5.65954 0.69974,-11.40029 1.92829,-16.96607c4.22211,0.01953 8.44424,0.00071 12.66607,-0.05647c1.37401,-0.01137 4.14064,0.25972 5.36043,-0.15649c1.73515,-0.59206 3.33256,-2.42167 4.55661,-3.78346c0.88163,-0.98038 3.12902,-3.07102 3.64124,-4.07662c0.42732,-0.83786 0.38684,-2.20534 0.45262,-3.13316c0.08602,-1.20784 0.22997,-2.40876 0.32724,-3.61531c0.1057,-1.31645 0.14337,-2.67547 0.39021,-3.97138c0.08602,-0.45225 0.20917,-0.90386 0.42395,-1.30852c0.23166,-0.4371 0.47062,-0.67261 0.93505,-0.78903c1.61651,-0.40556 3.49617,-0.07233 5.14868,-0.05788l14.85902,0.03444c1.55973,0.00231 5.02385,0.22728 6.42109,-0.11026c0.42451,-0.10263 0.77143,-0.27812 1.10711,-0.57128c0.53246,-0.46569 0.99127,-1.07236 1.47202,-1.59801c0.86476,-0.93037 1.73741,-1.85276 2.61791,-2.76715l11.05417,-11.66556c0.77312,-0.81259 1.47989,-1.81227 2.33734,-2.51513c0.28563,-0.23385 0.70114,-0.31801 1.04525,-0.41958z"/>
   <path stroke="null" id="svg_3" fill="rgb(246,37,36)" d="m258.61687,70.86105c1.49957,-0.11751 3.3944,-0.25542 4.83437,0.24433c1.63845,0.56856 5.35222,5.71186 6.19,7.44145c-1.25442,1.78197 -2.89061,3.32665 -4.36319,4.90649c-2.33903,2.55342 -4.75734,5.02546 -7.25043,7.41221c-0.77874,0.73772 -1.53611,1.56451 -2.39582,2.19137c-1.54511,-1.26626 -1.38205,-2.77698 -2.38288,-3.67598c-0.52179,-0.469 -1.30502,-0.46391 -1.95893,-0.50831c-1.87348,-0.12714 -3.8071,-0.03078 -5.68621,-0.03114l-10.56949,0.00225c-2.18947,0.01438 -4.3795,0.00628 -6.56896,-0.02421c-1.41804,-0.02776 -2.89342,-0.16229 -4.30865,-0.05836c-0.47062,0.03457 -1.12791,0.22497 -1.34607,0.7231c-0.46162,1.05349 -0.41383,3.29824 -0.53359,4.52544c-0.42507,4.51124 -0.92437,9.01436 -1.49844,13.50731c-0.16418,1.35091 -0.11021,2.82272 -0.42395,4.1412c-0.16756,0.70398 -0.45206,1.24697 -0.90131,1.7941c-0.56564,0.68824 -1.26342,1.2594 -1.88921,1.88496c-0.65504,0.65421 -1.21506,1.55125 -2.02894,1.99114c-0.56817,0.30707 -1.1585,0.34968 -1.78188,0.39336c-4.971,0.00716 -9.96567,0.07582 -14.93358,-0.1066c-0.2885,-4.08088 0.64306,-7.96064 1.02962,-11.98908c1.16901,-11.50339 2.41853,-22.99755 3.74846,-34.48152l36.3642,-0.16529l12.4812,-0.06311c2.05171,-0.01147 4.12591,0.07023 6.17369,-0.05512l0,0.00001z"/>
   <path stroke="null" id="svg_4" fill="rgb(2,2,1)" d="m284.68974,168.25894c0.6483,-0.0367 2.01797,-0.08227 2.52682,0.38472c0.42732,1.12634 -3.02443,6.91728 -3.72445,8.34252c-0.32611,0.6635 -0.596,1.3122 -0.79055,2.03133c0.70171,-0.0071 1.39892,0.0148 2.10007,0.0438c0.1282,-0.43562 0.27495,-0.91505 0.5021,-1.30391c0.30981,-0.53032 0.73882,-0.9109 1.32863,-1.02987c0.99352,-0.20124 1.71997,0.36282 2.48972,0.92273c1.77002,-2.84575 2.70956,-6.10581 4.22093,-9.0954c1.5839,-0.00237 3.16725,-0.07991 4.75115,-0.09707c0.29069,1.89283 -0.44644,2.25387 -0.69608,3.86082c1.36856,-0.00237 2.73936,0.04735 4.10736,0.07754c-0.00281,-1.27728 -0.05229,-2.52614 0.2935,-3.76435c1.09979,-0.20065 3.13014,-0.64515 4.09217,0.04202c0.95248,0.68125 0.99858,2.48115 1.19482,3.56903c1.5288,0.25155 3.28588,-0.23912 4.74159,0.24977c0.21478,0.07221 0.37672,0.16336 0.47905,0.38413c0.4515,0.97245 0.25976,2.41249 -0.09559,3.38376c-1.61651,0.62917 -3.61593,0.35335 -5.31173,0.31132c0.01349,1.32818 0.00955,2.7327 -0.14676,4.05081c1.1594,0.05978 3.86165,-0.25747 4.65332,0.1894c0.35648,0.20124 0.59657,0.54157 0.70002,0.95115c0.17431,0.68717 0.16812,1.92302 -0.20804,2.51904c-0.68765,1.09083 -2.60048,0.66172 -3.67722,0.64988c-0.49423,-0.00533 -0.95866,0.05386 -1.44222,0.15744c0.07253,1.29148 -0.00337,2.61728 -0.02755,3.90995c1.77282,0.219 3.45625,-0.04321 5.22121,0.41668c0.06972,0.43503 0.14,0.87125 0.17543,1.31101c0.05623,0.70138 0.0849,1.57025 -0.39471,2.1284c-0.70283,0.81798 -2.32666,0.48949 -3.26227,0.48238c-0.56226,-0.00414 -1.12454,0.04558 -1.68455,0.09234c-0.0686,1.34119 -0.0551,2.68476 -0.05286,4.02773c0.87264,-0.00888 1.74527,-0.03551 2.61735,-0.0805c0.79786,0.00651 1.67049,-0.04735 2.41269,0.306c0.40989,0.19473 0.74725,0.51611 0.89176,0.97364c0.27326,0.86296 -0.14563,1.80937 -0.48242,2.58532c-2.02248,0.62029 -4.61733,0.49008 -6.72977,0.52795c-2.95302,0.05268 -5.90099,-0.02368 -8.85289,-0.08642c-1.63226,-0.03492 -3.41633,0.05919 -5.02105,-0.24681c-0.20298,-0.03847 -0.37503,-0.09056 -0.52066,-0.25451c-0.34186,-0.38176 -0.36997,-1.06538 -0.39977,-1.56374c-0.11245,-1.89934 0.11189,-4.05969 0.11302,-6.01171c0.00056,-1.74071 -0.08996,-3.47373 -0.10739,-5.21327c-0.00337,-2.55455 0.00506,-5.10909 0.02643,-7.66364c-0.5572,-0.11601 -1.55242,-0.4445 -2.07758,-0.18703c-0.29688,0.1456 -0.51391,0.47055 -0.70283,0.74399c-0.69608,1.00797 -1.25104,2.16094 -1.86785,3.22573c-0.71014,1.22519 -1.48945,2.41072 -2.12593,3.68207c-0.18049,0.36045 -0.31487,0.72919 -0.43857,1.11451c1.50688,-0.00414 3.10315,-0.11896 4.59878,0.0734c0.1968,0.88427 0.5111,2.0479 0.20354,2.93039c-0.16474,0.47291 -0.51785,0.78779 -0.9508,0.97956c-0.94911,0.42142 -6.84897,0.48593 -8.14556,0.37111c-0.4813,-0.04321 -0.9789,-0.11837 -1.42197,-0.33027c-0.31374,-0.14915 -0.63536,-0.38768 -0.75175,-0.74517c-0.53416,-1.64365 2.29461,-5.78739 3.10259,-7.22151c0.447,-0.79371 0.84002,-1.62471 1.21675,-2.45689c-0.91368,0.04854 -3.32525,0.29713 -4.04382,-0.19769c-0.29631,-0.2042 -0.39134,-0.57175 -0.44813,-0.92037c-0.10402,-0.63864 -0.07084,-1.43235 0.11021,-2.05145c0.47399,-1.62056 1.41691,-3.0677 2.12649,-4.57996c1.02726,-2.18876 1.9342,-4.76817 3.28588,-6.73913c0.75737,-0.15211 1.55129,-0.13672 2.31992,-0.16277l0,0.00002zm12.07636,12.43063l4.60216,0c-0.02643,-1.23525 0.08378,-2.92743 -0.07703,-4.10468c-0.15294,-0.07695 -0.25583,-0.05801 -0.42114,-0.04025c-1.54904,0.06156 -3.09978,0.07162 -4.64939,0.13199c0.0298,1.30569 0.018,2.6309 0.1237,3.93185c0.14057,0.11068 0.25077,0.07754 0.4217,0.08109l0.00001,0zm2.61004,12.66738c-1.05144,0.03729 -2.10344,0.06037 -3.15544,0.06866c0.03317,1.33527 0.0894,2.67292 0.10458,4.0082l1.99661,0c0.99971,0.00533 1.99942,-0.01243 2.99857,-0.05268l-0.04386,-4.05851c-0.63199,0.00829 -1.2696,-0.00178 -1.90046,0.03433zm1.3455,-8.44492c-1.46526,0.04439 -2.93166,0.05741 -4.39749,0.04025l-0.05735,4.10349l0.74051,0.00237c1.45121,-0.04202 2.90579,-0.09293 4.35813,-0.0953c-0.00225,-0.60431 0.10233,-3.75369 -0.14563,-4.0443c-0.16812,-0.00769 -0.33005,-0.0148 -0.49817,-0.00651z"/>
   <path stroke="null" id="svg_5" fill="rgb(2,2,1)" d="m185.91747,168.41993c0.36615,-0.01184 0.74933,-0.04617 1.11424,-0.0148c0.0939,0.00829 0.26443,-0.0071 0.3192,0.08583c0.33393,0.56583 -0.36615,2.92802 -0.54495,3.60927c2.46037,0.24504 4.84966,-0.42615 7.2786,0.39419c0.233,1.12693 0.22237,2.38763 0.25864,3.53884c0.05729,1.8727 0.09075,3.746 0.10037,5.6193c0.02665,3.71759 0.00922,7.43518 -0.05235,11.15217c-0.03351,2.90672 -0.0072,5.91523 -0.35406,8.80182c-1.26403,0.27049 -2.62095,0.27227 -3.90781,0.31606c-2.21747,0.08346 -4.43645,0.11186 -6.65521,0.08642c-2.89477,0.01184 -5.77464,-0.01657 -8.65908,-0.30127c-0.0831,-0.45338 -0.13899,-0.9115 -0.16739,-1.37197c-0.18527,-2.66108 -0.15547,-5.3417 -0.15243,-8.00752c-0.0009,-3.44414 0.01557,-6.88887 0.04953,-10.33301c0.01934,-1.40453 0.01974,-2.80964 0.00129,-4.21476c-0.02649,-1.31516 -0.1165,-2.67056 0.00855,-3.98098c0.04059,-0.42497 0.14282,-0.8819 0.44104,-1.19559c0.7197,-0.75642 4.39996,-0.44509 5.45629,-0.44095c0.33202,-1.2246 0.75226,-2.42788 1.10564,-3.64774l4.35987,-0.0953l-0.00002,0zm-5.78994,29.06951c2.82291,-0.01539 5.64589,-0.00118 8.46853,0.04262c0.15912,-1.07012 0.07366,-2.25979 0.08355,-3.34648l0.07141,-5.22155c-2.85007,0.00178 -5.72247,0.01539 -8.56912,-0.11127c-0.04706,2.8783 -0.06517,5.75779 -0.05437,8.63669l0,-0.00001zm-0.00017,-13.09294l8.53408,0.05031l0.0898,-7.86488l-8.56951,-0.06156l-0.05437,7.87612l0,0.00001z"/>
   <path stroke="null" id="svg_6" fill="rgb(2,2,1)" d="m174.34569,207.88341c2.39076,-0.0805 4.84629,-0.1456 7.2172,0.24859c1.7735,0.29535 3.74402,0.96654 4.83235,2.57704c0.8574,1.26899 0.98486,2.97359 0.73679,4.47046c-0.3607,2.17633 -1.82978,3.02154 -3.41431,4.18458c0.63969,0.5978 1.44412,0.9837 2.0873,1.5809c1.06813,0.99199 1.51002,2.24559 1.57643,3.71404c0.07692,1.70165 -0.38644,3.43822 -1.49889,4.70366c-2.1175,2.40776 -5.09577,2.28228 -7.95506,2.4196c-3.34745,0.21071 -6.74276,0.20183 -10.0969,0.15862c-1.99222,-0.02545 -4.06958,0.01065 -6.04343,-0.28884c-0.20583,-5.17006 0.07149,-10.41646 0.31279,-15.58179c0.06768,-1.50219 0.1447,-3.00378 0.23108,-4.50538c0.04291,-0.72564 0.04672,-1.49923 0.16116,-2.2154c0.06755,-0.4226 0.16976,-0.79193 0.3942,-1.1512c0.27267,-0.21722 0.73183,-0.23912 1.06664,-0.25984c1.04279,-0.06333 2.1319,0.05682 3.18064,0.06097c2.40459,0.02308 4.80929,-0.01539 7.21203,-0.11601l-0.00001,0zm-6.16396,19.50002c1.61488,0.05623 3.23702,0.14974 4.85264,0.14501c1.81505,-0.01953 5.90195,0.32731 7.16322,-1.03105c0.48029,-0.5173 0.69316,-1.18435 0.67298,-1.90171c-0.01912,-0.67948 -0.21023,-1.38973 -0.69131,-1.86915c-0.96496,-0.9618 -3.00582,-0.88131 -4.23927,-0.8748c-1.52251,0.03551 -3.04839,0.09411 -4.57106,0.09944c-0.6772,0.00237 -1.37767,-0.13376 -2.04997,-0.06274c-0.26033,0.02723 -0.51673,0.07635 -0.72155,0.25865c-0.72088,0.64219 -0.44964,4.24732 -0.41568,5.23634l0,0.00001zm0.42131,-14.70936c-0.03104,1.65252 -0.07057,3.30446 -0.11864,4.95639c1.89787,0.11127 3.73924,0.08168 5.63639,0.07044c1.3166,-0.00769 2.62798,0.02545 3.94014,-0.11541c0.90396,-0.14027 1.67831,-0.38946 2.24193,-1.21098c0.39949,-0.58182 0.58408,-1.40275 0.46393,-2.11123c-0.09227,-0.54453 -0.40342,-0.99199 -0.83845,-1.29444c-0.44542,-0.31014 -1.03823,-0.41491 -1.56159,-0.4812c-1.21264,-0.15448 -2.49984,-0.06274 -3.72254,-0.08168c-1.16322,-0.01776 -2.39261,-0.13909 -3.55071,-0.03019c-0.83839,0.05741 -1.66959,0.09352 -2.49045,0.29831z"/>
   <path stroke="null" id="svg_7" fill="rgb(2,2,1)" d="m200.66275,213.71815c3.29994,-0.35335 7.24284,0.53565 9.85271,2.75401c1.49445,1.27076 2.53571,3.02568 2.73807,5.05701c0.22946,2.30418 -0.43283,4.82676 -1.82888,6.6243c-2.10951,2.71613 -5.44853,3.78506 -8.64373,4.14078c-3.39125,0.219 -7.17874,-0.42379 -9.86463,-2.78419c-1.51593,-1.33231 -2.54425,-3.12394 -2.71754,-5.21563c-0.19432,-2.34562 0.45499,-4.79599 1.91846,-6.59471c2.11559,-2.6013 5.38977,-3.74008 8.54555,-3.98157l-0.00001,-0.00001zm1.86374,14.35897c1.57182,-0.35453 2.99267,-1.07722 3.89122,-2.53975c0.67585,-1.1003 0.85139,-2.40125 0.58493,-3.67201c-0.26252,-1.25182 -0.91492,-2.38053 -1.96557,-3.0677c-1.17142,-0.7653 -2.66278,-0.97897 -4.01655,-0.82626c-1.48101,0.25688 -2.81881,0.95351 -3.71765,2.25506c-0.75091,1.10386 -1.05566,2.47642 -0.84745,3.81643c0.18319,1.25774 0.83278,2.38823 1.80634,3.14347c1.17997,0.89788 2.85103,1.11688 4.26474,0.89078z"/>
   <path stroke="null" id="svg_8" fill="rgb(2,2,1)" d="m202.22074,168.4075c1.18548,-0.03137 2.38114,0.10181 3.56871,0.09589l10.9678,-0.10594l7.49108,-0.0148c2.59711,0.00237 5.24876,-0.00059 7.82731,0.35986c-0.09671,0.8677 -0.1833,1.73657 -0.25976,2.60663c-2.41437,0.37466 -6.23666,0.32967 -8.74325,0.26398c-0.95923,-0.02545 -1.93926,-0.15093 -2.89679,-0.1166c-0.21929,0.00829 -0.43182,0.03255 -0.63592,0.12311c-0.18668,0.08227 -0.32949,0.21722 -0.39415,0.42438c-0.06972,0.22195 -0.05735,0.49304 0.06129,0.69132c0.47287,0.28529 10.05108,0.06629 11.44381,0.10713c0.94967,0.01953 1.89709,0.11127 2.83438,0.27523c0.26145,2.89547 0.20917,5.81284 -0.15631,8.69528c-1.61989,0.33204 -3.38428,0.39833 -4.99293,-0.03019c0.00955,-1.98871 -0.11076,-3.98334 -0.1445,-5.97324c-1.49338,0.02427 -2.99295,0.02012 -4.48408,0.10831l-4.81188,0.04854c0.0894,2.24914 0.01912,4.42843 -0.14113,6.67224c-1.70648,-0.10713 -3.42229,-0.07162 -5.13108,-0.06925c0.02092,-2.22724 -0.03306,-4.47401 -0.09974,-6.70065c-3.0621,0.09352 -6.12567,0.02545 -9.18856,0.09944c-0.02699,0.97127 0.0551,1.94077 0.03492,2.91204c-0.0208,1.00027 -0.16767,2.01238 -0.27782,3.00556c-1.24593,0.17401 -2.77074,0.42379 -4.00711,0.12311c-0.32178,-0.07813 -0.68653,-0.20716 -0.8529,-0.53032c-0.14748,-0.28647 -0.22227,-0.65107 -0.25578,-0.97245c-0.06488,-0.62147 0.00151,-1.27668 -0.00259,-1.90289c-0.00922,-1.41163 -0.26607,-3.14643 0.1255,-4.5113c0.11099,-0.38709 0.34326,-0.97245 0.72954,-1.13699c0.76114,-0.32494 2.20853,-0.14442 3.02539,-0.14442l7.42018,0.00888c0.72909,0.00237 1.46526,0.08523 2.19155,0.06866c0.26617,-0.00592 0.6262,-0.04202 0.8569,-0.19828c0.1815,-0.12311 0.20944,-0.22195 0.25701,-0.43444c-0.07152,-0.31784 -0.21754,-0.64988 -0.53899,-0.75109c-0.50683,-0.15862 -1.2922,0.04913 -1.83901,0.0515l-6.18184,-0.00296c-1.10503,0.00059 -2.32194,0.10417 -3.41201,-0.05741c-0.26915,-0.03966 -0.53528,-0.12843 -0.75422,-0.30305c-0.24223,-0.19295 -0.38802,-0.47055 -0.42631,-0.78601c-0.05757,-0.4741 0.09929,-0.97068 0.3797,-1.3406c0.39809,-0.52499 0.81855,-0.58833 1.41359,-0.65817l-0.00002,-0.00001z"/>
   <path stroke="null" id="svg_9" fill="rgb(246,37,36)" d="m268.82483,208.04026c2.77985,-0.04854 5.56025,-0.05505 8.34067,-0.01894c2.08095,0.0219 4.20576,0.01361 6.27265,0.28588c0.08884,1.01448 0.30475,2.30418 0.00843,3.28611c-0.53753,1.778 -5.1363,4.19819 -6.53523,6.16619c2.24626,0.88841 4.68087,1.07544 5.94822,3.52464c0.7928,1.53238 0.99521,3.26006 0.51897,4.93508c-0.52628,1.85199 -1.67274,3.43644 -3.30107,4.3509c-4.32158,2.42788 -11.34542,1.97095 -15.91664,0.49896c-0.35479,-0.11896 -0.69946,-0.28055 -1.04469,-0.42734c0.01574,-1.35421 -0.04835,-2.74336 0.08096,-4.08929c3.72895,0.21367 8.68702,2.44327 12.24673,0.76056c0.77761,-0.36755 1.43996,-0.98607 1.73403,-1.84548c0.23334,-0.68362 0.25583,-1.45602 -0.0686,-2.11242c-1.17514,-2.38231 -5.49896,-1.56315 -7.63333,-2.24973c-0.03261,-0.06807 -0.06298,-0.13731 -0.09109,-0.20775c-0.35704,-0.90498 -0.33399,-1.85258 0.15462,-2.70311c0.71857,-1.25123 3.87008,-3.20857 5.06715,-4.2562c0.33062,-0.28884 0.82766,-0.69724 0.96878,-1.13344c0.04104,-0.12607 0.02137,-0.09826 -0.03598,-0.23794c-0.2727,-0.17224 -0.55889,-0.21426 -0.87264,-0.24149c-0.86814,-0.07635 -1.78576,0.00651 -2.65952,0.01953c-2.47453,0.03847 -5.78797,0.19354 -8.17817,-0.16928l0,-3.90344c1.65475,-0.2042 3.33143,-0.20005 4.99574,-0.23202l0.00002,-0.00001z"/>
   <path stroke="null" id="svg_10" fill="rgb(2,2,1)" d="m251.16234,213.95312c0.57689,-0.04439 1.15602,-0.04794 1.73347,-0.01184c1.92127,0.12903 4.17989,0.59188 5.48772,2.22309c0.54315,0.67711 0.84678,1.47851 1.02558,2.33555c0.31993,1.53001 0.23727,3.05705 0.24233,4.60836c0.00618,1.83068 0.02193,3.66373 -0.10739,5.49085c-0.05623,0.79134 -0.10852,2.35745 -0.754,2.88541c-0.912,0.74636 -4.31034,0.40011 -5.48716,0.24326c-0.20972,-1.1003 -0.26258,-2.22309 -0.21703,-3.34293c0.09559,-2.34325 0.96766,-6.29107 -0.22322,-8.36265c-0.4515,-0.78542 -1.16389,-1.25656 -2.00279,-1.46668c-1.64857,-0.41431 -3.56309,-0.14086 -5.00024,0.80732c-0.15575,0.14442 -0.3188,0.29002 -0.4605,0.45042c-0.44981,0.50783 -0.74557,1.18375 -0.91368,1.84962c-0.25358,1.00146 -0.26539,2.07927 -0.32499,3.10973c-0.13325,2.30833 -0.17431,4.59061 -0.1535,6.90189c-0.83496,0.06274 -1.66488,0.21959 -2.50209,0.28174c-0.89963,0.06688 -2.73318,0.1823 -3.4495,-0.47469c-0.6989,-1.61642 0.21591,-14.64484 0.43295,-16.99638l6.05449,-0.17638c-0.05623,0.64515 -0.04667,1.29562 -0.05061,1.94313c0.76243,-0.31606 1.44502,-0.78305 2.16979,-1.17665c1.37249,-0.74517 2.98114,-0.98429 4.50038,-1.1222l0.00001,0.00001z"/>
   <path stroke="null" id="svg_11" fill="rgb(2,2,1)" d="m247.99284,196.99167c4.92321,-0.04321 9.84642,-0.03255 14.76906,0.03137c1.89878,0.00651 3.79812,0.03137 5.69689,0.0734c1.11217,0.02427 2.25244,0.01539 3.35842,0.14619c0.29294,0.03433 0.58644,0.0509 0.76468,0.32494c0.50997,0.78424 0.33005,2.57644 0.1878,3.46663c-0.16925,0.14915 -0.32387,0.2699 -0.5409,0.32908c-1.03345,0.28233 -2.29967,0.2184 -3.36854,0.2551c-1.9505,0.06984 -3.90157,0.11482 -5.8532,0.13495c-5.73062,-0.05268 -11.45899,0.11009 -17.19243,-0.02368c-2.47285,-0.05741 -5.01879,-0.00947 -7.46578,-0.4226l-0.04217,-0.24681c-0.18668,-1.10977 -0.46949,-2.70311 0.18217,-3.68799c0.97441,-0.51848 8.00611,-0.36815 9.50399,-0.38058l0,0.00001z"/>
   <path stroke="null" id="svg_12" fill="rgb(2,2,1)" d="m218.98438,208.02961c1.40792,-0.16454 2.90298,-0.00651 4.30865,0.12074c0.34805,4.8463 -0.09784,9.75534 -0.42395,14.59394c-0.20241,3.00082 -0.44307,6.10404 -0.15631,9.10249c-0.5662,-0.01243 -1.13184,-0.01657 -1.69804,-0.01361c-0.21647,0.03966 -0.43126,0.05209 -0.6511,0.06393c-0.95135,0.05268 -2.90917,0.2699 -3.66598,-0.44924c-0.19117,-0.50902 -0.22209,-1.10977 -0.23727,-1.65371c-0.08884,-3.192 0.18892,-6.64029 0.30925,-9.84826c0.1445,-3.85845 0.14731,-7.70566 0.5364,-11.54992c0.5572,-0.18585 1.09867,-0.29417 1.67837,-0.36637l-0.00001,0.00001z"/>
   <path stroke="null" id="svg_13" fill="rgb(2,2,1)" d="m256.74002,169.67708c2.68258,-0.10949 5.40451,-0.00178 8.09158,-0.00829c1.59965,-0.00414 3.32862,-0.18881 4.9114,0.01006c0.38909,0.04913 0.91931,0.08583 1.15995,0.44805c0.62805,0.94463 0.00787,2.85463 -0.22209,3.88331c-1.82006,0.2409 -3.71883,0.20301 -5.55294,0.25037c-3.60526,0.10298 -7.21164,0.15329 -10.81801,0.14974c-1.97805,0.02012 -3.94936,-0.0734 -5.9246,-0.07813c-2.65896,-0.00592 -5.40114,0.05978 -8.04435,-0.28706c-0.19229,-0.55163 -0.31431,-1.08077 -0.36266,-1.66673c-0.06241,-0.75583 -0.05904,-1.72651 0.4335,-2.32786c0.12707,-0.15566 0.23053,-0.20183 0.42844,-0.23675c1.06718,-0.1894 2.31148,-0.07103 3.40227,-0.08938c2.74893,-0.01657 5.49841,-0.01953 8.24789,-0.0071c1.40848,0.00355 2.8462,0.06925 4.24961,-0.04025l-0.00001,0.00001z"/>
   <path stroke="null" id="svg_14" fill="rgb(2,2,1)" d="m223.69392,183.81409c1.10542,-0.03788 2.21083,-0.06333 3.31625,-0.07695c0.22547,0.59957 0.40202,1.21394 0.58195,1.83009c0.6601,0.00296 1.32358,0.01006 1.98311,-0.01953c0.80629,-0.0367 1.72223,-0.19828 2.51558,-0.05505c0.31711,0.05682 0.62187,0.17401 0.86702,0.39952c0.3666,0.33796 0.51166,0.83337 0.5454,1.33113c0.04104,0.61141 -0.0253,1.26899 -0.42844,1.74485c-0.23952,0.28233 -0.56958,0.45871 -0.91762,0.54038c-1.03738,0.24445 -3.53216,-0.07931 -4.87035,0.02012c0.03374,3.17069 0.53809,9.26053 -0.19398,12.14771c-0.2384,0.08819 -0.48636,0.14915 -0.73094,0.21604c-1.12397,0.20716 -2.82258,0.57116 -3.84647,-0.09885c-0.93617,-1.38085 -0.2935,-7.64648 -0.24571,-9.66419c0.02193,-0.90143 -0.0388,-1.807 -0.08602,-2.70666c-0.67922,-0.03315 -1.36575,-0.06511 -2.04497,-0.0367c-0.74275,0.03078 -1.55692,0.16691 -2.29124,0.06807c-0.37897,-0.0509 -0.74163,-0.21012 -0.96429,-0.54985c-0.52234,-0.79667 -0.16362,-2.13905 -0.00955,-3.02982c1.71604,-0.09826 3.47762,-0.08642 5.18185,-0.27523l0.38291,-1.75965l1.25554,-0.02545l-0.00001,0.00001z"/>
   <path stroke="null" id="svg_15" fill="rgb(2,2,1)" d="m209.52385,183.72768c0.30486,0.56228 0.35799,1.23466 0.57992,1.83956c1.17216,0.01717 3.42809,-0.29417 4.42279,0.11541c0.36924,0.15211 0.65954,0.42852 0.81107,0.81798c0.33477,0.85941 -0.02102,1.95675 -0.35619,2.76288c-1.70232,0.04262 -3.4237,0.1166 -5.12185,0.24859c0.01687,2.23493 0.47365,10.73904 -0.22417,12.11812c-0.11577,0.22847 -0.30419,0.25569 -0.51757,0.34388c-1.36889,0.27523 -2.87577,0.12488 -4.26187,0.02486l-0.05268,-12.57682c-1.9116,0.01125 -3.80503,0.11245 -5.69278,-0.26694c-0.02238,-0.11364 -0.04374,-0.22728 -0.0641,-0.34151c-0.14253,-0.80259 -0.32735,-2.07631 0.17396,-2.76644c0.38594,-0.53091 4.44567,-0.82804 5.29712,-0.9328c0.1377,-0.33974 0.20708,-0.87361 0.45009,-1.14528c0.1702,-0.19058 0.3865,-0.15093 0.61518,-0.16632c1.30693,-0.09944 2.62837,0.01953 3.9411,-0.07517l-0.00001,0z"/>
   <path stroke="null" id="svg_16" fill="rgb(2,2,1)" d="m259.18588,182.62501c1.94882,-0.0367 8.51553,-0.25924 9.9853,0.37466c0.27719,0.27582 0.35142,0.59543 0.37447,0.9908c0.04667,0.8091 0.16025,2.35271 -0.4054,2.96354c-0.25864,0.27819 -0.51954,0.37998 -0.88051,0.42556c-1.61708,0.2042 -3.39047,-0.0657 -5.02723,-0.08346l-11.09746,-0.00592c-1.87403,-0.00474 -3.74863,0.00118 -5.62323,0.01776c-1.12903,0.01184 -2.30249,0.09944 -3.42646,0.00769c-0.31599,-0.02604 -0.73938,-0.05801 -1.0014,-0.25806c-0.24909,-0.19058 -0.35985,-0.54393 -0.40821,-0.84994c-0.10514,-0.6635 -0.24627,-2.55691 0.18611,-3.07362c0.26989,-0.32198 0.76581,-0.40366 1.14927,-0.44154c1.89652,-0.18585 3.90888,0.02249 5.81665,0.03196c3.45288,0.01065 6.90576,-0.02249 10.35808,-0.09944l0.00002,0.00001z"/>
   <path stroke="null" id="svg_17" fill="rgb(2,2,1)" d="m229.7456,214.26801c1.34887,-0.13968 2.85969,-0.04913 4.18495,0.22787c0.17655,3.67616 -0.2176,7.31029 -0.36716,10.97756c-0.05735,1.41045 0.12539,2.81675 0.00787,4.22838c-0.04049,0.48061 -0.08715,1.32759 -0.3756,1.71467c-0.3323,0.44569 -0.9075,0.47173 -1.39948,0.51552c-1.50631,0.05564 -2.98789,-0.07044 -4.48239,-0.25333c-0.21591,-3.2358 -0.0253,-6.53078 0.11245,-9.76777c0.10402,-2.45215 0.13045,-5.0138 0.5544,-7.42689c0.57126,-0.12429 1.18357,-0.15211 1.76496,-0.21604l0.00001,0.00001z"/>
   <path stroke="null" id="svg_18" fill="rgb(2,2,1)" d="m162.0173,168.45841c1.7149,0.00769 3.42972,0.02604 5.14442,0.05564c0.16035,0.98903 -0.12567,1.84193 -0.36283,2.78538c1.94629,-0.01717 3.90129,0.04735 5.84701,0.10181c0.24476,1.41045 0.23492,2.59894 -0.04009,4.00701l-1.37086,0.00414c-2.27741,0.00355 -4.55661,0.05919 -6.83418,0.08287c-1.07486,0.01125 -2.35446,0.1527 -3.40954,-0.05919c-0.38983,-0.07872 -0.76257,-0.18999 -0.99913,-0.5463c-0.07274,-0.35039 -0.04893,-0.64041 0.03071,-0.98962c0.30524,-1.33823 1.42281,-4.18754 1.99451,-5.44173l0,-0.00001z"/>
   <path stroke="null" id="svg_19" fill="rgb(2,2,1)" d="m286.55928,195.87953c0.70958,-0.07635 1.41804,-0.06866 2.12875,-0.02249c0.08209,0.90617 0.46387,3.02923 -0.13719,3.73416c-0.24009,0.28174 -0.73994,0.4297 -1.07843,0.51197c-0.8777,0.21426 -1.82456,0.22551 -2.71968,0.34802c-1.80825,0.24741 -3.60581,0.55281 -5.42137,0.74221c-0.79167,0.07991 -1.55298,0.11423 -2.3469,0.03966c-0.10402,-1.27491 -0.12539,-2.5652 -0.15013,-3.84425c3.13126,-0.88664 6.49811,-1.23229 9.72497,-1.50929l-0.00001,0.00001z"/>
   <path stroke="null" id="svg_20" fill="rgb(2,2,1)" d="m228.32475,190.73078l3.39553,-0.04262c0.65673,2.29294 1.94207,8.54968 1.86954,10.81125l-3.36011,0.14382c-1.01264,-2.80964 -1.66262,-7.86547 -1.90496,-10.91246l0,0.00001z"/>
   <path stroke="null" id="svg_21" fill="rgb(2,2,1)" d="m203.75797,190.59642l0.07686,0.06156c0.22327,1.82417 -1.14843,9.19128 -1.93746,10.87754c-1.06038,0.0367 -2.13132,0.00592 -3.19288,0.0071l-0.11527,-0.03847c-0.20759,-1.36842 1.4999,-8.86101 1.92391,-10.71773c1.07956,0.01657 2.169,-0.10772 3.24484,-0.18999z"/>
   <path stroke="null" id="svg_22" fill="rgb(2,2,1)" d="m220.42884,190.671c0.27888,-0.03729 0.58251,-0.02545 0.86533,-0.03729c-0.02811,2.58414 -1.08911,8.51121 -2.02641,10.86511l-2.47397,0.03788l-0.93898,0.00592c0.01574,-1.42228 0.39021,-2.86943 0.6854,-4.25264c0.45544,-2.15917 0.95586,-4.30828 1.50125,-6.44437c0.79617,-0.02368 1.5929,-0.10831 2.38739,-0.1746l-0.00001,-0.00001z"/>
   <path stroke="null" id="svg_23" fill="rgb(2,2,1)" d="m210.90494,190.73019l3.05148,-0.04262c0.05892,0.2409 0.11645,0.48179 0.17256,0.72268c0.25167,1.08018 1.54814,7.29608 1.13691,8.01048c-0.58549,0.08819 -1.19785,0.2184 -1.78784,0.24445c-0.42215,0.01894 -0.98048,-0.01421 -1.29327,-0.35513c-0.53336,-0.58182 -1.12656,-5.51453 -1.21793,-6.54736c-0.05988,-0.67593 -0.06168,-1.35362 -0.0619,-2.03251l-0.00001,0z"/>
   <path stroke="null" id="svg_24" fill="rgb(246,37,36)" d="m229.58311,207.87217c1.47595,-0.12192 3.04299,0.12903 4.52344,0.21722c-0.05004,1.31516 0.0298,2.6451 -0.07815,3.95434l-1.48101,0.04913c-1.50912,0.03196 -3.02162,0.01006 -4.5313,0.01184c-0.0849,-0.45752 -0.17599,-0.91682 -0.23672,-1.37848c-0.0939,-0.7209 -0.14676,-1.57854 0.31824,-2.17693c0.38852,-0.49955 0.91425,-0.59661 1.48551,-0.67711l-0.00001,-0.00001z"/>
   <path stroke="null" id="svg_25" fill="rgb(2,2,1)" d="m222.67791,180.25276c1.30389,-0.13376 2.63478,-0.00533 3.93755,0.09826c0.08096,0.29535 0.15631,0.61259 0.18723,0.91919c0.03092,0.30955 -0.0551,0.60608 -0.25808,0.83337c-0.4262,0.47646 -1.5974,0.32612 -2.18103,0.31428c-1.02501,0.02012 -2.57406,0.32967 -3.5018,-0.21248c-0.28001,-0.16395 -0.58869,-0.49363 -0.65954,-0.83396c-0.04161,-0.20065 -0.00281,-0.35276 0.10964,-0.52026c0.37334,-0.55636 1.78688,-0.56287 2.36602,-0.59839l-0.00001,-0.00001z"/>
   <path stroke="null" id="svg_26" fill="rgb(2,2,1)" d="m224.75773,177.02762c0.68371,-0.07399 1.38542,-0.04084 2.0742,-0.08701c0.00618,0.58182 -0.00787,1.166 -0.01237,1.74781c-1.20775,0.6268 -3.09247,0.33204 -4.44753,0.35986c-0.67472,0.02308 -1.24148,-0.03966 -1.89709,-0.21367l-0.03486,-1.65134l4.31764,-0.15566l0.00001,0.00001z"/>
   <path stroke="null" id="svg_27" fill="rgb(2,2,1)" d="m210.93525,176.94061l1.0484,-0.02131l0.11858,1.9455c-1.69175,-0.00237 -3.38496,0.0805 -5.07564,0.14027l-1.17514,0.01302l-0.04211,-2.03488c1.70873,0.01421 3.41757,0.00059 5.12591,-0.04262l0,0.00001z"/>
   <path stroke="null" id="svg_28" fill="rgb(2,2,1)" d="m209.31845,180.25217c0.06398,-0.00769 0.12792,-0.01598 0.19219,-0.02012c0.75304,-0.04854 1.88983,-0.07044 2.47921,0.50251c0.15957,0.15507 0.2935,0.37111 0.27011,0.61023c-0.0181,0.18467 -0.12747,0.35513 -0.25083,0.48179c-0.74112,0.76175 -2.15179,0.60608 -3.1158,0.60135c-0.9829,-0.04498 -1.93757,-0.09411 -2.89764,-0.34447c-0.00304,-0.51789 -0.03548,-1.02217 -0.0858,-1.53829c1.13105,-0.12962 2.27404,-0.19828 3.40858,-0.29298l-0.00001,-0.00001z"/>
   <path stroke="null" id="svg_29" fill="rgb(246,37,36)" d="m287.11873,231.68283c-0.05454,-1.35421 -0.09278,-2.70015 -0.07253,-4.05555c0.11021,-4.54148 0.27551,-9.08119 0.49479,-13.61793c0.07535,-1.61938 0.01349,-3.29321 0.15743,-4.90016c0.01968,-0.22491 0.02755,-0.41491 0.14844,-0.60786c0.44194,-0.32908 1.00027,-0.42142 1.52824,-0.48771c2.19565,-0.277 4.56279,-0.0728 6.7725,-0.03729c2.5853,0.04202 5.78516,-0.11778 8.30468,0.44628c1.72841,0.3865 3.34043,1.05414 4.73429,2.21717c2.76466,2.30774 3.4883,5.64178 3.86839,9.15221l0,0.59188c-0.11189,0.64574 -0.12539,1.31634 -0.23784,1.96799c-0.39921,2.31721 -1.39892,4.41304 -3.07672,5.99455c-3.67104,3.4619 -8.20291,3.3672 -12.78088,3.50037c-3.28082,0.1237 -6.56558,0.06925 -9.84079,-0.16395zm6.97661,-19.11057c-0.39077,3.18075 -0.56958,6.43135 -0.63986,9.63637c-0.03655,1.68034 -0.11302,3.44236 0.08996,5.11442c2.84563,0.20834 6.06292,0.49541 8.80566,-0.46048c1.54117,-0.60845 2.81189,-1.45957 3.5181,-3.08901c0.91143,-2.10117 0.98903,-5.30856 0.22097,-7.46891c-0.49592,-1.39565 -1.39161,-2.40717 -2.68989,-3.01029c-1.94882,-0.90617 -4.24399,-0.81442 -6.33,-0.83928c-0.99127,0.05505 -1.98255,0.09411 -2.97495,0.11719z"/>
   <path stroke="null" id="svg_30" fill="rgb(2,2,1)" d="m163.12091,182.83453c-0.03341,-0.00474 -0.06678,-0.00947 -0.10024,-0.01421c-0.72059,-0.0947 -2.01269,0.19236 -2.51719,-0.46759c-0.43015,-0.56228 -0.32896,-1.84725 -0.23333,-2.52851c0.04104,-0.29239 0.14147,-0.75701 0.40222,-0.92629c0.49563,-0.32198 8.68984,-0.39005 9.6946,-0.31014c0.51583,0.04084 1.05982,0.13791 1.54129,0.34151c0.30064,0.12666 0.44785,0.31665 0.5621,0.62976c0.32505,0.89078 0.06556,2.06033 -0.26005,2.91678c-1.21753,0.10358 -2.43394,0.22077 -3.64911,0.35157l0,3.68918c1.02737,0.10535 3.32024,-0.23557 3.99153,0.68125c0.39634,0.54097 0.38499,1.54243 0.28609,2.19527c-0.06528,0.43089 -0.23621,0.831 -0.57716,1.09439c-0.88231,0.68185 -2.63715,0.32198 -3.69921,0.40248c-0.17486,1.73893 -0.07135,3.56311 -0.0587,5.31329c1.33865,-0.18822 2.4458,-0.9186 3.8183,-0.90439c-0.00579,1.26307 0.13135,2.51608 0.14366,3.77619c-1.61416,0.83218 -6.97812,3.12512 -8.59816,2.57822c-0.24698,-0.08346 -0.37772,-0.25037 -0.48366,-0.48949c-0.83204,-1.87921 -0.23289,-7.89743 -0.30542,-10.26495c-1.04518,-0.11778 -2.10192,-0.1089 -3.14293,-0.24859c-0.18981,-0.4883 -0.32005,-0.94937 -0.43558,-1.46194l0,-0.91209c0.08471,-0.49777 0.14985,-0.99317 0.20463,-1.49509c1.09391,-0.05209 2.18958,-0.18111 3.28285,-0.20775c0.06696,-1.24531 0.11148,-2.49181 0.13349,-3.7389l-0.00002,0.00001z"/>
  </g>
 </g>

</svg>
