<?xml version="1.0" encoding="UTF-8" standalone="no"?>
<svg
   id="a"
   width="180.62mm"
   height="180.62mm"
   viewBox="0 0 512 512"
   version="1.1"
   sodipodi:docname="orcaslicer_bed_texture.svg"
   xml:space="preserve"
   inkscape:export-filename="orcaslicer_bed_texture.png"
   inkscape:export-xdpi="96"
   inkscape:export-ydpi="96"
   xmlns:inkscape="http://www.inkscape.org/namespaces/inkscape"
   xmlns:sodipodi="http://sodipodi.sourceforge.net/DTD/sodipodi-0.dtd"
   xmlns="http://www.w3.org/2000/svg"
   xmlns:svg="http://www.w3.org/2000/svg"><defs
     id="defs105" /><sodipodi:namedview
     id="namedview103"
     pagecolor="#ffffff"
     bordercolor="#000000"
     borderopacity="0.25"
     inkscape:showpageshadow="2"
     inkscape:pageopacity="0.0"
     inkscape:pagecheckerboard="0"
     inkscape:deskcolor="#d1d1d1"
     inkscape:document-units="mm"
     showgrid="false" /><rect
     x="0"
     y="0"
     width="512"
     height="512"
     style="fill:none"
     id="rect58" /><path
     d="m 511.15,502.65 c 0,4.7 -3.81,8.5 -8.5,8.5 H 492.58 V 512 H 512 v -19.42 h -0.85 z"
     style="fill:#009789"
     id="path94" /><path
     d="m 9.35,511.15 c -4.7,0 -8.5,-3.81 -8.5,-8.5 V 492.58 H 0 V 512 h 19.42 v -0.85 z"
     style="fill:#009789"
     id="path96" /><path
     d="m 0.85,9.35 c 0,-4.7 3.8,-8.5 8.5,-8.5 H 19.42 V 0 H 0 v 19.42 h 0.85 z"
     style="fill:#009789"
     id="path98" /><path
     d="m 502.65,0.85 c 4.7,0 8.5,3.81 8.5,8.5 V 19.42 H 512 V 0 h -19.42 v 0.85 z"
     style="fill:#009789"
     id="path100" /><g
     id="surface1-0"
     transform="matrix(0.48078667,0,0,0.49476364,190.13647,448.18637)"><path
       style="fill:#fdfdfd;fill-opacity:1;fill-rule:nonzero;stroke:none"
       d="m 80.117188,10.953125 c 0.582031,0.824219 0.941406,1.699219 1.296874,2.640625 0.167969,0.429688 0.167969,0.429688 0.335938,0.867188 0.117188,0.3125 0.234375,0.621093 0.351562,0.933593 0.125,0.320313 0.246094,0.640625 0.367188,0.964844 0.257812,0.667969 0.511719,1.339844 0.761719,2.011719 0.328125,0.863281 0.65625,1.71875 0.984375,2.578125 0.253906,0.664062 0.503906,1.324219 0.753906,1.988281 0.121094,0.316406 0.242188,0.632812 0.363281,0.949219 0.167969,0.441406 0.335938,0.886719 0.5,1.332031 0.09766,0.25 0.191407,0.503906 0.289063,0.761719 0.199218,0.78125 0.230468,1.125 -0.0625,1.875 -0.429688,0.519531 -0.847656,0.976562 -1.328125,1.445312 -0.136719,0.136719 -0.277344,0.277344 -0.417969,0.421875 -0.457031,0.457032 -0.921875,0.914063 -1.382812,1.371094 -0.320313,0.316406 -0.640626,0.636719 -0.960938,0.957031 -0.671875,0.671875 -1.34375,1.339844 -2.019531,2.011719 -0.859375,0.851562 -1.71875,1.707031 -2.574219,2.5625 -0.824219,0.820312 -1.644531,1.640625 -2.46875,2.457031 -0.230469,0.234375 -0.230469,0.234375 -0.46875,0.46875 -1.421875,1.414063 -2.835938,2.820313 -4.363281,4.125 -0.796875,0.707031 -1.53125,1.484375 -2.269531,2.253907 -0.34375,0.351562 -0.691407,0.703124 -1.035157,1.058593 -0.535156,0.546875 -1.070312,1.097657 -1.605469,1.652344 -0.515624,0.539063 -1.039062,1.070313 -1.566406,1.605469 -0.15625,0.164062 -0.316406,0.332031 -0.476562,0.503906 -1.117188,1.121094 -1.117188,1.121094 -2.097656,1.289062 C 59.480469,51.714844 58.652344,49.984375 57.828125,48.75 57.597656,48.40625 57.367188,48.0625 57.132812,47.71875 57.03125,47.570312 56.933594,47.417969 56.828125,47.261719 c -0.226563,-0.351563 -0.226563,-0.351563 -0.484375,-0.59375 -0.320312,-0.03125 -0.640625,-0.04297 -0.957031,-0.04687 -0.207031,-0.0039 -0.414063,-0.0078 -0.625,-0.01172 -0.230469,-0.0039 -0.457031,-0.0078 -0.691407,-0.01172 -0.238281,-0.0039 -0.480468,-0.0078 -0.726562,-0.01172 -2.210938,-0.03906 -4.421875,-0.05859 -6.636719,-0.07422 C 45.21875,46.5 43.734375,46.484375 42.246094,46.457031 40.8125,46.429688 39.375,46.414062 37.9375,46.410156 c -0.546875,-0.0039 -1.09375,-0.01563 -1.640625,-0.02734 -3.347656,-0.179687 -3.347656,-0.179687 -6.273437,1.1875 C 29.480469,48.105473 29,48.683598 28.527344,49.28516 c -0.347656,0.355469 -0.699219,0.710938 -1.054688,1.058594 -0.148437,0.148438 -0.292968,0.300781 -0.445312,0.457031 C 26.625,51.19141 26.625,51.19141 25.941406,51.679692 c -1.3125,1.203124 -1.25,3.773437 -1.484375,5.433593 -0.04297,0.292969 -0.08594,0.585938 -0.132812,0.886719 -0.21875,1.554688 -0.390625,3.050781 -0.3125,4.617188 0.402343,0.40625 0.914062,0.273437 1.46875,0.277343 0.265625,0 0.53125,0.0039 0.804687,0.0039 0.296875,0.0039 0.59375,0.0039 0.894532,0.0039 0.308593,0.0039 0.617187,0.0039 0.9375,0.0078 1.027343,0.0039 2.054687,0.0078 3.082031,0.01172 0.351562,0 0.707031,0.0039 1.058593,0.0039 1.46875,0.0039 2.941407,0.01172 4.410157,0.01172 2.105469,0.0039 4.214843,0.01172 6.320312,0.02734 1.480469,0.0078 2.964844,0.01172 4.445313,0.01563 0.882812,0 1.769531,0.0039 2.652344,0.01172 0.988281,0.0078 1.976562,0.0039 2.964843,0.0039 0.4375,0.0039 0.4375,0.0039 0.886719,0.01172 1.527344,0.01563 1.527344,0.01563 2.851562,-0.652343 0.164063,-0.226563 0.332032,-0.453125 0.503907,-0.6875 0.25,-0.257813 0.507812,-0.515625 0.765625,-0.765625 0.136718,-0.136719 0.277344,-0.277344 0.421875,-0.421875 0.148437,-0.148438 0.296875,-0.296875 0.449219,-0.449219 1.628906,-1.625 3.257812,-3.253906 4.882812,-4.882812 0.984375,-0.984376 1.96875,-1.964844 2.953125,-2.949219 0.953125,-0.953125 1.90625,-1.90625 2.859375,-2.863281 0.363281,-0.359376 0.726562,-0.722657 1.089844,-1.085938 0.507812,-0.507812 1.015625,-1.015625 1.523437,-1.523438 0.148438,-0.144531 0.292969,-0.292968 0.445313,-0.445312 0.890625,-0.894531 1.734375,-1.816406 2.558594,-2.773438 C 76,42.628906 76.808594,41.800781 77.621094,40.96875 c 0.171875,-0.183594 0.339844,-0.367188 0.519531,-0.554688 0.785156,-0.804687 1.316406,-1.304687 2.398437,-1.664062 0.765626,0.05859 0.765626,0.05859 1.253907,0.453125 0.523437,0.632813 0.757812,1.175781 1.03125,1.953125 0.101562,0.277344 0.203125,0.558594 0.304687,0.847656 0.109375,0.304688 0.214844,0.613282 0.320313,0.917969 0.109375,0.3125 0.222656,0.628906 0.332031,0.945313 0.234375,0.65625 0.464844,1.316406 0.691406,1.980468 0.292969,0.84375 0.589844,1.683594 0.890625,2.523438 0.230469,0.652344 0.457031,1.300781 0.683594,1.953125 0.109375,0.308593 0.21875,0.621093 0.332031,0.929687 0.152344,0.433594 0.304688,0.871094 0.453125,1.308594 0.08594,0.246094 0.171875,0.492188 0.261719,0.75 0.183594,0.878906 0.113281,1.527344 -0.08203,2.402344 -0.476563,0.625 -0.476563,0.625 -1.085938,1.191406 -0.195312,0.183594 -0.394531,0.371094 -0.59375,0.5625 -0.351562,0.316406 -0.699219,0.628906 -1.058593,0.929688 -1.605469,1.359374 -3.066407,2.863281 -4.546876,4.355468 -0.503906,0.507813 -1.007812,1.011719 -1.511718,1.519532 -1.070313,1.074218 -2.140625,2.152343 -3.210938,3.226562 -1.238281,1.246094 -2.480468,2.496094 -3.722656,3.742188 -0.492188,0.496093 -0.988281,0.992187 -1.480469,1.492187 -2.773437,2.789063 -2.773437,2.789063 -3.929687,3.707031 -0.53125,0.46875 -0.53125,0.46875 -0.996094,1.152344 -0.988281,1.304688 -1.9375,2.183594 -3.597656,2.429688 -1.578125,0.132812 -3.15625,0.101562 -4.738282,0.07422 -0.609374,0 -1.21875,0 -1.828124,0.0039 -1.472657,0.0039 -2.949219,-0.0039 -4.421876,-0.01953 -1.71875,-0.01953 -3.4375,-0.01953 -5.15625,-0.02344 -3.0625,-0.0039 -6.128906,-0.01953 -9.195312,-0.04297 -2.972656,-0.02344 -5.945312,-0.03906 -8.917969,-0.04297 -0.277343,0 -0.277343,0 -0.558593,0 -0.734376,-0.0039 -1.472657,-0.0039 -2.210938,-0.0039 -2.835938,-0.0078 -5.671875,-0.01953 -8.507812,-0.03125 -0.855469,-0.0039 -1.710938,-0.0078 -2.570313,-0.0078 -1.949219,-0.0078 -3.902344,-0.01953 -5.851563,-0.03516 -0.59375,-0.0039 -1.1875,-0.0078 -1.777343,-0.0078 -0.804689,-0.0039 -1.609376,-0.01174 -2.41797,-0.01955 -0.234375,0 -0.472656,0 -0.714844,0 -0.324218,-0.0039 -0.324218,-0.0039 -0.652344,-0.0078 -0.183593,-0.0039 -0.371093,-0.0039 -0.5625,-0.0039 C 0.582031,79.738281 0.367188,79.546875 0,79.046875 -0.03125,78.449219 -0.0195312,77.929688 0.0351562,77.335938 0.046875,77.160156 0.0625,76.984375 0.0742188,76.800781 0.277344,74.285156 0.570312,71.777344 0.859375,69.273438 c 0.0625,-0.542969 0.125,-1.082032 0.1875,-1.625 0.128906,-1.125 0.257813,-2.253907 0.386719,-3.378907 C 1.601562,62.824219 1.765625,61.382812 1.929688,59.9375 2.054688,58.824219 2.183594,57.707031 2.3125,56.59375 2.375,56.0625 2.433594,55.527344 2.492188,54.996094 2.578125,54.253906 2.664062,53.511719 2.75,52.769531 c 0.023438,-0.21875 0.050781,-0.4375 0.074219,-0.664062 0.097656,-0.808594 0.207031,-1.496094 0.539062,-2.242188 0.691407,-0.53125 1.277344,-0.449219 2.140625,-0.4375 0.171875,0.0039 0.34375,0.0039 0.519532,0.0039 0.375,0.0039 0.746093,0.0078 1.121093,0.01562 0.59375,0.01172 1.183594,0.01563 1.773438,0.01953 1.257812,0.0078 2.515625,0.02734 3.769531,0.04297 1.457031,0.01953 2.910156,0.03516 4.363281,0.04688 0.582031,0.0039 1.164063,0.01562 1.75,0.02734 0.355469,0 0.714844,0.0039 1.074219,0.0078 0.308594,0.0039 0.621094,0.0078 0.945312,0.01172 1.21875,-0.117187 1.945313,-0.671874 2.777344,-1.53125 0.136719,-0.140624 0.273438,-0.28125 0.414063,-0.425781 0.214843,-0.21875 0.214843,-0.21875 0.429687,-0.441406 1.800782,-1.835937 1.800782,-1.835937 2.75,-2.648437 0.132813,-0.117188 0.261719,-0.234376 0.398438,-0.351563 0.460937,-0.394531 0.460937,-0.394531 0.9375,-0.734375 1.566406,-1.269531 1.773437,-2.738281 1.992187,-4.640625 0.03906,-0.382813 0.07813,-0.765625 0.117188,-1.148437 0.04297,-0.382813 0.08984,-0.761719 0.136719,-1.140626 0.08594,-0.734374 0.167968,-1.464843 0.253906,-2.199218 0.101562,-0.890625 0.210937,-1.777344 0.339844,-2.660156 0.03125,-0.21875 0.0625,-0.4375 0.09375,-0.660157 0.183593,-0.636719 0.355468,-0.851562 0.871093,-1.257812 0.507813,-0.08594 0.507813,-0.08594 1.109375,-0.08203 0.230469,-0.0039 0.457032,-0.0039 0.691406,-0.0039 0.25,0.0039 0.5,0.0078 0.757813,0.0078 0.398437,0.0039 0.398437,0.0039 0.800781,0.0039 0.574219,0 1.148438,0 1.71875,0.0039 0.910156,0.0078 1.820313,0.0078 2.726563,0.0078 2.582031,-0.0039 5.167969,0 7.75,0.01172 1.578125,0.0078 3.15625,0.0078 4.738281,0.0039 0.601562,0 1.203125,0 1.804688,0.0078 0.839843,0.0078 1.683593,0.0039 2.527343,0 0.246094,0.0039 0.496094,0.01172 0.75,0.01563 1.558594,-0.02344 2.359375,-0.332031 3.460938,-1.445312 0.132812,-0.144531 0.269531,-0.289063 0.40625,-0.4375 0.277343,-0.269531 0.558593,-0.542969 0.84375,-0.8125 0.28125,-0.28125 0.5625,-0.5625 0.84375,-0.84375 0.148437,-0.152344 0.300781,-0.304688 0.457031,-0.460938 0.320312,-0.316406 0.636719,-0.636719 0.953125,-0.953125 0.480469,-0.484375 0.960937,-0.964844 1.445313,-1.445312 0.308593,-0.3125 0.621093,-0.625 0.933593,-0.9375 0.140625,-0.140625 0.28125,-0.28125 0.425781,-0.425782 0.710938,-0.714843 1.390626,-1.441406 2.046876,-2.203124 0.863281,-0.996094 1.777343,-1.929688 2.707031,-2.859376 0.171875,-0.171874 0.339843,-0.34375 0.515625,-0.519531 0.359375,-0.359375 0.714844,-0.714843 1.074218,-1.074219 0.550782,-0.546874 1.097657,-1.097656 1.644532,-1.648437 0.347656,-0.347656 0.695312,-0.695313 1.046875,-1.042969 0.164062,-0.167968 0.324219,-0.332031 0.496093,-0.5 0.152344,-0.152344 0.300782,-0.304687 0.457032,-0.457031 0.132812,-0.132813 0.269531,-0.269531 0.40625,-0.40625 0.753906,-0.6875 1.289062,-0.585937 2.246094,-0.3125 z m 0,0"
       id="path200" /><path
       style="fill:#fdfdfd;fill-opacity:1;fill-rule:nonzero;stroke:none"
       d="m 12.148438,-0.128906 c 0.246093,-0.003906 0.492187,-0.007813 0.746093,-0.007813 0.832031,-0.007812 1.660157,-0.007812 2.492188,-0.007812 0.59375,-0.003907 1.1875,-0.007813 1.78125,-0.011719 1.617187,-0.011719 3.230469,-0.015625 4.847656,-0.019531 1.007813,0 2.015625,-0.003907 3.027344,-0.007813 2.792969,-0.007812 5.589843,-0.015625 8.382812,-0.019531 0.179688,0 0.359375,0 0.542969,0 0.363281,0 0.726562,0 1.085938,0 0.179687,0 0.363281,0 0.546874,0 0.179688,0 0.359376,0 0.546876,0 2.917968,0 5.835937,-0.015625 8.753906,-0.03125 3,-0.019531 5.996094,-0.027344 8.996094,-0.027344 1.679687,0 3.363281,-0.003906 5.046874,-0.019531 1.582032,-0.011719 3.164063,-0.011719 4.75,-0.003906 0.578126,0 1.160157,-0.003906 1.742188,-0.011719 4.613281,-0.054687 4.613281,-0.054687 5.734375,0.808594 0.550781,0.601562 0.941406,1.164062 1.335937,1.871093 0.265626,0.347657 0.535157,0.691407 0.808594,1.03125 0.238282,0.320313 0.472656,0.640626 0.707032,0.960938 0.121093,0.164062 0.242187,0.324219 0.367187,0.492188 0.226563,0.3125 0.453125,0.621093 0.679687,0.933593 0.300782,0.417969 0.300782,0.417969 0.746094,0.875 0.257813,0.46875 0.257813,0.46875 0.273438,1.261719 -0.328125,1.125 -0.851563,1.644531 -1.695313,2.417969 -0.128906,0.128906 -0.261719,0.253906 -0.394531,0.382812 -0.699219,0.671875 -1.421875,1.316407 -2.160156,1.949219 -1.183594,1.027344 -2.273438,2.148438 -3.371094,3.265625 -1.253906,1.273437 -2.503906,2.527344 -3.863281,3.683594 -0.574219,0.496093 -1.109375,1.027343 -1.644531,1.5625 -0.4375,0.230469 -0.4375,0.230469 -1.136719,0.226562 -0.9375,-0.304687 -1.183594,-0.6875 -1.722657,-1.5 -0.15625,-0.230469 -0.308593,-0.460937 -0.46875,-0.695312 C 59.375,18.84375 59.125,18.457031 58.890625,18.0625 c -0.375,-0.496094 -0.375,-0.496094 -0.976563,-0.558594 -0.226562,0 -0.449218,0 -0.683593,0.0039 -0.257813,0 -0.515625,-0.0039 -0.785157,-0.0039 -0.28125,0.0039 -0.566406,0.0078 -0.859374,0.01563 -0.296876,0 -0.597657,0 -0.902344,0 -0.820313,0.0039 -1.636719,0.01172 -2.453125,0.01953 -0.679688,0.0078 -1.359375,0.01172 -2.039063,0.01563 -1.769531,0.01172 -3.539062,0.02734 -5.308594,0.04687 -1.242187,0.01563 -2.484374,0.02344 -3.726562,0.03516 -1.664062,0.01172 -3.332031,0.02734 -4.996094,0.04687 -0.628906,0.0078 -1.261718,0.01172 -1.890625,0.01953 -0.878906,0.0078 -1.757812,0.01953 -2.632812,0.03125 -0.261719,0.0039 -0.523438,0.0039 -0.792969,0.0039 -0.238281,0.0078 -0.472656,0.01172 -0.71875,0.01563 -0.207031,0.0039 -0.414062,0.0039 -0.625,0.0078 -0.164062,0.03125 -0.328125,0.0625 -0.496094,0.09375 -0.59375,0.894531 -0.644531,1.707031 -0.757812,2.746093 -0.02344,0.207032 -0.05078,0.414063 -0.07422,0.628907 -0.05469,0.449219 -0.105469,0.898437 -0.15625,1.347656 -0.08203,0.714844 -0.164063,1.425781 -0.25,2.136719 -0.238281,2.027344 -0.472656,4.054687 -0.707031,6.078125 -0.144532,1.242187 -0.289063,2.480469 -0.4375,3.71875 -0.05469,0.472656 -0.109375,0.945312 -0.164063,1.414062 -0.07422,0.664063 -0.152343,1.324219 -0.230469,1.984375 -0.01953,0.195313 -0.04297,0.390625 -0.0625,0.589844 -0.191406,1.53125 -0.699218,2.484375 -1.796874,3.578125 -0.15625,0.15625 -0.3125,0.3125 -0.472657,0.476563 -0.164062,0.15625 -0.324219,0.316406 -0.492187,0.480468 -0.164063,0.164063 -0.328125,0.328125 -0.492188,0.496094 -1.164062,1.152344 -1.617187,1.496094 -3.300781,1.507812 -0.160156,0 -0.316406,0 -0.480469,0.0039 -0.527344,0.0039 -1.054687,0.0039 -1.582031,0.0039 -0.363281,0.0039 -0.730469,0.0039 -1.09375,0.0039 -0.765625,0.0039 -1.535156,0.0039 -2.300781,0.0078 -0.980469,0 -1.964844,0.0039 -2.949219,0.01172 -0.753906,0.0039 -1.507813,0.0078 -2.261719,0.0078 -0.363281,0 -0.726562,0 -1.089844,0.0039 -0.503906,0.0039 -1.011718,0.0039 -1.519531,0.0039 -0.285156,0 -0.574219,0 -0.871093,0 C 4.753906,45 4.753906,45 4.359375,44.699219 c -1.144531,-1.492188 -0.105469,-5 0.101563,-6.808594 0.046874,-0.402344 0.09375,-0.804687 0.136718,-1.207031 0.125,-1.085938 0.246094,-2.171875 0.371094,-3.257813 0.078125,-0.679687 0.15625,-1.359375 0.234375,-2.039062 0.242187,-2.125 0.488281,-4.25 0.734375,-6.375 C 6.21875,22.558594 6.5,20.109375 6.777344,17.65625 6.988281,15.757812 7.207031,13.859375 7.425781,11.960938 7.558594,10.832031 7.6875,9.699219 7.816406,8.566406 7.933594,7.5 8.058594,6.4375 8.183594,5.375 8.226562,4.984375 8.273438,4.59375 8.316406,4.203125 8.375,3.667969 8.4375,3.136719 8.5,2.605469 8.535156,2.308594 8.570312,2.007812 8.605469,1.703125 c 0.5,-1.964844 1.792969,-1.84375 3.542969,-1.832031 z m 0,0"
       id="path202" /><path
       style="fill:#fdfdfd;fill-opacity:1;fill-rule:nonzero;stroke:none"
       d="m 245.4375,8.214844 c 0.21875,0 0.44141,0 0.66797,0 0.24219,0 0.48047,0 0.73047,0 0.25,0.00391 0.5039,0.00781 0.76172,0.015625 0.2539,-0.00391 0.5039,-0.00391 0.76171,-0.00781 1.85938,0.015625 1.85938,0.015625 2.40625,0.472656 0.0937,0.117188 0.1836,0.234376 0.28125,0.351563 -0.33984,1.113281 -0.80078,2.128906 -1.32812,3.160156 -0.17188,0.332031 -0.33984,0.664063 -0.50781,1 -0.26172,0.515625 -0.52735,1.03125 -0.79297,1.550781 -1.36328,2.664063 -1.36328,2.664063 -2.36328,5.480469 0.55859,0.08984 0.55859,0.08984 1.1875,0 0.44531,-0.457031 0.44531,-0.457031 0.77343,-1.058593 0.11719,-0.195313 0.23829,-0.390626 0.35938,-0.59375 0.0977,-0.160157 0.19531,-0.324219 0.29297,-0.492188 0.23828,-0.238281 0.23828,-0.238281 0.67969,-0.261719 0.28125,0 0.28125,0 0.57031,0 0.30469,0.0039 0.30469,0.0039 0.61328,0.0039 0.21484,0.0039 0.42969,0.0039 0.64844,0.0078 0.21484,0 0.42968,0 0.64843,0 0.53125,0.0039 1.0625,0.0078 1.59375,0.01172 0.0625,-0.195313 0.1211,-0.394531 0.1836,-0.601563 0.32422,-0.910156 0.72656,-1.761718 1.16406,-2.625 0.082,-0.164062 0.16406,-0.332031 0.25,-0.503906 0.17578,-0.347656 0.35156,-0.699219 0.52734,-1.046875 0.26954,-0.535156 0.53907,-1.070313 0.80469,-1.609375 0.17188,-0.339844 0.33985,-0.679688 0.51172,-1.019531 0.082,-0.160157 0.16016,-0.320313 0.24609,-0.488281 0.56641,-1.125 0.56641,-1.125 0.83204,-1.390626 0.4375,-0.023437 0.875,-0.03125 1.3125,-0.03125 0.26562,0 0.53515,0 0.80859,0 0.28125,0 0.55859,0 0.84766,0.00391 0.42187,-0.00391 0.42187,-0.00391 0.85156,-0.00391 0.39844,0 0.39844,0 0.80469,0 0.25,0 0.49609,0 0.75,0 0.5664,0.03125 0.5664,0.03125 0.80468,0.269532 -0.0937,1.199218 -0.39843,2.039062 -0.94922,3.097656 0,0.234375 0,0.46875 0,0.710938 1.25391,0 2.50782,0 3.80079,0 0.0156,-0.535157 0.0312,-1.070313 0.0469,-1.621094 0.043,-1.558594 0.043,-1.558594 0.64844,-2.167969 1.05859,-0.371094 2.04297,-0.351563 3.15234,-0.332031 0.32813,0 0.32813,0 0.66016,0 1.60937,0.011718 1.60937,0.011718 2.14844,0.550781 0.14062,0.558594 0.26171,1.117187 0.37109,1.683594 0.12109,1.019531 0.12109,1.019531 0.58203,1.886719 0.39844,0.02734 0.79688,0.03906 1.19531,0.04297 0.24219,0.0078 0.48438,0.01172 0.73438,0.01953 0.51172,0.0078 1.02734,0.01562 1.54297,0.01953 0.36328,0.01172 0.36328,0.01172 0.73828,0.01953 0.33594,0.0078 0.33594,0.0078 0.67578,0.01172 0.58203,0.125 0.58203,0.125 1.00781,0.5625 0.40625,0.738281 0.39063,1.347656 0.39063,2.183593 0.004,0.289063 0.008,0.578126 0.0117,0.878907 -0.14063,0.941406 -0.32813,1.160156 -1.06641,1.738281 -0.65625,0.109375 -0.65625,0.109375 -1.39453,0.09375 -0.26563,-0.0039 -0.53125,-0.0039 -0.80469,-0.0078 -0.41016,-0.01172 -0.41016,-0.01172 -0.83203,-0.02344 -0.28125,-0.0039 -0.55859,-0.01172 -0.84766,-0.01563 -0.6875,-0.01172 -1.375,-0.02734 -2.0664,-0.04687 0.0781,1.257812 0.15625,2.515625 0.23828,3.8125 0.55469,0.01172 0.55469,0.01172 1.12109,0.02734 0.48047,0.01563 0.96485,0.03125 1.44922,0.04687 0.24219,0.0039 0.48828,0.0078 0.73828,0.01563 0.35156,0.01172 0.35156,0.01172 0.70703,0.02344 0.21485,0.0078 0.4336,0.01563 0.65235,0.01953 0.66797,0.121094 0.88281,0.273438 1.27734,0.816407 0.0742,0.621093 0.10938,1.167969 0.10156,1.789062 0.004,0.160157 0.0117,0.320313 0.0156,0.488281 0,0.46875 0,0.46875 -0.11719,1.296876 -0.50781,0.503906 -0.82812,0.695312 -1.53906,0.792968 -0.21485,-0.0039 -0.42969,-0.0078 -0.65235,-0.01172 -0.34765,0 -0.34765,0 -0.70312,-0.0039 -0.24219,-0.0078 -0.48438,-0.01172 -0.73438,-0.01953 -0.24218,-0.0039 -0.48828,-0.0078 -0.74218,-0.0078 -0.60157,-0.01172 -1.20703,-0.02344 -1.8125,-0.03516 0.0781,1.492188 0.15625,2.984375 0.23828,4.523438 0.58594,0.01563 0.58594,0.01563 1.17969,0.03516 0.50781,0.01563 1.01562,0.03516 1.52343,0.05469 0.25782,0.0039 0.51563,0.01172 0.78125,0.01953 0.24219,0.01172 0.48828,0.01953 0.74219,0.02734 0.33984,0.01172 0.33984,0.01172 0.6875,0.02344 0.55469,0.07813 0.55469,0.07813 1.03125,0.554687 0.0625,0.757813 0.0625,0.757813 0.0586,1.664063 0,0.449219 0,0.449219 0.004,0.910156 -0.0625,0.757813 -0.0625,0.757813 -0.53906,1.234375 -0.55469,0.07422 -0.55469,0.07422 -1.24219,0.09766 -0.24609,0.0078 -0.49219,0.01953 -0.74219,0.02734 -0.25781,0.0078 -0.51562,0.01563 -0.78125,0.02344 -0.25781,0.0078 -0.51562,0.01953 -0.78125,0.02734 -0.64062,0.02344 -1.28125,0.04297 -1.92187,0.0625 0,1.492187 0,2.984374 0,4.523437 0.63672,0.01563 0.63672,0.01563 1.28515,0.03516 0.55079,0.01563 1.10547,0.03516 1.65625,0.05469 0.28125,0.0078 0.5586,0.01172 0.84766,0.01953 0.39844,0.01563 0.39844,0.01563 0.80859,0.03125 0.2461,0.0039 0.49219,0.01172 0.7461,0.01953 0.60156,0.07813 0.60156,0.07813 1.07422,0.554688 0.0742,0.75 0.0742,0.75 0.0742,1.652343 0.004,0.296876 0.008,0.589844 0.0117,0.898438 -0.0859,0.78125 -0.0859,0.78125 -0.38281,1.183594 -0.51562,0.386718 -0.78515,0.402344 -1.42578,0.402344 -0.3125,0 -0.3125,0 -0.625,0.0039 -0.22656,-0.0039 -0.45312,-0.0039 -0.6875,-0.0039 -0.23437,0 -0.47266,0 -0.71875,0 -0.78906,0.0039 -1.57812,0 -2.36719,-0.0039 -0.54687,0 -1.09375,0 -1.64062,0 -1.14844,0 -2.29297,-0.0039 -3.44141,-0.0078 -1.47265,-0.0039 -2.9414,-0.0039 -4.41406,-0.0039 -1.12891,0.0039 -2.26172,0 -3.39063,0 -0.54296,-0.0039 -1.08593,-0.0039 -1.6289,-0.0039 -0.75781,0 -1.51563,0 -2.26953,-0.0039 -0.33985,0 -0.33985,0 -0.6875,0 -0.20703,0 -0.41016,-0.0039 -0.6211,-0.0039 -0.17968,0 -0.35937,-0.0039 -0.54297,-0.0039 -0.4414,-0.05859 -0.4414,-0.05859 -0.91796,-0.535157 -0.043,-0.730469 -0.0586,-1.441406 -0.0508,-2.175781 0,-0.222656 0,-0.449219 0,-0.679688 0,-0.75 0.004,-1.496093 0.008,-2.242187 0,-0.519531 0,-1.035156 0,-1.550781 0.004,-1.363282 0.008,-2.726563 0.0117,-4.089844 0.004,-1.390625 0.008,-2.78125 0.0117,-4.171875 0.004,-2.726563 0.0117,-5.457031 0.0195,-8.183594 -0.85938,0 -1.72266,0 -2.61329,0 -0.15625,0.390625 -0.3125,0.785157 -0.47656,1.1875 -0.21484,0.414063 -0.4414,0.824219 -0.67187,1.230469 -0.13282,0.234375 -0.26172,0.464844 -0.39844,0.707031 -0.13672,0.238281 -0.27344,0.480469 -0.41406,0.726563 -0.13282,0.238281 -0.26563,0.472656 -0.40625,0.714844 -0.76563,1.351562 -1.55078,2.691406 -2.3711,4.011718 -0.29297,0.449219 -0.29297,0.449219 -0.2539,0.945313 1.57031,0.07813 3.13672,0.15625 4.7539,0.238281 0.35547,0.710938 0.3125,1.4375 0.32813,2.214844 0.0117,0.3125 0.0234,0.628906 0.0352,0.949218 -0.125,0.882813 -0.125,0.882813 -0.5625,1.523438 -1.10156,0.804688 -2.05078,0.714844 -3.38281,0.699219 -0.38281,0 -0.38281,0 -0.76953,0 -0.53906,0 -1.07422,-0.0039 -1.61328,-0.0078 -0.82422,-0.0078 -1.64453,-0.0039 -2.46875,0 -0.52344,-0.0039 -1.04297,-0.0039 -1.56641,-0.0078 -0.24609,0 -0.49218,0.0039 -0.74609,0.0039 -1.68359,-0.02734 -1.68359,-0.02734 -2.48047,-0.546875 -0.60937,-1.027344 -0.51172,-2.015625 -0.32422,-3.164063 0.35156,-0.9375 0.82422,-1.773437 1.33594,-2.632812 0.125,-0.21875 0.25,-0.4375 0.37891,-0.660156 0.5039,-0.882813 1.02343,-1.753906 1.55078,-2.621094 0.13281,-0.210938 0.26172,-0.425781 0.39453,-0.644531 0.12109,-0.195313 0.23828,-0.386719 0.35937,-0.582031 0.29688,-0.457032 0.29688,-0.457032 0.26172,-0.953126 -0.28515,-0.0078 -0.57031,-0.01172 -0.85937,-0.01953 -0.375,-0.01172 -0.7461,-0.02734 -1.11719,-0.03906 -0.1875,-0.0039 -0.375,-0.0078 -0.56641,-0.01172 -0.26953,-0.01172 -0.26953,-0.01172 -0.54687,-0.02344 -0.16406,-0.0039 -0.33203,-0.0078 -0.5,-0.01562 -0.64844,-0.183594 -0.8125,-0.519532 -1.16797,-1.082032 -0.44922,-1.972656 0.45312,-3.625 1.32812,-5.339844 0.20313,-0.410156 0.20313,-0.410156 0.41016,-0.832031 0.35938,-0.722656 0.72266,-1.445312 1.08594,-2.167969 0.29687,-0.585937 0.58984,-1.179687 0.88281,-1.769531 0.60547,-1.222656 1.21094,-2.445312 1.82813,-3.660156 0.10546,-0.214844 0.21484,-0.429687 0.32812,-0.652344 0.82422,-1.484375 0.82422,-1.484375 1.60547,-1.648437 z m 15.83203,9.640625 c -0.008,0.742187 -0.0117,1.484375 -0.0156,2.25 -0.004,0.234375 -0.004,0.464843 -0.008,0.707031 0,0.183594 0,0.367188 0,0.554688 -0.004,0.1875 -0.004,0.378906 -0.004,0.570312 -0.0234,0.445312 -0.0234,0.445312 0.26562,0.679688 0.4375,0.02344 0.87891,0.02734 1.32031,0.02344 0.26954,0 0.53516,0 0.8125,0 0.42188,-0.0039 0.42188,-0.0039 0.85157,-0.0078 0.28125,0 0.5664,0 0.85547,-0.0039 0.69921,0 1.40234,-0.0039 2.10156,-0.01172 0,-1.570313 0,-3.140626 0,-4.761719 -2.03906,0 -4.07813,0 -6.17969,0 z m 0,9.289062 c -0.0234,0.332031 -0.0312,0.667969 -0.0312,1.003907 -0.004,0.199218 -0.004,0.402343 -0.004,0.613281 0.004,0.210937 0.004,0.425781 0.004,0.644531 0,0.210938 0,0.425781 -0.004,0.644531 0,0.199219 0,0.402344 0.004,0.613281 0,0.183594 0,0.371094 0,0.5625 -0.0195,0.445313 -0.0195,0.445313 0.26953,0.679688 0.41797,0.02344 0.83985,0.03125 1.26172,0.03125 0.25391,0 0.51172,0 0.77344,0 0.26953,0 0.53906,-0.0039 0.8164,-0.0039 0.26954,0 0.53907,0.0039 0.81641,0.0039 0.25391,0 0.50781,0 0.77344,0 0.23437,0 0.47265,0 0.71484,0 0.53906,0.02734 0.53906,0.02734 0.78516,-0.269531 0.0234,-0.335938 0.0312,-0.671875 0.0312,-1.003907 0,-0.203124 0,-0.40625 0,-0.613281 0,-0.320312 0,-0.320312 0,-0.644531 0,-0.214844 0,-0.425781 0,-0.644531 0,-0.203125 0,-0.40625 0,-0.613281 0,-0.1875 0,-0.375 0,-0.566407 0.0156,-0.441406 0.0156,-0.441406 -0.26953,-0.675781 -0.41797,-0.02344 -0.83985,-0.03125 -1.26172,-0.03125 -0.25781,-0.0039 -0.51172,-0.0039 -0.77344,-0.0039 -0.26953,0.0039 -0.53906,0.0039 -0.81641,0.0039 -0.26953,0 -0.53906,0 -0.8164,-0.0039 -0.25391,0 -0.51172,0 -0.77344,0.0039 -0.23828,0 -0.47266,0 -0.71484,0 -0.53907,-0.03125 -0.53907,-0.03125 -0.78516,0.269531 z m 0,9.046875 c 0,1.570313 0,3.140625 0,4.761719 2.03906,0 4.07813,0 6.17969,0 0.004,-0.742187 0.0117,-1.484375 0.0156,-2.246094 0,-0.234375 0.004,-0.46875 0.004,-0.710937 0.004,-0.183594 0.004,-0.367188 0.004,-0.554688 0,-0.1875 0.004,-0.375 0.004,-0.570312 0.0195,-0.445313 0.0195,-0.445313 -0.26562,-0.679688 -0.44141,-0.02344 -0.88282,-0.02734 -1.32422,-0.02344 -0.26563,0 -0.53516,0 -0.8086,0 -0.42187,0.0039 -0.42187,0.0039 -0.85156,0.0078 -0.28515,0 -0.5664,0.0039 -0.85547,0.0039 -0.70312,0.0039 -1.40234,0.0078 -2.10156,0.01172 z m 0,0"
       id="path204" /><path
       style="fill:#fdfdfd;fill-opacity:1;fill-rule:nonzero;stroke:none"
       d="M 129.28125,8.257812 C 129.74609,8.25 129.74609,8.25 130.21484,8.238281 c 0.29688,-0.00391 0.59375,-0.00391 0.89844,-0.00781 0.27344,-0.00391 0.54688,-0.00391 0.82813,-0.00781 0.71484,0.109375 0.71484,0.109375 1.28515,0.535156 0.37891,0.527344 0.37891,0.527344 0.34766,1.449219 -0.13672,0.835938 -0.41406,1.613281 -0.6836,2.410157 0.20313,0 0.40625,-0.0039 0.61719,-0.0078 0.75391,-0.01563 1.50781,-0.02344 2.26563,-0.03125 0.32422,0 0.65234,-0.0078 0.97656,-0.01172 0.47266,-0.01172 0.94141,-0.01172 1.41406,-0.01563 0.28125,-0.0039 0.5625,-0.0078 0.85547,-0.01172 0.91016,0.09375 1.54297,0.378907 2.19531,1.03125 0.0234,0.40625 0.0312,0.8125 0.0352,1.214844 0,0.265625 0,0.527344 0.004,0.800782 0,0.289062 0,0.582031 0,0.882812 0.004,0.304688 0.004,0.609375 0.008,0.925781 0.004,0.835938 0.004,1.675781 0.008,2.515625 0,0.523438 0,1.046875 0.004,1.574219 0.004,1.636719 0.008,3.277344 0.008,4.914063 0.004,1.894531 0.0117,3.785156 0.0195,5.679687 0.008,1.460937 0.0117,2.925781 0.0117,4.386719 0,0.875 0.004,1.746094 0.008,2.621094 0.008,0.976562 0.008,1.949218 0.004,2.925781 0.004,0.289062 0.008,0.578125 0.0117,0.878906 -0.004,0.265625 -0.004,0.53125 -0.008,0.804687 0,0.230469 0.004,0.460938 0.004,0.699219 -0.15625,0.792969 -0.43359,1.074219 -1.07031,1.558594 -0.72656,0.09375 -1.3711,0.132813 -2.10156,0.125 -0.21094,0.0039 -0.42188,0.0039 -0.64063,0.0078 -0.69922,0.0039 -1.40234,0.0039 -2.10156,0 -0.48438,0.0039 -0.97266,0.0039 -1.46094,0.0039 -1.01953,0.0039 -2.03906,0.0039 -3.05859,0 -1.3086,-0.0039 -2.61719,0 -3.92188,0.0078 -1.00781,0.0078 -2.01172,0.0078 -3.01562,0.0039 -0.48438,0 -0.96485,0.0039 -1.44922,0.0039 -0.67188,0.0078 -1.34766,0.0039 -2.01953,-0.0039 -0.30078,0.0039 -0.30078,0.0039 -0.60547,0.0078 -0.84766,-0.01172 -1.39453,-0.08594 -2.09375,-0.578125 -0.55859,-1.21875 -0.48438,-2.40625 -0.47266,-3.730469 0,-0.300781 -0.004,-0.601562 -0.004,-0.910156 -0.004,-0.824219 0,-1.644531 0.004,-2.46875 0.004,-0.859375 0,-1.722656 0,-2.582031 0,-1.449219 0.004,-2.894532 0.008,-4.339844 0.008,-1.671875 0.008,-3.34375 0.004,-5.015625 0,-1.609375 0,-3.214844 0.004,-4.824219 0,-0.683594 0,-1.371094 0,-2.054687 0,-0.953125 0.004,-1.910157 0.008,-2.867188 0,-0.425781 0,-0.425781 -0.004,-0.859375 0.004,-0.261718 0.004,-0.519531 0.008,-0.789062 0,-0.222656 0,-0.449219 0,-0.683594 0.10937,-0.710938 0.30859,-1.035156 0.80468,-1.550781 0.75782,-0.25 1.28907,-0.265625 2.08204,-0.257813 0.26562,0 0.53515,0 0.80859,0 0.27734,0.0039 0.55469,0.0039 0.83984,0.0078 0.28125,0 0.5586,0 0.84766,0.0039 0.69531,0 1.38672,0.0039 2.07812,0.0078 0.0312,-0.289063 0.0664,-0.578126 0.0977,-0.878907 0.0977,-0.765625 0.24219,-1.46875 0.49609,-2.199219 0.0625,-0.179687 0.125,-0.359374 0.1875,-0.542968 0.4961,-1.234375 2.56641,-0.730469 3.69141,-0.738282 z m -4.94531,9.597657 c -0.008,1.21875 -0.0117,2.433593 -0.0156,3.652343 0,0.414063 -0.004,0.828126 -0.004,1.242188 -0.004,0.59375 -0.004,1.1875 -0.004,1.78125 -0.004,0.183594 -0.004,0.371094 -0.004,0.5625 0,0.445312 0.0117,0.890625 0.0273,1.335938 0.44922,0.449218 1.10547,0.269531 1.70703,0.269531 0.20703,0 0.41016,0 0.625,0 0.21094,0 0.41797,0 0.63672,0 0.44531,0 0.89062,0 1.33593,0 0.6836,-0.0039 1.36719,0 2.05079,0 0.43359,0 0.86328,0 1.29296,0 0.3125,0 0.3125,0 0.625,0 0.92969,0.08984 0.92969,0.08984 1.71094,-0.269531 0.0195,-0.636719 0.0273,-1.265626 0.0234,-1.898438 0,-0.191406 -0.004,-0.378906 -0.004,-0.578125 0,-0.605469 -0.004,-1.214844 -0.008,-1.824219 0,-0.414062 0,-0.824218 0,-1.238281 -0.004,-1.011719 -0.008,-2.023437 -0.0117,-3.035156 -0.77734,-0.386719 -1.63281,-0.269531 -2.48437,-0.269531 -0.19532,0 -0.39453,0 -0.60157,0 -0.41796,0 -0.83984,0 -1.26171,0.0039 -0.64454,0 -1.28907,0 -1.9336,-0.0039 -0.40625,0 -0.8164,0 -1.22265,0 -0.19532,0 -0.38672,0 -0.58594,0 -0.98047,-0.01953 -0.98047,-0.01953 -1.89453,0.269531 z m 0,13.8125 c -0.0273,0.683593 -0.0352,1.359375 -0.0352,2.042969 0,0.207031 0,0.414062 0,0.625 0,0.433593 0,0.867187 0.004,1.304687 0,0.667969 0,1.332031 -0.004,2 0,0.421875 0,0.84375 0,1.265625 0,0.199219 0,0.402344 0,0.609375 -0.0859,0.910156 -0.0859,0.910156 0.26953,1.675781 0.70313,0.02344 1.39453,0.03125 2.09766,0.03125 0.21094,0 0.41797,0 0.63672,0 0.44531,0 0.89062,0 1.33593,0 0.6836,-0.0039 1.36719,0 2.05079,0 0.43359,0 0.86328,0 1.29296,0 0.3125,0 0.3125,0 0.625,0 0.92969,0.08984 0.92969,0.08984 1.71094,-0.269531 0.0195,-0.6875 0.0273,-1.367187 0.0234,-2.054687 0,-0.207032 -0.004,-0.410157 -0.004,-0.625 0,-0.660157 -0.004,-1.320313 -0.008,-1.980469 0,-0.445313 0,-0.890625 0,-1.335938 -0.004,-1.097656 -0.008,-2.195312 -0.0117,-3.289062 -0.79297,-0.398438 -1.67578,-0.273438 -2.54297,-0.269531 -0.20312,0 -0.41015,0 -0.62109,-0.0039 -0.42969,0 -0.86328,0.0039 -1.29688,0.0039 -0.66406,0 -1.32812,0 -1.99218,-0.0039 -0.42188,0 -0.83985,0 -1.26172,0.0039 -0.19922,-0.0039 -0.39844,-0.0039 -0.60547,-0.0039 -0.90625,-0.08594 -0.90625,-0.08594 -1.66406,0.273438 z m 0,0"
       id="path206" /><path
       style="fill:#fdfdfd;fill-opacity:1;fill-rule:nonzero;stroke:none"
       d="m 106.20703,52.492188 c 0.35547,-0.0039 0.35547,-0.0039 0.71875,-0.0078 0.78906,-0.0039 1.57813,-0.0039 2.36719,0 0.54687,0 1.09375,-0.0039 1.64453,-0.0039 1.14844,-0.0039 2.30078,-0.0039 3.45313,0 1.46875,0.0039 2.9414,0 4.41406,-0.0078 1.13281,-0.0078 2.26562,-0.0039 3.39844,-0.0039 0.54296,0 1.08593,0 1.6289,-0.0039 0.75781,-0.0039 1.51953,0 2.28125,0.0039 0.22266,-0.0039 0.44531,-0.0039 0.67188,-0.0078 1.75781,0.02344 3.12109,0.546874 4.41015,1.765624 1.47656,1.578126 1.82813,3.15625 1.8125,5.28125 -0.0586,1.722657 -0.53515,3.003907 -1.71094,4.261719 -0.75,0.675781 -1.55859,1.222657 -2.44531,1.707031 0.1211,0.06641 0.24219,0.132813 0.36719,0.203126 1.82812,1.066406 2.97266,2.285156 3.67187,4.320312 0.54297,2.316406 0.23047,4.382812 -0.875,6.472656 -1.51953,1.851563 -3.00781,2.851563 -5.42968,3.117188 -0.62891,0.02734 -1.25,0.03125 -1.87891,0.02734 -0.23437,0 -0.47265,0 -0.71484,0.0039 -0.76953,0.0039 -1.53906,0 -2.3086,-0.0039 -0.53906,0.0039 -1.07421,0.0039 -1.61328,0.0039 -1.125,0 -2.24609,0 -3.37109,-0.0039 -1.44141,-0.0039 -2.87891,-0.0039 -4.32031,0.0039 -1.10938,0 -2.21875,0 -3.32813,0 -0.53125,-0.0039 -1.0625,0 -1.59375,0 -0.74219,0 -1.48047,0 -2.22265,-0.0039 -0.21875,0 -0.4375,0 -0.66407,0.0039 -0.83203,-0.0078 -1.47656,-0.03125 -2.24609,-0.351563 -0.51172,-0.699219 -0.44531,-1.382812 -0.41016,-2.214843 0.004,-0.179688 0.008,-0.359376 0.0117,-0.542969 0.0156,-0.582031 0.0352,-1.164063 0.0625,-1.75 0.0117,-0.289063 0.0117,-0.289063 0.0195,-0.585938 0.0586,-1.472656 0.13282,-2.941406 0.21485,-4.410156 0.0234,-0.46875 0.0508,-0.933594 0.0742,-1.402344 0.0508,-0.96875 0.10546,-1.9375 0.16015,-2.90625 0.0664,-1.242187 0.13281,-2.484375 0.19531,-3.726562 0.0508,-0.960938 0.10157,-1.921875 0.15625,-2.882813 0.0234,-0.457031 0.0508,-0.917968 0.0703,-1.375 0.0352,-0.636718 0.0703,-1.273437 0.10547,-1.914062 0.0117,-0.1875 0.0195,-0.375 0.0273,-0.570313 0.0469,-0.710937 0.13672,-1.339843 0.38672,-2.007812 0.84375,-0.621094 1.78906,-0.496094 2.80859,-0.488281 z m 4.33985,5.363281 c -0.0391,0.425781 -0.0625,0.851562 -0.0781,1.273437 -0.008,0.257813 -0.0195,0.515625 -0.0273,0.78125 -0.0117,0.269532 -0.0195,0.539063 -0.0312,0.820313 -0.008,0.269531 -0.0195,0.542969 -0.0312,0.820312 -0.0234,0.675781 -0.0469,1.347657 -0.0703,2.019531 1.80079,0.02344 3.60547,0.04297 5.40625,0.05469 0.61329,0.0039 1.22657,0.01172 1.83985,0.01953 0.8789,0.01172 1.76172,0.01563 2.64453,0.01953 0.41016,0.0078 0.41016,0.0078 0.82812,0.01563 1.49219,0 2.42188,-0.03125 3.54297,-1.0625 0.57032,-0.808594 0.77344,-1.417969 0.71485,-2.394532 -0.17578,-1.003906 -0.625,-1.492187 -1.42578,-2.128906 -0.7461,-0.449219 -1.30079,-0.535156 -2.16797,-0.53125 -0.36328,-0.0039 -0.36328,-0.0039 -0.73438,-0.0039 -0.25781,0.0039 -0.51953,0.0039 -0.78515,0.0039 -0.26954,0 -0.53516,0 -0.8086,0.0039 -0.5664,0 -1.1289,0 -1.69531,0.0039 -0.86719,0.0039 -1.73438,0.0039 -2.60156,0.0039 -0.54688,0 -1.09375,0.0039 -1.64063,0.0039 -0.39062,0 -0.39062,0 -0.79297,0 -0.23828,0.0039 -0.47656,0.0039 -0.72265,0.0078 -0.32032,0 -0.32032,0 -0.64453,0 -0.48047,-0.01953 -0.48047,-0.01953 -0.71875,0.269531 z m -0.47657,10.476562 c -0.15234,1.488281 -0.26562,2.953125 -0.2539,4.449219 0.004,0.289062 0.004,0.574219 0.008,0.867188 0.004,0.210937 0.004,0.421874 0.008,0.636718 1.80078,0.02344 3.60547,0.04297 5.40625,0.05469 0.61328,0.0039 1.22656,0.0078 1.83985,0.01953 0.88281,0.0078 1.76171,0.01563 2.64453,0.01953 0.41015,0.0078 0.41015,0.0078 0.82812,0.01563 1.48828,0 2.42578,-0.03516 3.54688,-1.0625 0.42968,-0.675781 0.61718,-1.34375 0.71093,-2.140625 -0.32812,-1.253906 -0.82031,-1.917968 -1.90234,-2.621094 -0.70703,-0.234374 -1.16797,-0.265624 -1.90625,-0.265624 -0.24219,0 -0.48437,0 -0.73437,0 -0.39454,0.0039 -0.39454,0.0039 -0.79297,0.0039 -0.26953,0 -0.53516,0.0039 -0.8125,0.0039 -0.85547,0 -1.71485,0.0039 -2.57422,0.0078 -0.57813,0 -1.16016,0 -1.74219,0 -1.42187,0.0039 -2.84766,0.0078 -4.27344,0.01172 z m 0,0"
       id="path208" /><path
       style="fill:#fdfdfd;fill-opacity:1;fill-rule:nonzero;stroke:none"
       d="m 262.51562,52.589844 c 0.19532,0 0.39454,0 0.59766,-0.0039 10.85938,-0.02734 10.85938,-0.02734 14.89844,3.78125 1.03906,1.117187 1.74609,2.207031 2.27344,3.632812 0.0781,0.199219 0.15234,0.402344 0.23046,0.609375 1.22657,3.976563 0.75,8.753906 -1.10546,12.457031 -1.73438,2.890625 -3.95313,4.769532 -7.22266,5.613282 -1.94141,0.359374 -3.84766,0.402343 -5.81641,0.398437 -0.28515,0 -0.57031,0 -0.86328,0 -0.60156,0.0039 -1.20312,0 -1.80859,0 -0.90235,0 -1.80469,0 -2.70703,0.0039 -3.5586,0 -7.10547,-0.07813 -10.66016,-0.273437 0.14844,-5.074219 0.33203,-10.148438 0.54688,-15.222656 0.0391,-0.933594 0.0781,-1.867188 0.11718,-2.800782 0.0312,-0.730468 0.0625,-1.464844 0.0937,-2.195312 0.0156,-0.347656 0.0312,-0.691406 0.043,-1.035156 0.0195,-0.476563 0.043,-0.957032 0.0625,-1.433594 0.0117,-0.269532 0.0234,-0.539063 0.0352,-0.816406 0.0547,-0.824219 0.16406,-1.632813 0.28906,-2.449219 3.66797,-0.1875 7.32813,-0.261719 10.99609,-0.265625 z m -4.57421,5.265625 c -0.0391,0.375 -0.0586,0.753906 -0.0703,1.128906 -0.0117,0.242187 -0.0195,0.484375 -0.0312,0.730469 -0.008,0.265625 -0.0195,0.527344 -0.0273,0.800781 -0.0117,0.269531 -0.0195,0.542969 -0.0312,0.820313 -0.0195,0.578124 -0.043,1.15625 -0.0625,1.734374 -0.0312,0.871094 -0.0625,1.746094 -0.0977,2.617188 -0.10156,2.789062 -0.19531,5.570312 -0.15625,8.359375 1.23438,0.01953 2.46875,0.03125 3.70313,0.03906 0.41797,0.0039 0.83594,0.0078 1.2539,0.01562 4.8086,0.09375 4.8086,0.09375 8.97657,-2.058593 1.94531,-2.027344 2.13281,-4.445313 2.10547,-7.128907 -0.0703,-2.207031 -0.56641,-3.882812 -2.10157,-5.519531 -1.79687,-1.621093 -4.03515,-1.851562 -6.36718,-1.832031 -0.29688,0 -0.29688,0 -0.59766,0.0039 -0.41016,0 -0.82422,0 -1.23438,0.0039 -0.63281,0.0039 -1.26562,0.0039 -1.89843,0.0039 -0.40235,0 -0.80078,0.0039 -1.20313,0.0039 -0.1875,0 -0.3789,0 -0.57422,0 -0.86328,-0.07031 -0.86328,-0.07031 -1.58593,0.277344 z m 0,0"
       id="path210" /><path
       style="fill:#fdfdfd;fill-opacity:1;fill-rule:nonzero;stroke:none"
       d="m 150.48437,8.539062 c 0.30079,-0.00391 0.60547,-0.00391 0.91797,-0.00391 0.33985,0 0.67578,0 1.01563,-0.00391 0.35547,0 0.71094,0 1.0664,0 0.96485,-0.00391 1.92969,-0.00781 2.89454,-0.00781 0.60546,0 1.20703,0 1.80859,-0.00391 1.88672,0 3.76953,-0.00391 5.65625,-0.00391 2.17578,-0.00391 4.35547,-0.00781 6.53516,-0.011719 1.67968,-0.00781 3.36328,-0.00781 5.04687,-0.00781 1.00391,0 2.00781,-0.00391 3.01563,-0.00781 0.94531,-0.00391 1.89062,-0.00391 2.83593,-0.00391 0.34766,0.00391 0.69532,0 1.04297,0 0.47266,-0.00391 0.94531,-0.00391 1.41797,0 0.26563,0 0.53125,0 0.80469,0 0.65234,0.085937 0.65234,0.085937 1.08203,0.417969 0.62109,0.84375 0.60547,1.492187 0.51953,2.527344 -0.38672,0.640624 -0.38672,0.640624 -0.94922,1.1875 -0.67578,0.144531 -0.67578,0.144531 -1.46094,0.136718 -0.29687,0 -0.58984,0 -0.89453,0 -0.32031,-0.0078 -0.64062,-0.01172 -0.96484,-0.01953 -0.32813,0 -0.65625,-0.0039 -0.98438,-0.0039 -0.86718,-0.0039 -1.73046,-0.01563 -2.59375,-0.03125 -0.88281,-0.01172 -1.76562,-0.01563 -2.64843,-0.02344 -1.73047,-0.01172 -3.46485,-0.03125 -5.19532,-0.05859 0,0.316406 0,0.628906 0,0.953124 0.20704,0 0.41016,0 0.61719,-0.0039 1.92188,-0.0078 3.84375,-0.01563 5.76172,-0.01953 0.98828,-0.0039 1.97656,-0.0078 2.96484,-0.01172 0.95313,-0.0039 1.90235,-0.0078 2.85547,-0.0078 0.36328,-0.0039 0.73047,-0.0039 1.09375,-0.0078 0.50782,0 1.01563,-0.0039 1.52344,-0.0039 0.29297,0 0.58203,0 0.87891,0 0.71093,0.05469 0.71093,0.05469 1.42187,0.53125 0.28906,0.867187 0.28125,1.671875 0.28516,2.574219 0.004,0.183594 0.004,0.363281 0.004,0.550781 0.004,0.382813 0.004,0.769531 0.008,1.152344 0,0.585937 0.008,1.171875 0.0156,1.761719 0,0.371093 0.004,0.746093 0.004,1.117187 0.004,0.265625 0.004,0.265625 0.008,0.53125 -0.004,0.730469 -0.0508,1.285156 -0.36719,1.949219 -0.58984,0.5 -0.96484,0.484375 -1.73437,0.480468 -0.25,0 -0.50391,0.0039 -0.76563,0.0039 -0.26172,-0.0078 -0.52734,-0.01172 -0.80078,-0.01563 -0.26172,0 -0.52734,0.0039 -0.80078,0.0039 -1.46094,-0.01172 -1.46094,-0.01172 -2.03516,-0.109375 -0.55468,-0.832031 -0.53125,-1.15625 -0.52343,-2.136719 0.004,-0.25 0.004,-0.5 0.004,-0.757812 0.004,-0.316406 0.008,-0.632813 0.0156,-0.957032 0.008,-1.007812 0.0195,-2.015624 0.0273,-3.050781 -3.45312,0 -6.90234,0 -10.46094,0 0.0195,2.148438 0.0195,2.148438 0.043,4.300781 0.004,0.269532 0.004,0.535157 0.004,0.8125 0.004,0.273438 0.004,0.550782 0.008,0.832032 -0.0508,0.703125 -0.14062,1.09375 -0.52734,1.671875 -0.92188,0.460937 -2.0625,0.292969 -3.07813,0.296875 -0.24218,0.0039 -0.48047,0.01172 -0.73047,0.01563 -0.23046,0 -0.46484,0.0039 -0.70312,0.0039 -0.21094,0.0039 -0.42188,0.0039 -0.64063,0.0078 C 164.27344,25 164.27344,25 163.84766,24.738281 c -0.4375,-0.691406 -0.36719,-1.273437 -0.35547,-2.085937 0,-0.289063 0,-0.574219 0.004,-0.871094 0.008,-0.367188 0.0117,-0.734375 0.0195,-1.113281 0.0156,-1.164063 0.0273,-2.324219 0.043,-3.523438 -3.44922,0 -6.90234,0 -10.45703,0 0.0273,2.003907 0.0273,2.003907 0.0625,4.007813 0,0.25 0.004,0.5 0.004,0.757812 0.004,0.253906 0.008,0.511719 0.0117,0.773438 -0.0781,0.648437 -0.0781,0.648437 -0.36328,1.089844 -0.57813,0.371093 -0.98438,0.367187 -1.67188,0.367187 -0.23828,0.0039 -0.48047,0.0039 -0.73047,0.0039 -0.25,-0.0039 -0.5039,-0.0039 -0.76172,-0.0078 -0.25,0.0039 -0.5039,0.0039 -0.76172,0.0078 -0.36328,0 -0.36328,0 -0.73046,-0.0039 -0.22266,0 -0.44141,0 -0.66797,0 -0.57422,-0.09375 -0.57422,-0.09375 -1,-0.332031 -0.46094,-0.765625 -0.38672,-1.574219 -0.38282,-2.4375 0,-0.195313 0,-0.386719 0,-0.582032 0,-0.40625 0,-0.816406 0.004,-1.222656 0.004,-0.621094 0,-1.242187 -0.004,-1.863281 0,-0.394531 0,-0.789063 0,-1.183594 0,-0.1875 0,-0.371093 -0.004,-0.5625 0.0117,-0.722656 0.0391,-1.308593 0.36328,-1.960937 0.66406,-0.625 1.15625,-0.539063 2.05859,-0.53125 0.16407,0 0.32422,0 0.49219,-0.0039 0.53516,0.0039 1.07422,0.01172 1.60938,0.01562 0.37109,0.0039 0.74218,0.0039 1.11718,0.0078 0.97657,0 1.95703,0.01172 2.9375,0.02344 0.9961,0.0078 1.9961,0.01172 2.9961,0.01563 1.96093,0.01172 3.92187,0.02734 5.8789,0.04687 0,-0.3125 0,-0.628906 0,-0.953124 -0.17968,0.0039 -0.35937,0.0078 -0.54297,0.01172 -1.6914,0.02344 -3.38671,0.03906 -5.07812,0.05078 -0.87109,0.0078 -1.74219,0.01562 -2.61328,0.02734 -0.83985,0.01563 -1.67969,0.02344 -2.51953,0.02344 -0.47657,0.0039 -0.95313,0.01563 -1.42578,0.02344 -0.29297,0 -0.58204,0 -0.88282,0 -0.2539,0.0039 -0.50781,0.0039 -0.77343,0.0078 -0.66407,-0.144531 -0.66407,-0.144531 -1.22266,-0.691407 -0.50781,-0.832031 -0.49609,-1.351562 -0.39063,-2.308593 0.46875,-1.277344 1.10157,-1.21875 2.375,-1.222657 z m 0,0"
       id="path212" /><path
       style="fill:#fafafa;fill-opacity:1;fill-rule:nonzero;stroke:none"
       d="m 226.94922,52.589844 c 0.19922,-0.0039 0.39844,-0.0039 0.60156,-0.0039 0.65234,0 1.30469,0 1.95313,0 0.45703,0 0.91015,0 1.36328,0 0.94922,0 1.89843,0 2.84765,0.0039 1.21875,0 2.4375,0 3.65625,-0.0039 0.9375,0 1.875,0 2.8086,0 0.44922,0 0.89843,0 1.34765,0 0.62891,0 1.25391,0 1.88282,0.0039 0.18359,-0.0039 0.37109,-0.0039 0.5625,-0.0039 0.75781,0.0039 1.35546,0.03125 2.08203,0.269531 0.25,0.757812 0.27734,1.320312 0.28125,2.113281 0.004,0.246094 0.008,0.492188 0.0117,0.742188 -0.14063,1.792968 -1.15625,2.675781 -2.4336,3.8125 -1.61328,1.339843 -3.28125,2.597656 -4.99219,3.808593 0.14063,0.03516 0.28125,0.07031 0.42579,0.105469 2.33593,0.632812 4.67187,1.574219 5.99218,3.707031 1.03516,1.804688 1.2461,3.660157 0.95313,5.710938 -0.86328,2.59375 -2.30469,4.191406 -4.69531,5.417969 -5.42188,2.636718 -12.19141,2.28125 -17.80079,0.371093 -0.75,-0.269531 -0.75,-0.269531 -1.51562,-0.550781 0,-1.570312 0,-3.140625 0,-4.761719 1.43359,0.234375 2.86328,0.476563 4.29297,0.753907 3.37109,0.652343 7.47265,1.4375 10.68359,-0.230469 0.75781,-0.554688 1.09766,-0.839844 1.42578,-1.710938 0.15235,-1.039062 0.13282,-1.859375 -0.3125,-2.8125 -1.82812,-1.492187 -4.0039,-1.605469 -6.26953,-1.535156 -0.39062,0.0078 -0.39062,0.0078 -0.78906,0.01563 -0.63281,0.0078 -1.26563,0.02344 -1.90234,0.04297 -0.41407,-2.996094 -0.41407,-2.996094 0.17968,-4.121094 0.33594,-0.304687 0.33594,-0.304687 0.77344,-0.640625 0.1875,-0.15625 0.375,-0.316406 0.57031,-0.480469 0.67188,-0.566406 1.35547,-1.113281 2.04297,-1.660156 0.47266,-0.382813 0.94141,-0.761719 1.41406,-1.148437 0.20704,-0.167969 0.41407,-0.335938 0.62891,-0.507813 0.53125,-0.453125 1.03125,-0.945313 1.52344,-1.441406 -4.47266,-0.07813 -8.94141,-0.15625 -13.55078,-0.238281 0,-2.410157 0,-2.410157 0.12109,-3.585938 0.0195,-0.222656 0.043,-0.445312 0.0664,-0.675781 0.0156,-0.164063 0.0352,-0.328125 0.0508,-0.5 1.25,-0.207031 2.45312,-0.269531 3.71875,-0.265625 z m 0,0"
       id="path214" /><path
       style="fill:#fdfdfd;fill-opacity:1;fill-rule:nonzero;stroke:none"
       d="m 216.74609,61.324219 c 1.78907,1.902343 1.83985,4.132812 1.83203,6.632812 0.004,0.300781 0.004,0.605469 0.004,0.914063 0.004,0.632812 0.004,1.265625 0,1.898437 -0.004,0.8125 0.004,1.621094 0.008,2.433594 0.008,0.777344 0.004,1.554687 0.004,2.328125 0.004,0.292969 0.004,0.582031 0.008,0.882812 -0.004,0.402344 -0.004,0.402344 -0.008,0.816407 0,0.234375 0,0.472656 0,0.714843 -0.15234,0.800782 -0.4375,1.082032 -1.07031,1.578126 -0.66016,0.125 -0.66016,0.125 -1.41016,0.125 -0.26953,0.0039 -0.54297,0.0039 -0.82031,0.0039 -0.28516,-0.0039 -0.56641,-0.0039 -0.85938,-0.0078 -0.28125,0.0039 -0.5625,0.0039 -0.85547,0.0078 -0.40625,0 -0.40625,0 -0.82031,-0.0039 -0.25,0 -0.49609,0 -0.7539,0 -0.66016,-0.125 -0.66016,-0.125 -1.21485,-0.453126 -0.6289,-0.992187 -0.52344,-1.972656 -0.51562,-3.121093 -0.004,-0.246094 -0.004,-0.492188 -0.008,-0.742188 -0.004,-0.78125 -0.008,-1.558593 -0.008,-2.339843 0,-0.78125 0,-1.558594 -0.008,-2.339844 -0.004,-0.484375 -0.004,-0.96875 0,-1.453125 -0.0117,-1.21875 -0.0508,-2.003907 -0.80859,-3.007813 0,-0.15625 0,-0.316406 0,-0.476562 -1.94141,-1.007813 -3.89454,-1.382813 -6.06641,-0.789063 -1.32813,0.609375 -2.21484,1.511719 -2.75,2.886719 -0.37891,1.414062 -0.32031,2.90625 -0.35156,4.359375 -0.0273,1.179687 -0.0625,2.363281 -0.10157,3.542969 -0.008,0.292968 -0.0195,0.585937 -0.0273,0.886718 -0.0117,0.277344 -0.0273,0.550782 -0.0391,0.835938 -0.0156,0.371094 -0.0156,0.371094 -0.0312,0.75 -0.14063,0.621094 -0.14063,0.621094 -0.53516,1.058594 -0.71094,0.355468 -1.23437,0.371094 -2.02734,0.371094 -0.42578,0.0039 -0.42578,0.0039 -0.85938,0.0039 -0.29687,-0.0039 -0.58984,-0.0039 -0.89453,-0.0078 -0.44531,0.0039 -0.44531,0.0039 -0.89453,0.0078 -0.28516,0 -0.56641,0 -0.85937,-0.0039 -0.25782,0 -0.51954,0 -0.78516,0 -0.65625,-0.09375 -0.65625,-0.09375 -1.05078,-0.375 -0.4375,-0.59375 -0.39453,-0.980469 -0.3711,-1.710938 0.008,-0.257812 0.0117,-0.511719 0.0195,-0.777344 0.0156,-0.394531 0.0156,-0.394531 0.0352,-0.800781 0.008,-0.25 0.0195,-0.496094 0.0273,-0.753906 0.0352,-0.785157 0.0742,-1.566407 0.11718,-2.351563 0.0156,-0.285156 0.0312,-0.570312 0.0469,-0.863281 0.0352,-0.601563 0.0664,-1.199219 0.0977,-1.800781 0.0508,-0.910156 0.10157,-1.824219 0.14844,-2.734375 0.0312,-0.585938 0.0625,-1.171875 0.0937,-1.757813 0.0156,-0.269531 0.0312,-0.539062 0.0469,-0.816406 0.0273,-0.507812 0.0547,-1.019531 0.0898,-1.527344 0.0273,-0.492187 0.0547,-0.984375 0.0742,-1.476562 0.0195,-0.351563 0.0195,-0.351563 0.0391,-0.707032 0.0156,-0.3125 0.0156,-0.3125 0.0312,-0.628906 C 192.80078,60 192.80078,60 193.24609,59.574219 c 0.65235,-0.375 1.11328,-0.378907 1.86719,-0.382813 0.25781,0 0.51953,-0.0039 0.78906,-0.0039 0.26953,0.0039 0.54297,0.0078 0.82032,0.0078 0.40625,-0.0039 0.40625,-0.0039 0.82421,-0.0078 0.25782,0 0.51954,0.0039 0.78907,0.0039 0.23828,0 0.47656,0 0.72265,0 0.73047,0.109375 1.05469,0.300782 1.58594,0.808594 0.17969,0.519531 0.17969,0.519531 0.23828,0.953125 0.14063,-0.07813 0.27735,-0.15625 0.42188,-0.234375 4.53515,-2.421875 11.37109,-3.089844 15.4414,0.605469 z m 0,0"
       id="path216" /><path
       style="fill:#fafafa;fill-opacity:1;fill-rule:nonzero;stroke:none"
       d="m 160.20312,61.472656 c 1.88282,1.601563 3.17188,3.640625 3.39844,6.128906 0.20313,3.132813 -0.24219,5.578126 -2.33984,8.027344 -3.23438,3.273438 -7.22656,4.429688 -11.69922,4.460938 -3.98047,-0.03125 -8.07031,-0.632813 -11.09375,-3.503906 -1.98438,-2.265626 -2.82422,-4.761719 -2.78906,-7.757813 0.19922,-2.214844 0.95312,-4.097656 2.4414,-5.734375 0.11719,-0.140625 0.23047,-0.28125 0.34766,-0.425781 4.71875,-5.394531 16.20703,-5.15625 21.73437,-1.195313 z m -15.32031,4.078125 c -1.08594,1.285157 -1.59765,2.765625 -1.53125,4.449219 0.27344,1.683594 1.10938,2.933594 2.37891,4.046875 1.67969,1.070313 3.2539,1.378906 5.23047,1.191406 1.68359,-0.445312 3.16015,-1.183593 4.15234,-2.664062 0.79297,-1.414063 1.08203,-2.628907 0.83984,-4.242188 -0.46484,-1.589843 -1.47656,-2.972656 -2.86718,-3.894531 -2.7461,-1.433594 -5.92969,-1.070312 -8.20313,1.113281 z m 0,0"
       id="path218" /><path
       style="fill:#fdfdfd;fill-opacity:1;fill-rule:nonzero;stroke:none"
       d="m 102.37109,19.9375 c 0.27735,0 0.5586,-0.0039 0.84375,-0.0039 0.45704,0 0.45704,0 0.91797,0.0039 0.3125,0 0.6211,0 0.94141,-0.0039 0.65234,0 1.30859,0.0039 1.96484,0.0039 0.83985,0.0039 1.6836,0 2.52344,0 0.80078,-0.0039 1.60156,0 2.40234,0 0.30079,0 0.60547,-0.0039 0.91797,-0.0039 0.27735,0 0.5586,0.0039 0.84766,0.0039 0.24609,0 0.49219,0 0.74609,0.0039 0.58594,0.05859 0.58594,0.05859 1.0625,0.535156 0.0469,0.644532 0.0664,1.261719 0.0586,1.90625 0.004,0.261719 0.004,0.261719 0.004,0.53125 -0.004,1.3125 -0.004,1.3125 -0.53906,1.847657 -0.44531,0.05469 -0.44531,0.05469 -0.98047,0.04687 -0.19531,0 -0.38672,-0.0039 -0.58203,-0.0039 -0.19922,-0.0039 -0.40234,-0.0078 -0.60547,-0.01172 -0.30469,-0.0039 -0.30469,-0.0039 -0.61328,-0.0078 -0.5,-0.0039 -1,-0.01563 -1.49609,-0.02344 0,1.335937 0,2.671875 0,4.046875 0.5039,-0.01172 0.5039,-0.01172 1.02343,-0.02344 0.44141,-0.0078 0.88282,-0.01563 1.32422,-0.01953 0.33203,-0.0078 0.33203,-0.0078 0.67188,-0.01953 0.32031,-0.0039 0.32031,-0.0039 0.64844,-0.0078 0.19531,-0.0039 0.39062,-0.0078 0.59375,-0.01172 0.24218,0.04297 0.24218,0.04297 0.49218,0.08203 0.57032,0.863281 0.55469,1.507812 0.54688,2.5 0.004,0.160156 0.008,0.324218 0.0117,0.488281 0.004,1.179687 0.004,1.179687 -0.37891,1.703125 -0.53125,0.394531 -0.82031,0.390625 -1.47656,0.378906 -0.27344,-0.0039 -0.27344,-0.0039 -0.55078,-0.0039 -0.34375,-0.01172 -0.34375,-0.01172 -0.69532,-0.01953 -1.09375,-0.02344 -1.09375,-0.02344 -2.21093,-0.04687 0.0781,1.730468 0.15625,3.457031 0.23437,5.238281 0.53125,-0.160156 1.0625,-0.324219 1.60547,-0.492187 1.86328,-0.566407 1.86328,-0.566407 2.67578,-0.222657 0.23828,0.238281 0.23828,0.238281 0.26563,0.683594 -0.004,0.28125 -0.004,0.28125 -0.004,0.570313 -0.004,0.304687 -0.004,0.304687 -0.004,0.613281 -0.004,0.320312 -0.004,0.320312 -0.004,0.648437 -0.004,0.214844 -0.004,0.429688 -0.004,0.652344 -0.004,0.53125 -0.008,1.0625 -0.0117,1.59375 -1.67968,0.800781 -3.39062,1.390625 -5.16797,1.941406 -0.46484,0.144532 -0.92968,0.292969 -1.39453,0.441406 -0.29687,0.08984 -0.59375,0.183594 -0.89843,0.277344 -0.40235,0.125 -0.40235,0.125 -0.8125,0.253906 -0.96485,0.230469 -1.80079,0.328126 -2.73829,-0.02734 -0.40234,-0.265625 -0.40234,-0.265625 -0.63671,-0.742188 -0.0234,-0.367187 -0.0312,-0.734375 -0.0273,-1.101562 0,-0.230469 0,-0.460938 0,-0.695313 0,-0.246094 0,-0.496094 0.004,-0.75 0,-0.253906 0,-0.503906 0,-0.765625 0,-0.8125 0.004,-1.621093 0.008,-2.433593 0,-0.546876 0,-1.09375 0.004,-1.644532 0,-1.34375 0.004,-2.691406 0.0117,-4.039062 -0.25,0.0078 -0.5,0.01172 -0.75782,0.01953 -0.32812,0.0039 -0.65234,0.0078 -0.98047,0.01172 -0.16406,0.0039 -0.32812,0.0078 -0.5,0.01172 -0.89453,0.0078 -1.27734,-0.0078 -2.042965,-0.519531 -0.06641,-0.691406 -0.08594,-1.328125 -0.07422,-2.023437 0,-0.1875 0,-0.371094 0,-0.566406 0.01172,-1.394532 0.01172,-1.394532 0.550785,-1.933594 0.65234,-0.03516 1.27734,-0.04297 1.92969,-0.02734 0.62109,0.0078 1.23828,0.01953 1.875,0.02734 0,-1.335938 0,-2.671875 0,-4.046875 -0.69141,0.01563 -0.69141,0.01563 -1.39844,0.03125 -0.78516,0.01563 -0.78516,0.01563 -1.45703,-0.03125 -0.60547,-0.609375 -0.53516,-1.015625 -0.53907,-1.847657 0,-0.175781 0.004,-0.351562 0.004,-0.53125 0,-0.175781 -0.004,-0.351562 -0.004,-0.535156 0.004,-1.609375 0.30079,-1.90625 1.875,-1.910156 z m 0,0"
       id="path220" /><path
       style="fill:#fdfdfd;fill-opacity:1;fill-rule:nonzero;stroke:none"
       d="m 176.85937,25.417969 c 0.39454,-0.0078 0.39454,-0.0078 0.80079,-0.01563 0.25,0 0.5039,-0.0039 0.76562,-0.0039 0.23047,-0.0039 0.46484,-0.0039 0.70313,-0.0078 0.59765,0.08594 0.59765,0.08594 1.02343,0.398437 0.41016,0.578126 0.44922,1.136719 0.52344,1.828126 0.17188,0.0039 0.33984,0.0078 0.51172,0.0078 0.76562,0.01172 1.53125,0.03516 2.29687,0.05469 0.26563,0.0039 0.53125,0.0039 0.8086,0.0078 0.38281,0.01172 0.38281,0.01172 0.77344,0.02344 0.35156,0.0078 0.35156,0.0078 0.71093,0.01562 0.60547,0.128907 0.60547,0.128907 1.03516,0.582032 0.33594,0.59375 0.39453,0.992187 0.40234,1.675781 0.008,0.199219 0.0156,0.398437 0.0234,0.601563 -0.22266,0.945312 -0.53125,1.246093 -1.33203,1.796874 -0.94141,0.140626 -1.85938,0.109376 -2.80859,0.07422 -0.25391,-0.0078 -0.51172,-0.01172 -0.77344,-0.01953 -0.62891,-0.01172 -1.25781,-0.03125 -1.88672,-0.05469 0.12109,0.46875 0.12109,0.46875 0.23828,0.949219 0.0781,-0.07813 0.15625,-0.15625 0.23828,-0.238281 0.62891,-0.04687 1.24219,-0.07422 1.8711,-0.08594 0.17578,-0.01172 0.35156,-0.01953 0.53125,-0.02734 0.50781,-0.01172 0.50781,-0.01172 1.40234,0.113281 0.875,1.039062 1.01172,2.382812 1.25781,3.679688 0.0469,0.238281 0.0937,0.480468 0.14453,0.726562 0.0977,0.503906 0.19532,1.011719 0.29297,1.515625 0.14844,0.777344 0.30078,1.550781 0.45313,2.324219 0.0937,0.492187 0.1875,0.984375 0.28515,1.472656 0.043,0.234375 0.0898,0.464844 0.13672,0.707031 0.043,0.214844 0.082,0.429688 0.125,0.652344 0.0352,0.1875 0.0703,0.378906 0.10938,0.574219 0.0469,0.492187 0.0469,0.492187 -0.19141,1.207031 -0.74609,0.375 -1.53906,0.3125 -2.35937,0.328125 -0.17579,0.0078 -0.34766,0.01563 -0.52735,0.02734 -0.50781,0.0078 -0.50781,0.0078 -1.39062,-0.117188 -0.8086,-0.988281 -0.94532,-2.117187 -1.14844,-3.339844 -0.0352,-0.203124 -0.0703,-0.40625 -0.10938,-0.617187 -0.11328,-0.652344 -0.22265,-1.300781 -0.33203,-1.953125 -0.0781,-0.441406 -0.15234,-0.882812 -0.23047,-1.324219 -0.1875,-1.082031 -0.375,-2.160156 -0.55859,-3.242187 -0.004,0.25 -0.008,0.5 -0.0117,0.761718 -0.0195,0.933594 -0.0391,1.871094 -0.0625,2.808594 -0.008,0.402344 -0.0156,0.808594 -0.0234,1.210938 -0.0117,0.585937 -0.0273,1.167968 -0.0391,1.75 -0.004,0.269531 -0.004,0.269531 -0.0117,0.542968 -0.0352,1.300782 -0.0781,2.675782 -1.03906,3.640626 -0.86328,0.113281 -1.73047,0.08594 -2.60156,0.08984 -0.23828,0.0039 -0.48047,0.01172 -0.73047,0.01563 -0.23047,0 -0.46094,0.0039 -0.70313,0.0039 -0.3164,0.0039 -0.3164,0.0039 -0.64062,0.0039 -0.55469,-0.113281 -0.55469,-0.113281 -0.9375,-0.515625 -0.40234,-0.667969 -0.42578,-1.085938 -0.43359,-1.863282 -0.004,-0.261718 -0.008,-0.523437 -0.0117,-0.792968 -0.004,-0.28125 -0.004,-0.5625 -0.008,-0.851563 -0.004,-0.433593 -0.004,-0.433593 -0.0117,-0.878906 -0.0117,-0.921875 -0.0195,-1.847656 -0.0273,-2.773437 -0.008,-0.625 -0.0156,-1.25 -0.0273,-1.878907 -0.0195,-1.535156 -0.0352,-3.070312 -0.0469,-4.605469 -0.14843,0 -0.29297,0.0039 -0.4414,0.0078 -0.66016,0.01563 -1.32032,0.02734 -1.98047,0.03516 -0.23047,0.0039 -0.45703,0.01172 -0.69141,0.01953 -2.13672,0.01953 -2.13672,0.01953 -3.07031,-0.777343 -0.27344,-0.546875 -0.28516,-0.894531 -0.29688,-1.503907 -0.004,-0.179687 -0.0117,-0.363281 -0.0195,-0.546874 0.11328,-0.820313 0.20313,-1.15625 0.79297,-1.761719 0.91797,-0.179688 1.82813,-0.175781 2.76172,-0.175781 0.50391,-0.0078 1.00781,-0.01953 1.51172,-0.02734 0.22266,0 0.44531,-0.0039 0.67578,-0.0039 0.51172,0.02734 0.51172,0.02734 0.75781,-0.265626 0.0312,-0.277343 0.0664,-0.550781 0.10157,-0.835937 0.0469,-0.273437 0.0898,-0.550781 0.13281,-0.832031 0.98047,-0.488282 2.24219,-0.292969 3.3164,-0.296875 z m 0,0"
       id="path222" /><path
       style="fill:#fdfdfd;fill-opacity:1;fill-rule:nonzero;stroke:none"
       d="m 192.80078,40.476562 c 13.49219,0 26.98828,0 40.89063,0 0.40625,0.808594 0.28125,1.710938 0.28125,2.605469 0.004,0.195313 0.008,0.390625 0.008,0.59375 0.004,0.1875 0.004,0.378907 0.004,0.570313 0,0.175781 0,0.347656 0.004,0.523437 -0.0586,0.46875 -0.0586,0.46875 -0.53516,1.183594 -0.6875,0.08984 -0.6875,0.08984 -1.58984,0.08984 -0.16406,0 -0.32812,0 -0.5,0 -0.55469,0.0039 -1.10937,0 -1.66797,0 -0.39453,0 -0.79297,0 -1.1914,0 -1.08204,0.0039 -2.16407,0 -3.24219,-0.0039 -1.13281,0 -2.26172,0 -3.39063,0 -1.89843,0 -3.79687,-0.0039 -5.69531,-0.0078 -2.19531,-0.0039 -4.39062,-0.0039 -6.58984,-0.0039 -2.10938,0.0039 -4.21875,0 -6.32813,-0.0039 -0.89844,0 -1.80078,0 -2.69922,0 -1.05859,0 -2.11718,0 -3.17578,-0.0039 -0.38672,0 -0.77734,0 -1.16797,0 -0.52734,0 -1.05859,-0.0039 -1.58593,-0.0039 -0.44532,0 -0.44532,0 -0.90235,-0.0039 -0.6875,-0.05859 -0.6875,-0.05859 -1.16406,-0.535157 -0.0586,-0.460937 -0.0586,-0.460937 -0.0547,-1.019531 0,-0.199219 0,-0.402343 0.004,-0.609375 0,-0.207031 0.004,-0.417968 0.008,-0.632812 0,-0.210938 0,-0.417969 0,-0.636719 0.0117,-1.558594 0.0117,-1.558594 0.28125,-2.101563 z m 0,0"
       id="path224" /><path
       style="fill:#fdfdfd;fill-opacity:1;fill-rule:nonzero;stroke:none"
       d="m 171.62891,52.070312 c 0.23437,-0.0039 0.46875,-0.0078 0.71093,-0.01172 0.34375,-0.0039 0.34375,-0.0039 0.69141,-0.0039 0.20703,0 0.41406,0 0.625,0 0.76172,0.113281 1.17969,0.339843 1.78906,0.800781 0.14063,0.566406 0.14063,0.566406 0.12891,1.25 -0.004,0.261719 -0.004,0.523437 -0.008,0.789062 -0.008,0.289063 -0.0156,0.574219 -0.0234,0.871094 -0.008,0.304687 -0.0117,0.605469 -0.0156,0.917969 -0.0156,0.847656 -0.0391,1.691406 -0.0625,2.535156 -0.0195,0.550781 -0.0352,1.101562 -0.0508,1.648438 -0.0664,2.363281 -0.15234,4.722656 -0.24609,7.082031 -0.043,1.03125 -0.0781,2.058593 -0.11719,3.089843 -0.0273,0.804688 -0.0586,1.605469 -0.0937,2.410157 -0.0117,0.382812 -0.0273,0.761719 -0.043,1.140625 -0.0156,0.527344 -0.0391,1.054687 -0.0625,1.582031 -0.0117,0.296875 -0.0234,0.59375 -0.0352,0.902344 -0.082,0.757812 -0.20313,1.300781 -0.5586,1.972656 -1.10937,0.742187 -2.25,0.554687 -3.55078,0.550781 -0.26172,0.0039 -0.52344,0.0078 -0.78906,0.01172 -0.25391,0 -0.50391,0 -0.76172,0 -0.23047,0 -0.46094,0.0039 -0.69531,0.0039 -0.74219,-0.105469 -1.03125,-0.289062 -1.57422,-0.804687 -0.11328,-0.523438 -0.11328,-0.523438 -0.10156,-1.148438 0,-0.238281 0,-0.476562 0.004,-0.722656 0.004,-0.265625 0.0117,-0.53125 0.0195,-0.804688 0.004,-0.277343 0.008,-0.558593 0.0117,-0.847656 0.0156,-0.96875 0.0391,-1.9375 0.0664,-2.902344 0.008,-0.175781 0.0117,-0.351562 0.0156,-0.535156 0.0703,-2.53125 0.16407,-5.0625 0.26563,-7.589844 0.0391,-1.03125 0.0781,-2.0625 0.11719,-3.089843 0.0273,-0.804688 0.0586,-1.609375 0.0898,-2.410157 0.0156,-0.382812 0.0312,-0.761718 0.043,-1.140624 0.0195,-0.527344 0.043,-1.054688 0.0625,-1.582032 0.0117,-0.300781 0.0234,-0.597656 0.0352,-0.90625 0.0898,-0.886718 0.26954,-1.667968 0.5625,-2.511718 0.98829,-0.773438 2.35547,-0.550782 3.55079,-0.546876 z m 0,0"
       id="path226" /><path
       style="fill:#fdfdfd;fill-opacity:1;fill-rule:nonzero;stroke:none"
       d="m 194.94141,10 c 12.16015,0 24.32031,0 36.84765,0 0.42188,0.84375 0.28125,1.8125 0.28125,2.738281 0.004,0.210938 0.008,0.417969 0.0117,0.636719 0,0.199219 0,0.398438 0,0.605469 0,0.183593 0,0.367187 0.004,0.558593 -0.0586,0.460938 -0.0586,0.460938 -0.53516,0.9375 -0.625,0.05859 -0.625,0.05859 -1.43359,0.05859 -0.46094,0.0039 -0.46094,0.0039 -0.92969,0.0039 -0.33984,0 -0.67969,0 -1.01953,0 -0.35938,0 -0.71875,0 -1.07422,0 -0.97266,0.0039 -1.94531,0.0039 -2.91797,0 -1.01953,0 -2.03516,0 -3.05078,0 -1.70703,0.0039 -3.41406,0 -5.125,0 -1.97266,-0.0039 -3.94922,-0.0039 -5.92578,0 -1.69531,0.0039 -3.39063,0.0039 -5.08594,0 -1.01172,0 -2.02344,0 -3.03906,0.0039 -0.94922,0 -1.90235,0 -2.85547,-0.0039 -0.35156,0 -0.69922,0 -1.05078,0 -0.47656,0 -0.95313,0 -1.42969,-0.0039 -0.26562,0 -0.53516,0 -0.80859,0 -0.625,-0.05859 -0.625,-0.05859 -1.10157,-0.535156 -0.0586,-0.460938 -0.0586,-0.460938 -0.0547,-1.019531 0,-0.199219 0,-0.402344 0,-0.605469 0.004,-0.210938 0.008,-0.421875 0.0117,-0.636719 0,-0.210937 0,-0.417969 0,-0.636719 0.008,-1.558593 0.008,-1.558593 0.28125,-2.101562 z m 0,0"
       id="path228" /><path
       style="fill:#fdfdfd;fill-opacity:1;fill-rule:nonzero;stroke:none"
       d="m 156.29297,25.429688 c 0.28125,0 0.55859,-0.0039 0.84375,-0.0078 0.26562,0 0.53125,0 0.80469,0 0.24609,0 0.49218,-0.0039 0.74218,-0.0039 0.59766,0.05859 0.59766,0.05859 1.07422,0.535156 0.0937,0.550781 0.17578,1.109375 0.23438,1.664063 0.24609,0.0078 0.24609,0.0078 0.49218,0.01172 0.73438,0.01953 1.46485,0.04297 2.19922,0.06641 0.38282,0.0078 0.38282,0.0078 0.77344,0.01563 0.36328,0.01172 0.36328,0.01172 0.73828,0.02344 0.33985,0.01172 0.33985,0.01172 0.6836,0.01953 0.67578,0.121094 0.89843,0.265625 1.29687,0.816406 0.0859,0.671876 0.0859,0.671876 0.0742,1.429688 0,0.25 -0.004,0.5 -0.004,0.757812 -0.0703,0.671876 -0.0703,0.671876 -0.54687,1.386719 -0.67969,0.226563 -1.16797,0.28125 -1.875,0.3125 -0.22266,0.0078 -0.44531,0.01953 -0.67578,0.03125 -0.23047,0.0078 -0.46485,0.01563 -0.70313,0.02734 -0.23437,0.0078 -0.46875,0.01953 -0.71094,0.03125 -0.58203,0.02344 -1.16015,0.04687 -1.74218,0.07031 0,0.15625 -0.004,0.308593 -0.004,0.464843 -0.0195,1.585938 -0.043,3.175781 -0.0703,4.761719 -0.008,0.59375 -0.0156,1.183594 -0.0234,1.777344 -0.0117,0.851562 -0.0273,1.703125 -0.0391,2.554687 -0.004,0.398438 -0.004,0.398438 -0.008,0.800781 -0.008,0.25 -0.0117,0.496094 -0.0156,0.75 -0.004,0.21875 -0.008,0.4375 -0.008,0.660157 -0.0742,0.679687 -0.24219,1.191406 -0.54297,1.804687 -0.92578,0.460938 -2.05859,0.3125 -3.07422,0.328125 -0.24219,0.0078 -0.48437,0.01563 -0.73437,0.02344 -0.23047,0.0039 -0.46094,0.0078 -0.69922,0.01172 -0.21485,0.0039 -0.42578,0.0078 -0.64453,0.01172 -0.55469,-0.136718 -0.55469,-0.136718 -0.9375,-0.660156 -0.35547,-0.722656 -0.42188,-1.164062 -0.4336,-1.960938 -0.004,-0.253906 -0.008,-0.507812 -0.0117,-0.765624 -0.004,-0.269532 -0.004,-0.539063 -0.004,-0.816407 -0.008,-0.28125 -0.0117,-0.558593 -0.0156,-0.84375 -0.0117,-0.890625 -0.0195,-1.777343 -0.0273,-2.664062 -0.008,-0.605469 -0.0156,-1.207031 -0.0234,-1.808594 -0.0234,-1.476563 -0.0391,-2.953125 -0.0508,-4.429687 -0.15234,0 -0.30469,-0.0039 -0.46094,-0.0078 -0.69531,-0.01953 -1.38672,-0.04297 -2.08203,-0.06641 -0.23828,-0.0039 -0.47656,-0.0078 -0.72266,-0.01563 -2.28906,-0.08203 -2.28906,-0.08203 -3.15234,-0.859375 -0.14453,-0.722657 -0.14453,-0.722657 -0.12109,-1.550781 0.004,-0.40625 0.004,-0.40625 0.008,-0.824219 0.125,-0.796875 0.19531,-0.964844 0.82422,-1.4375 0.58203,-0.101563 0.58203,-0.101563 1.26562,-0.121094 0.36719,-0.01172 0.36719,-0.01172 0.74219,-0.02344 0.25391,-0.0078 0.50781,-0.01172 0.77344,-0.01563 0.38281,-0.01562 0.38281,-0.01562 0.77734,-0.02734 0.63672,-0.01953 1.27344,-0.03516 1.91016,-0.05078 0.0469,-0.132813 0.0977,-0.269532 0.14844,-0.40625 0.0625,-0.175782 0.1289,-0.347657 0.1914,-0.53125 0.0664,-0.171876 0.12891,-0.347657 0.19531,-0.527344 0.48829,-1.199219 2.26563,-0.71875 3.3711,-0.722656 z m 0,0"
       id="path230" /><path
       style="fill:#fdfdfd;fill-opacity:1;fill-rule:nonzero;stroke:none"
       d="m 198.125,24.492188 c 0.41797,0 0.41797,0 0.83984,0 0.3086,0 0.61719,0 0.9336,0 0.32422,0 0.65234,0 0.97656,0 0.88672,0 1.76953,0 2.65625,0 0.92578,0 1.85156,0 2.77344,0 1.55468,0 3.10937,0 4.66015,0 1.80078,0 3.59766,0 5.39453,0 1.54297,0 3.08204,0 4.625,0 0.92188,0 1.84375,0 2.76563,0 0.86719,0 1.73437,0 2.59766,0 0.47265,0 0.94531,0 1.41406,0 0.28125,0 0.55859,0 0.84375,0 0.24219,0 0.48828,0 0.73828,0 0.54297,0.03125 0.54297,0.03125 0.78125,0.269531 0.0586,0.789062 0.043,1.578125 0.043,2.367187 0.004,0.222656 0.008,0.441406 0.0117,0.671875 0,0.210938 0,0.425781 0,0.644531 0,0.195313 0.004,0.390626 0.004,0.589844 -0.0586,0.488282 -0.0586,0.488282 -0.53515,0.964844 -0.56641,0.05859 -0.56641,0.05859 -1.28907,0.05859 -0.41015,0.0039 -0.41015,0.0039 -0.83203,0.0078 -0.30078,-0.0039 -0.60156,-0.0039 -0.91406,-0.0039 -0.32031,0 -0.64062,0 -0.96094,0 -0.87109,0.0039 -1.74218,0.0039 -2.61328,0 -0.91015,0 -1.82031,0 -2.73047,0.0039 -1.52734,0 -3.05468,-0.0039 -4.58203,-0.0039 -1.76953,-0.0039 -3.53906,-0.0039 -5.30859,0 -1.51563,0.0039 -3.03125,0.0039 -4.55078,0 -0.90625,0 -1.8125,0 -2.71875,0.0039 -0.85157,0 -1.70703,0 -2.5586,-0.0039 -0.46093,0 -0.92578,0 -1.39062,0.0039 -0.27344,-0.0039 -0.54688,-0.0039 -0.82813,-0.0078 -0.23828,0 -0.48047,0 -0.72656,0 C 197.08203,30 197.08203,30 196.60547,29.523438 c -0.0586,-0.488282 -0.0586,-0.488282 -0.0547,-1.078126 0,-0.214843 0,-0.425781 0,-0.644531 0.004,-0.222656 0.008,-0.445312 0.008,-0.671875 0,-0.222656 0.004,-0.445312 0.004,-0.675781 0.0117,-1.957031 0.0117,-1.957031 1.5625,-1.960937 z m 0,0"
       id="path232" /><path
       style="fill:#fdfdfd;fill-opacity:1;fill-rule:nonzero;stroke:none"
       d="m 182.51172,59.191406 c 0.26172,0 0.52344,-0.0039 0.78906,-0.0039 0.27344,0.0039 0.54297,0.0078 0.82422,0.0078 0.40625,-0.0039 0.40625,-0.0039 0.82031,-0.0078 0.26172,0 0.52344,0.0039 0.78906,0.0039 0.23829,0 0.47657,0 0.72266,0 0.76172,0.113282 1.04688,0.261719 1.58984,0.808594 0.0977,0.6875 0.0977,0.6875 0.0664,1.511719 -0.008,0.300781 -0.0156,0.601562 -0.0234,0.90625 -0.0156,0.304687 -0.0273,0.605469 -0.043,0.914062 -0.0117,0.265625 -0.0195,0.527344 -0.0312,0.800781 -0.0312,0.789063 -0.0742,1.578126 -0.11718,2.367188 -0.0156,0.285156 -0.0312,0.574219 -0.0469,0.867188 -0.0312,0.597656 -0.0625,1.199218 -0.0977,1.796874 -0.0508,0.914063 -0.0977,1.824219 -0.14454,2.738282 -0.0352,0.585937 -0.0664,1.171875 -0.0977,1.753906 -0.0117,0.273438 -0.0273,0.542969 -0.043,0.820312 -0.0391,0.730469 -0.0859,1.460938 -0.13672,2.191407 -0.0117,0.210937 -0.0234,0.417969 -0.0391,0.636719 -0.10938,1.398437 -0.10938,1.398437 -0.52344,1.914062 -0.57812,0.457031 -1.05078,0.398438 -1.77734,0.398438 -0.26953,0.0039 -0.54297,0.0039 -0.82422,0.0039 -0.28516,-0.0039 -0.56641,-0.0039 -0.85938,-0.0078 -0.28515,0.0039 -0.57031,0.0039 -0.85937,0.0078 -0.27344,0 -0.54688,0 -0.82813,-0.0039 -0.25,0 -0.5,0 -0.7539,0 -0.76172,-0.105469 -1.09375,-0.25 -1.61719,-0.808594 -0.0977,-0.472656 -0.0977,-0.472656 -0.0664,-1.039063 0.0117,-0.226562 0.0195,-0.449219 0.0312,-0.679687 0.0234,-0.378906 0.0234,-0.378906 0.0508,-0.765625 0.0156,-0.265625 0.0273,-0.535157 0.043,-0.808594 0.0352,-0.644531 0.0742,-1.289063 0.10938,-1.933594 0.0703,-1.171875 0.125,-2.347656 0.17578,-3.519531 0.0508,-1.125 0.10937,-2.25 0.16406,-3.375 0.0273,-0.570312 0.0547,-1.140625 0.082,-1.707031 0.0352,-0.808594 0.0781,-1.621094 0.1211,-2.429688 0.0156,-0.367187 0.0156,-0.367187 0.0312,-0.746093 0.0117,-0.226563 0.0273,-0.453126 0.0391,-0.6875 0.0117,-0.199219 0.0195,-0.398438 0.0312,-0.605469 0.33203,-1.214844 1.33984,-1.316407 2.44922,-1.320313 z m 0,0"
       id="path234" /><path
       style="fill:#fdfdfd;fill-opacity:1;fill-rule:nonzero;stroke:none"
       d="m 105.65625,8.289062 c 0.30078,-0.00391 0.60156,-0.00781 0.91406,-0.00781 0.28516,0 0.57422,-0.00391 0.86719,-0.00391 0.39844,0 0.39844,0 0.80469,0 0.64062,0.054687 0.64062,0.054687 1.11328,0.53125 0.0781,1.171875 0.0703,1.820312 -0.47266,2.859375 0.17969,-0.0078 0.36328,-0.01172 0.55078,-0.01563 0.82813,-0.01953 1.65235,-0.03125 2.48047,-0.04687 0.28516,-0.0078 0.57032,-0.01563 0.86719,-0.02344 0.41406,-0.0039 0.41406,-0.0039 0.83594,-0.0078 0.2539,-0.0039 0.50781,-0.01172 0.76953,-0.01563 0.84375,0.136718 1.11719,0.386718 1.625,1.058594 0.12891,0.789062 0.12891,0.789062 0.12109,1.667968 0.004,0.433594 0.004,0.433594 0.008,0.878906 -0.15235,0.941407 -0.33985,1.164063 -1.07813,1.742188 -0.65234,0.117188 -0.65234,0.117188 -1.40625,0.117188 -0.28125,0.0039 -0.56641,0.0039 -0.85937,0.0078 -0.30469,-0.0039 -0.60938,-0.0039 -0.92188,-0.0078 -0.47266,0 -0.47266,0 -0.94922,0 -0.66406,0 -1.32812,-0.0039 -1.98828,-0.0078 -0.85156,-0.0078 -1.69922,-0.0078 -2.55078,-0.0039 -0.80859,0.0039 -1.62109,0 -2.42969,-0.0039 -0.30859,0 -0.61328,0 -0.92578,0.0039 -0.28516,-0.0039 -0.56641,-0.0078 -0.85547,-0.01172 -0.25,0 -0.5,0 -0.75781,-0.0039 -0.62109,-0.08984 -0.62109,-0.08984 -1.05859,-0.414063 -0.429692,-0.613281 -0.34375,-1.085937 -0.27344,-1.820312 0.1914,-0.726563 0.1914,-0.726563 0.46094,-1.484375 0.14062,-0.410156 0.14062,-0.410156 0.28906,-0.828125 0.0977,-0.285157 0.19922,-0.566407 0.30469,-0.855469 0.10156,-0.289062 0.19921,-0.574219 0.30468,-0.871094 0.95313,-2.707031 1.38282,-2.433594 4.21094,-2.433594 z m 0,0"
       id="path236" /><path
       style="fill:#fdfdfd;fill-opacity:1;fill-rule:nonzero;stroke:none"
       d="m 252.71094,39.285156 c 0.0117,0.703125 0.0195,1.410156 0.0273,2.113282 0.004,0.199218 0.008,0.402343 0.0117,0.609374 0.004,0.285157 0.004,0.285157 0.008,0.578126 0.004,0.265624 0.004,0.265624 0.008,0.539062 -0.0547,0.445312 -0.0547,0.445312 -0.53125,0.921875 -0.51562,0.113281 -0.51562,0.113281 -1.16796,0.1875 -0.24219,0.02734 -0.48438,0.05469 -0.73438,0.08594 -0.26172,0.02734 -0.52734,0.05859 -0.79687,0.08594 -0.27344,0.03125 -0.54297,0.0625 -0.82032,0.09375 -0.57422,0.06641 -1.14453,0.128906 -1.71875,0.195312 -0.875,0.09375 -1.7539,0.195313 -2.6289,0.296876 -0.55469,0.0625 -1.11328,0.125 -1.66797,0.1875 -0.39063,0.04687 -0.39063,0.04687 -0.79297,0.08984 -2.5625,0.28125 -2.5625,0.28125 -3.46094,0.207031 -0.65625,-0.660156 -0.54297,-1.117187 -0.55078,-2.019531 0,-0.199219 0,-0.394531 0,-0.601562 -0.004,-0.195313 -0.008,-0.394531 -0.0117,-0.597657 0,-0.191406 0,-0.378906 0,-0.578124 0,-0.171876 0,-0.347657 0,-0.527344 0.0859,-0.4375 0.0859,-0.4375 0.80078,-0.914063 0.57422,-0.113281 0.57422,-0.113281 1.26563,-0.191406 0.25781,-0.03125 0.51953,-0.0625 0.78515,-0.09375 0.41797,-0.04297 0.41797,-0.04297 0.84375,-0.08984 0.28907,-0.03125 0.57422,-0.06641 0.8711,-0.09766 0.60937,-0.06641 1.21484,-0.132813 1.82422,-0.199219 0.92968,-0.101562 1.85937,-0.207031 2.78906,-0.3125 0.58984,-0.06641 1.17969,-0.132812 1.76953,-0.195312 0.27734,-0.03125 0.55469,-0.0625 0.84375,-0.09766 0.39063,-0.03906 0.39063,-0.03906 0.78516,-0.08203 0.23047,-0.02344 0.45703,-0.05078 0.6914,-0.07422 0.65625,0.0039 1.00391,0.140624 1.5586,0.480468 z m 0,0"
       id="path238" /><path
       style="fill:#f5f5f5;fill-opacity:1;fill-rule:nonzero;stroke:none"
       d="m 180.20312,32.855469 c 0.15625,0.160156 0.3125,0.316406 0.47266,0.476562 0.0781,-0.07813 0.15625,-0.15625 0.23828,-0.238281 0.62891,-0.04687 1.24219,-0.07422 1.8711,-0.08594 0.26171,-0.01562 0.26171,-0.01562 0.53125,-0.02734 0.50781,-0.01172 0.50781,-0.01172 1.40234,0.113281 0.875,1.039062 1.01172,2.382812 1.25781,3.679688 0.0469,0.238281 0.0937,0.480468 0.14453,0.726562 0.0977,0.503906 0.19532,1.011719 0.29297,1.515625 0.14844,0.777344 0.30078,1.550781 0.45313,2.324219 0.0937,0.492187 0.1875,0.984375 0.28515,1.472656 0.043,0.234375 0.0898,0.464844 0.13672,0.707031 0.043,0.214844 0.082,0.429688 0.125,0.652344 0.0352,0.1875 0.0703,0.378906 0.10938,0.574219 0.0469,0.492187 0.0469,0.492187 -0.19141,1.207031 -0.74609,0.375 -1.53906,0.3125 -2.35937,0.328125 -0.17579,0.0078 -0.34766,0.01563 -0.52735,0.02734 -0.50781,0.0078 -0.50781,0.0078 -1.39062,-0.117188 -0.8086,-0.988281 -0.94532,-2.117187 -1.14844,-3.339844 -0.0547,-0.304687 -0.0547,-0.304687 -0.10938,-0.617187 -0.11328,-0.652344 -0.22265,-1.300781 -0.33203,-1.953125 -0.0781,-0.441406 -0.15234,-0.882812 -0.23047,-1.324219 -0.1875,-1.082031 -0.375,-2.160156 -0.55859,-3.242187 -0.0781,2.828125 -0.15625,5.65625 -0.23828,8.570312 -0.0781,0 -0.15625,0 -0.23438,0 0,-3.769531 0,-7.542968 0,-11.429687 z m 0,0"
       id="path240" /><path
       style="fill:#fafafa;fill-opacity:1;fill-rule:nonzero;stroke:none"
       d="m 170.39844,33.03125 c 0.17578,0 0.35156,0.0039 0.53125,0.0039 0.26172,-0.0039 0.26172,-0.0039 0.53125,-0.0039 1.30859,0.0039 1.30859,0.0039 1.84765,0.539062 -0.0352,0.628907 -0.0352,0.628907 -0.16406,1.4375 -0.0508,0.300782 -0.0977,0.597657 -0.14844,0.910157 -0.0547,0.328125 -0.10937,0.65625 -0.16406,0.988281 -0.0547,0.335938 -0.10937,0.671875 -0.16406,1.011719 -0.14063,0.878906 -0.28906,1.753906 -0.44141,2.632812 -0.0625,0.359375 -0.125,0.722657 -0.18359,1.082031 -0.0898,0.535157 -0.17969,1.066407 -0.27344,1.597657 -0.0234,0.160156 -0.0508,0.320312 -0.0781,0.484375 -0.17188,0.957031 -0.39454,1.707031 -1,2.476562 -0.6875,0.109375 -1.21875,0.144532 -1.90235,0.117188 -0.17187,0 -0.34375,0.0039 -0.51953,0.0039 -1.23437,-0.02344 -1.23437,-0.02344 -1.80078,-0.40625 -0.29297,-0.429688 -0.29297,-0.429688 -0.28516,-1.015625 0.0469,-0.230469 0.0937,-0.460937 0.14063,-0.699219 0.0508,-0.257812 0.0977,-0.519531 0.15234,-0.785156 0.0547,-0.28125 0.11328,-0.558594 0.17578,-0.847656 0.0547,-0.285156 0.10938,-0.570313 0.16797,-0.863282 0.17578,-0.882812 0.35938,-1.765624 0.54297,-2.648437 0.082,-0.410156 0.082,-0.410156 0.16797,-0.832031 0.15625,-0.757813 0.3125,-1.519532 0.47266,-2.277344 0.0469,-0.230469 0.0937,-0.464844 0.14453,-0.703125 0.0469,-0.210937 0.0937,-0.425781 0.14062,-0.644531 0.0391,-0.1875 0.0781,-0.371094 0.1211,-0.5625 0.33593,-1.070313 0.98828,-0.992188 1.98828,-0.996094 z m 0,0"
       id="path242" /><path
       style="fill:#fafafa;fill-opacity:1;fill-rule:nonzero;stroke:none"
       d="m 149.71484,33.03125 c 0.17578,0 0.35157,0.0039 0.53125,0.0039 0.26563,-0.0039 0.26563,-0.0039 0.53125,-0.0039 1.3125,0.0039 1.3125,0.0039 1.84766,0.539062 0.10937,2.203126 -0.54297,4.582032 -0.92969,6.746094 -0.11328,0.640625 -0.22265,1.28125 -0.33203,1.925782 -0.0703,0.40625 -0.14453,0.816406 -0.21484,1.226562 -0.0469,0.285156 -0.0469,0.285156 -0.0977,0.578125 -0.28516,1.554687 -0.28516,1.554687 -1.04297,2.144531 -0.61719,0.0625 -1.16797,0.08984 -1.78125,0.07422 -0.24219,0 -0.24219,0 -0.48828,0 -0.875,-0.0078 -1.26172,-0.05469 -2.00781,-0.550781 0.10937,-2.324219 0.58203,-4.585938 1.04297,-6.859375 0.13281,-0.660157 0.26172,-1.324219 0.39062,-1.984375 0.082,-0.421875 0.16797,-0.839844 0.25,-1.261719 0.0391,-0.199219 0.0781,-0.394531 0.11719,-0.597656 0.32422,-1.589844 0.52344,-1.976563 2.18359,-1.980469 z m 0,0"
       id="path244" /><path
       style="fill:#fafafa;fill-opacity:1;fill-rule:nonzero;stroke:none"
       d="m 162.47656,33.035156 c 0.16406,-0.0039 0.32813,-0.0078 0.5,-0.01563 0.48047,-0.0039 0.48047,-0.0039 1.29688,0.07422 0.53515,0.804688 0.66797,1.515625 0.83203,2.445312 0.0312,0.167969 0.0625,0.339844 0.0937,0.515626 0.0664,0.355468 0.13281,0.714843 0.19531,1.074218 0.0977,0.542969 0.19531,1.089844 0.29688,1.632813 0.0625,0.351562 0.125,0.699219 0.1875,1.046875 0.0469,0.242187 0.0469,0.242187 0.0898,0.488281 0.17969,1.023437 0.25391,2 0.20703,3.035156 -0.48828,0.488281 -1.45312,0.347657 -2.125,0.386719 -0.17578,0.01563 -0.35156,0.02734 -0.53516,0.03906 -1.32421,0.08203 -1.32421,0.08203 -1.85546,-0.1875 -0.12891,-0.574218 -0.22657,-1.132812 -0.3086,-1.71875 -0.0391,-0.261718 -0.0391,-0.261718 -0.0781,-0.527343 -0.0547,-0.371094 -0.10547,-0.742188 -0.16016,-1.113281 -0.0781,-0.558594 -0.16016,-1.121094 -0.24609,-1.679688 -0.50391,-3.460938 -0.50391,-3.460938 -0.39844,-5.199219 0.47266,-0.472656 1.36328,-0.292969 2.00781,-0.296875 z m 0,0"
       id="path246" /><path
       style="fill:#fdfdfd;fill-opacity:1;fill-rule:nonzero;stroke:none"
       d="m 182.30469,52.585938 c 0.16015,0 0.32422,0 0.49218,0 0.34375,0 0.6875,0 1.03516,0.0039 0.52734,0 1.05469,0 1.58594,-0.0039 0.33203,0 0.66797,0 1,0 0.30859,0 0.61328,0.0039 0.92969,0.0039 0.69921,0.02734 0.69921,0.02734 0.9375,0.265625 0.0195,0.339843 0.0234,0.675781 0.0234,1.015625 0,0.203125 -0.004,0.40625 -0.004,0.613281 -0.004,0.324219 -0.004,0.324219 -0.004,0.648437 -0.004,0.214844 -0.004,0.429688 -0.004,0.652344 -0.004,0.53125 -0.008,1.0625 -0.0117,1.597656 -1.00782,0.5 -2.32422,0.28125 -3.4336,0.28125 -0.48828,0 -0.97656,0.0039 -1.46875,0.0078 -0.30469,0 -0.61328,0 -0.92969,0.0039 -0.28515,0 -0.5664,0 -0.85937,0 -0.67969,-0.05859 -0.67969,-0.05859 -1.15625,-0.53125 -0.0547,-0.445312 -0.0547,-0.445312 -0.0547,-0.976562 0,-0.191407 0.004,-0.382813 0.004,-0.578125 0,-0.199219 0.004,-0.398438 0.008,-0.605469 0,-0.199219 0,-0.398437 0,-0.605469 0.0156,-1.835937 0.11719,-1.789062 1.91016,-1.792968 z m 0,0"
       id="path248" /><path
       style="fill:#fafafa;fill-opacity:1;fill-rule:nonzero;stroke:none"
       d="m 171.16797,18.09375 c 0.63672,-0.06641 1.21875,-0.08594 1.85937,-0.07813 0.1836,0 0.36719,0.0039 0.55469,0.0039 0.38672,0 0.77344,0.0039 1.16406,0.0078 0.59375,0.0078 1.19141,0.01172 1.78516,0.01172 0.37891,0.0039 0.75391,0.0039 1.12891,0.0078 0.26953,0 0.26953,0 0.54296,0.0039 1.25782,0.01563 1.25782,0.01563 1.52344,0.28125 0.0391,0.476563 0.0391,0.476563 0.043,1.058594 0.004,0.191406 0.008,0.382813 0.0117,0.578125 -0.0547,0.507812 -0.0547,0.507812 -0.53125,0.984375 -0.58594,0.05078 -1.14844,0.07031 -1.73828,0.07031 -0.25781,0.0039 -0.25781,0.0039 -0.51953,0.0039 -0.36328,0 -0.72657,0 -1.08985,0 -0.55859,0 -1.11328,0.0039 -1.66797,0.01172 -0.35546,0 -0.70703,0 -1.05859,0 -0.16797,0.0039 -0.33594,0.0039 -0.50391,0.0078 -0.6875,-0.0078 -1.15625,-0.01953 -1.73046,-0.414063 -0.38672,-0.613281 -0.32422,-1.113281 -0.25,-1.824218 0.15625,-0.234375 0.3125,-0.46875 0.47656,-0.714844 z m 0,0"
       id="path250" /><path
       style="fill:#fafafa;fill-opacity:1;fill-rule:nonzero;stroke:none"
       d="m 172.94141,21.863281 c 0.26953,0 0.26953,0 0.53906,0 0.3789,-0.0039 0.7539,-0.0039 1.13281,-0.0039 0.57813,0 1.15625,-0.0039 1.73438,-0.0078 0.36328,0 0.73046,0 1.09765,0 0.25781,-0.0039 0.25781,-0.0039 0.52344,-0.0078 1.22656,0.0078 1.22656,0.0078 1.75781,0.539062 0.13281,1.453126 0.13281,1.453126 -0.2539,2.070313 -0.71094,0.476563 -1.33204,0.398437 -2.17579,0.394531 -0.16796,0 -0.33593,0 -0.50781,0 -0.35156,0 -0.70312,0 -1.05469,-0.0039 -0.53906,-0.0078 -1.07812,-0.0078 -1.61718,-0.0039 -2.64453,-0.01172 -2.64453,-0.01172 -3.1875,-0.554688 -0.0547,-0.507812 -0.0547,-0.507812 -0.043,-1.085937 0,-0.191407 0,-0.382813 0.004,-0.582031 0.0898,-1.097657 1.1875,-0.75 2.05079,-0.753907 z m 0,0"
       id="path252" /><path
       style="fill:#fafafa;fill-opacity:1;fill-rule:nonzero;stroke:none"
       d="m 155.25,18.066406 c 0.32031,0 0.64453,0.0039 0.96484,0.0039 0.25,0.0039 0.25,0.0039 0.50782,0.0039 0.54296,0 1.08203,0.0039 1.62109,0.0078 0.36719,0 0.73047,0 1.09766,0 0.89843,0.0039 1.79296,0.0078 2.6914,0.01172 0.26563,0.53125 0.27735,0.84375 0.28125,1.429688 0.004,0.167968 0.008,0.335937 0.0117,0.507812 -0.0547,0.445312 -0.0547,0.445312 -0.53125,0.921875 -0.69922,0.05859 -0.69922,0.05859 -1.58984,0.05469 -0.23438,0 -0.23438,0 -0.47266,0 -0.33203,0 -0.66016,-0.0039 -0.99219,-0.0078 -0.50781,-0.0039 -1.01562,-0.0039 -1.52343,-0.0039 -2.48047,-0.0078 -2.48047,-0.0078 -3.02735,-0.28125 -0.008,-0.390625 -0.0117,-0.785156 -0.0156,-1.175782 -0.004,-0.21875 -0.004,-0.4375 -0.008,-0.660156 0.0352,-0.839844 0.13282,-0.777344 0.98438,-0.8125 z m 0,0"
       id="path254" /><path
       style="fill:#fafafa;fill-opacity:1;fill-rule:nonzero;stroke:none"
       d="m 155.25,21.878906 c 0.32031,0 0.64453,0 0.96484,0.0039 0.25,0 0.25,0 0.50782,0 0.54296,0 1.08203,0.0039 1.62109,0.0078 0.36719,0 0.73047,0 1.09766,0.0039 0.89843,0 1.79296,0.0039 2.6914,0.01172 0.26563,0.527344 0.28516,0.84375 0.29688,1.425781 0.008,0.167969 0.0117,0.335938 0.0195,0.507813 -0.0273,0.148437 -0.0508,0.292968 -0.0781,0.445312 -0.85937,0.574219 -1.2539,0.535156 -2.27343,0.53125 -0.3086,0 -0.61329,0 -0.92969,0 -0.23828,-0.0039 -0.23828,-0.0039 -0.48438,-0.0039 -0.48828,-0.0078 -0.97265,-0.0078 -1.46093,-0.0078 -2.39063,-0.0078 -2.39063,-0.0078 -2.9336,-0.28125 -0.008,-0.390626 -0.0117,-0.785157 -0.0156,-1.175782 -0.004,-0.21875 -0.004,-0.4375 -0.008,-0.660156 0.0352,-0.839844 0.13282,-0.777344 0.98438,-0.808594 z m 0,0"
       id="path256" /></g></svg>
